<svg width="40.000000" height="9.000000" viewBox="0 0 40 9" fill="none" xmlns="http://www.w3.org/2000/svg" xmlns:xlink="http://www.w3.org/1999/xlink">
	<desc>
			Created with Pixso.
	</desc>
	<defs/>
	<path id="Vector" d="M6.49841 0C2.91507 0 0 2.01855 0 4.5C0 6.98145 2.91507 9 6.49841 9C9.88782 9 12.6779 7.19385 12.97 4.89844L17.6471 4.89844L17.6471 5.84473L40 5.84473L40 3.15576L17.647 3.15576L17.647 4.10205L12.9698 4.10205C12.6777 1.80664 9.88782 0 6.49841 0ZM18.5102 3.95166L39.1367 3.95166L39.1367 5.04834L18.5102 5.04834L18.5102 3.95166ZM12.1338 4.5C12.1338 6.54199 9.60562 8.20361 6.49829 8.20361C3.39096 8.20361 0.862823 6.54199 0.862823 4.5C0.862823 2.45801 3.39096 0.796387 6.49829 0.796387C9.60562 0.796387 12.1338 2.45801 12.1338 4.5Z" fill="#DCCA87" fill-opacity="1.000000" fill-rule="nonzero"/>
</svg>
