<svg width="22.006897" height="18.720703" viewBox="0 0 22.0069 18.7207" fill="none" xmlns="http://www.w3.org/2000/svg" xmlns:xlink="http://www.w3.org/1999/xlink">
	<desc>
			Created with Pixso.
	</desc>
	<defs/>
	<path d="M22.0002 1.30859C22.0003 1.13184 21.9536 0.958496 21.8649 0.805664C21.7761 0.652832 21.6485 0.526367 21.4949 0.439453C21.3414 0.352051 21.1675 0.306641 20.9908 0.308594C20.8142 0.310547 20.6412 0.358887 20.4894 0.449219C19.9042 0.797852 19.274 1.06445 18.6165 1.24219C17.6774 0.436523 16.4798 -0.00439453 15.2425 0C13.885 0.00146484 12.5814 0.530762 11.6067 1.47559C10.632 2.42041 10.0626 3.70703 10.0189 5.06348C7.34283 4.63672 4.91748 3.24023 3.20526 1.13965C3.10211 1.01465 2.9704 0.916016 2.82117 0.852539C2.67194 0.789062 2.50958 0.762207 2.34784 0.774414C2.18622 0.787598 2.03027 0.840332 1.89343 0.927246C1.75665 1.01465 1.64313 1.13379 1.56268 1.27441C1.15021 1.99414 0.91333 2.80127 0.871277 3.62988C0.829163 4.4585 0.983093 5.28516 1.3205 6.04297L1.31854 6.04492C1.16693 6.13818 1.04175 6.26904 0.955078 6.4248C0.868408 6.58008 0.823059 6.75537 0.823425 6.93359C0.821594 7.08057 0.830444 7.22754 0.849792 7.37305C0.951965 8.63135 1.50958 9.80908 2.41815 10.6855C2.35651 10.8027 2.31891 10.9316 2.3075 11.0635C2.29608 11.1958 2.31116 11.3286 2.35175 11.4551C2.74786 12.689 3.59027 13.731 4.71405 14.377C3.57233 14.8184 2.33948 14.9722 1.12421 14.8252C0.899292 14.7969 0.671448 14.8462 0.478088 14.9644C0.284668 15.0825 0.137268 15.2632 0.0599365 15.4761C-0.017395 15.6895 -0.0199585 15.9224 0.0526123 16.1372C0.125122 16.3521 0.268494 16.5356 0.459229 16.6582C2.54932 18.0044 4.98291 18.7202 7.46899 18.7197C10.2883 18.7515 13.0389 17.8506 15.2932 16.1572C17.5475 14.4639 19.179 12.0728 19.9338 9.35645C20.2869 8.17285 20.4671 6.94482 20.469 5.70996C20.469 5.64453 20.469 5.57715 20.468 5.50977C20.9901 4.94678 21.3946 4.28516 21.6577 3.56348C21.9208 2.84229 22.0372 2.07568 22.0002 1.30859ZM18.6935 4.52051C18.5284 4.71582 18.4448 4.96729 18.4601 5.22266C18.4699 5.3877 18.4689 5.55371 18.4689 5.70996C18.4669 6.75342 18.314 7.7915 18.0148 8.79102C17.3984 11.1025 16.024 13.1401 14.1119 14.5776C12.1999 16.0151 9.86066 16.7695 7.46899 16.7197C6.60986 16.7202 5.75372 16.6191 4.91821 16.4189C5.98364 16.0757 6.9798 15.5464 7.8606 14.8555C8.02283 14.7275 8.14154 14.5527 8.2005 14.355C8.2594 14.1572 8.25568 13.9458 8.18976 13.75C8.12384 13.5547 7.99902 13.3843 7.8324 13.2622C7.66571 13.1401 7.46545 13.0728 7.25897 13.0693C6.4278 13.0566 5.63409 12.7212 5.0451 12.1348C5.19452 12.1064 5.34296 12.0713 5.49042 12.0293C5.70648 11.9678 5.89551 11.8354 6.0271 11.6533C6.15869 11.4717 6.22528 11.2505 6.216 11.0259C6.20679 10.8018 6.12225 10.5869 5.97614 10.4165C5.82996 10.2456 5.63068 10.1294 5.41034 10.0859C4.92792 9.99072 4.47394 9.78564 4.08368 9.48633C3.69342 9.18701 3.3775 8.80176 3.16034 8.36035C3.34106 8.38525 3.52295 8.40039 3.70526 8.40625C3.92188 8.40967 4.13385 8.34375 4.31067 8.21875C4.48743 8.09326 4.61981 7.91553 4.68866 7.70996C4.75464 7.50293 4.75128 7.27979 4.67902 7.07471C4.60675 6.86914 4.4696 6.69336 4.28827 6.57324C3.84845 6.28027 3.48816 5.88281 3.23962 5.41602C2.99115 4.94971 2.86224 4.42871 2.86444 3.90039C2.86444 3.83398 2.86639 3.76758 2.8703 3.70215C5.11157 5.79248 8.01862 7.02441 11.0793 7.18164C11.2338 7.1875 11.3877 7.15869 11.5293 7.09668C11.6709 7.03467 11.7965 6.94092 11.8967 6.82324C11.9959 6.70459 12.0661 6.56396 12.1019 6.41357C12.1376 6.2627 12.1379 6.10596 12.1027 5.95508C12.0455 5.71631 12.0164 5.47217 12.0158 5.22656C12.0167 4.37109 12.3569 3.55078 12.9619 2.9458C13.5668 2.34131 14.3869 2.00098 15.2424 2C15.6826 1.99902 16.1181 2.08887 16.5217 2.26465C16.9252 2.44043 17.288 2.69775 17.5871 3.02051C17.7025 3.14453 17.8476 3.2373 18.0088 3.28906C18.17 3.34131 18.3419 3.35156 18.508 3.31836C18.9188 3.23828 19.3237 3.13086 19.7199 2.99609C19.4496 3.54932 19.1042 4.06201 18.6935 4.52051Z" fill="#F5EFDB" fill-opacity="1.000000" fill-rule="nonzero"/>
</svg>
