<svg width="78.999954" height="69.000366" viewBox="0 0 79 69.0004" fill="none" xmlns="http://www.w3.org/2000/svg" xmlns:xlink="http://www.w3.org/1999/xlink">
	<desc>
			Created with Pixso.
	</desc>
	<defs/>
	<path id="Vector" d="M20.6548 63.2494C21.2578 62.4928 20.9563 62.4928 21.8609 61.4336C21.8609 61.4336 21.8609 61.4336 21.7101 61.4336L21.5594 61.4336C21.4086 61.585 21.2578 61.7362 21.1071 62.0388C20.9563 62.1902 20.6548 62.3416 20.3532 62.3416C20.2025 62.3416 19.901 62.3414 19.7502 62.1902C19.4487 62.0388 19.2979 62.0389 18.9964 61.8876L18.0918 63.2494C18.8456 63.552 20.0517 64.1572 20.6548 63.2494Z" fill="#F5EFDB" fill-opacity="1.000000" fill-rule="nonzero"/>
	<path id="Vector" d="M22.0118 60.2235C21.861 60.5261 21.861 60.6775 21.861 60.8287C21.861 60.8287 21.861 60.8287 22.0118 60.8287L22.1625 60.8287C22.3133 59.7695 22.6148 59.7695 22.7656 59.0129C23.0671 57.9537 22.1625 57.4999 21.7102 57.0459L20.8057 58.4077C21.1072 58.5591 21.2579 58.7103 21.4087 58.8617C21.5595 59.0131 21.7102 59.1643 21.861 59.3156C22.0118 59.7695 22.0118 60.0721 22.0118 60.2235Z" fill="#F5EFDB" fill-opacity="1.000000" fill-rule="nonzero"/>
	<path id="Vector" d="M23.8204 64.1578C23.0666 63.8552 22.3128 64.1578 21.7097 64.6118C21.1067 65.217 20.8051 65.9736 20.9559 67.0328C20.9559 67.0328 21.1067 66.7302 21.4082 66.2762C21.7097 65.9736 22.0112 65.5197 22.6143 65.5197C23.5189 65.5197 25.328 66.4275 25.9311 65.217C26.3834 64.4604 26.0819 64.3092 26.8357 63.25L26.5342 63.0986C26.3834 63.25 26.2326 63.4012 26.0819 63.7039C25.9311 64.0065 25.7803 64.0066 25.328 64.1578C24.8758 64.4604 24.4235 64.3092 23.8204 64.1578Z" fill="#F5EFDB" fill-opacity="1.000000" fill-rule="nonzero"/>
	<path id="Vector" d="M27.1375 60.98C27.1375 60.3748 26.8359 59.9208 26.3836 59.6182C26.2329 59.4668 25.9314 59.3156 25.7806 59.1642C25.6298 59.0129 25.3283 58.8616 25.3283 58.7103C25.0268 58.4076 25.0268 57.9537 25.1775 57.4998C25.3283 57.0458 25.4791 56.7432 25.4791 56.7432C24.7252 57.3484 24.4237 58.105 24.2729 58.8616C24.2729 59.6182 24.5745 60.3748 25.1775 60.526C25.7806 60.6774 26.0821 60.98 26.3836 61.1313C26.6852 61.434 26.6852 61.5852 26.6852 61.8879C26.6852 62.1906 26.6852 62.3418 26.6852 62.4932L26.9867 62.6444C26.8359 61.7366 26.9867 61.7366 27.1375 60.98Z" fill="#F5EFDB" fill-opacity="1.000000" fill-rule="nonzero"/>
	<path id="Vector" d="M29.0974 65.6714C28.6451 65.5201 28.3436 65.6714 27.8913 65.8228C27.5898 65.974 27.2882 66.2766 26.9867 66.5793C26.5344 67.1846 26.3837 68.0924 26.6852 69.0004C26.6852 69.0004 26.6852 68.6978 26.9867 68.2438C27.1375 67.7898 27.439 67.4872 28.0421 67.3358C28.3436 67.3358 28.4944 67.3358 28.7959 67.3358C29.0974 67.3358 29.3989 67.3358 29.7005 67.3358C30.3035 67.3358 30.9066 67.1846 31.0574 66.428C31.3589 65.5201 31.0574 65.5201 31.5096 64.3096L31.2081 64.3096C31.2081 64.4609 31.0573 64.6122 30.9066 65.0662C30.9066 65.3688 30.6051 65.5201 30.3035 65.6714C30.1528 65.6714 29.7005 65.6714 29.0974 65.6714Z" fill="#F5EFDB" fill-opacity="1.000000" fill-rule="nonzero"/>
	<path id="Vector" d="M31.8114 61.8884C31.8114 61.2831 31.3591 60.9805 30.9068 60.6779C30.6053 60.5265 30.4545 60.5265 30.153 60.3752C29.8515 60.2239 29.7007 60.2239 29.5499 60.0725C29.2484 59.7699 29.2484 59.316 29.2484 58.8621C29.2484 58.4081 29.3992 58.1055 29.3992 58.1055C28.7961 58.8621 28.4946 59.7699 28.6454 60.5265C28.6454 60.8291 28.7961 61.2831 28.9469 61.5857C29.0976 61.8883 29.3992 62.0397 29.8515 62.1909C30.4545 62.3423 30.756 62.4937 31.0576 62.6449C31.3591 62.7963 31.5099 63.0989 31.5099 63.2502C31.5099 63.5529 31.5099 63.7041 31.5099 63.8555C31.5099 63.8555 31.5099 63.8555 31.6606 63.8555L31.8114 63.8555C31.6606 62.7963 31.8114 62.6449 31.8114 61.8884Z" fill="#F5EFDB" fill-opacity="1.000000" fill-rule="nonzero"/>
	<path id="Vector" d="M5.72897 47.5118C6.63355 47.3605 6.48279 47.0579 7.6889 46.9065L7.53813 46.604C7.38737 46.604 7.08585 46.604 6.78432 46.7552C6.48279 46.7552 6.33202 46.7552 6.03049 46.4526C5.72897 46.15 5.57821 45.696 5.27668 45.0908L3.76904 45.696C3.91981 46.15 4.22134 46.6039 4.52286 46.9065C4.82439 47.3605 5.27668 47.5118 5.72897 47.5118Z" fill="#F5EFDB" fill-opacity="1.000000" fill-rule="nonzero"/>
	<path id="Vector" d="M8.59389 45.9991C8.29237 46.1504 8.1416 46.3018 8.1416 46.3018L8.29237 46.6044C9.19695 45.8478 9.34771 46.1504 9.95077 45.5452C10.4031 45.2426 10.5538 44.9399 10.5538 44.486C10.5538 44.032 10.4031 43.7294 10.4031 43.2754L8.89542 43.8806C9.04618 44.486 9.19695 44.7886 9.19695 45.2426C8.89542 45.5452 8.89542 45.8478 8.59389 45.9991Z" fill="#F5EFDB" fill-opacity="1.000000" fill-rule="nonzero"/>
	<path id="Vector" d="M7.53815 50.0846C7.08585 49.328 6.33204 49.0254 5.57822 49.0254C4.8244 49.0254 3.91982 49.4794 3.46753 50.3872C3.46753 50.3872 3.76906 50.2358 4.22134 50.0846C4.67364 49.9332 5.12593 49.9332 5.57822 50.236C5.72898 50.3872 5.87975 50.5386 6.18127 50.8412C6.33204 51.1438 6.4828 51.2952 6.78433 51.5978C7.23662 52.0516 7.68891 52.3544 8.29196 52.203C9.04578 51.9004 9.04578 51.5978 10.2519 51.2952L10.1011 50.9924C9.95036 50.9924 9.64883 51.1438 9.34731 51.2952C9.04578 51.4464 8.89502 51.2952 8.59349 51.1438C8.29196 51.1438 7.83968 50.6898 7.53815 50.0846Z" fill="#F5EFDB" fill-opacity="1.000000" fill-rule="nonzero"/>
	<path id="Vector" d="M12.2121 49.7827C12.6644 49.3287 12.6644 48.8749 12.5136 48.2695C12.3629 47.9669 12.3629 47.8157 12.2121 47.5129C12.0613 47.2103 12.0613 47.059 12.0613 46.9077C12.0613 46.4537 12.3629 46.1511 12.8152 45.8485C13.1167 45.5459 13.569 45.3945 13.569 45.3945C12.6644 45.3945 11.7598 45.6971 11.3075 46.3025C10.7045 46.9077 10.5537 47.5129 10.8552 48.2695C11.1568 48.7235 11.3075 49.1775 11.3075 49.4801C11.3075 49.7827 11.3075 50.0853 11.006 50.2367C10.8552 50.3879 10.7045 50.5393 10.5537 50.6906L10.7045 50.9933C11.4583 50.2367 11.6091 50.3879 12.2121 49.7827Z" fill="#F5EFDB" fill-opacity="1.000000" fill-rule="nonzero"/>
	<path id="Vector" d="M10.704 54.6244C10.101 54.0192 9.34716 53.7164 8.59335 54.0192C8.14105 54.1704 7.83952 54.3218 7.53799 54.6244C7.23647 54.927 6.93494 55.2296 6.78418 55.835C6.78418 55.835 7.08571 55.5322 7.53799 55.381C7.99029 55.2296 8.44258 55.0784 8.89487 55.381C9.34716 55.6836 9.79945 56.1376 10.2517 56.5916C10.704 57.0454 11.3071 57.1968 11.9101 56.8942C12.664 56.4402 12.5132 56.2888 13.5685 55.6836L13.4178 55.5322C13.267 55.5322 13.1162 55.6836 12.8147 55.9862C12.2117 55.8348 11.4579 55.6836 10.704 54.6244Z" fill="#F5EFDB" fill-opacity="1.000000" fill-rule="nonzero"/>
	<path id="Vector" d="M15.0761 53.5659C15.5284 52.9607 15.3777 52.5067 15.0761 52.0527C14.9254 51.5988 14.4731 51.1449 14.4731 50.8422C14.4731 50.3883 14.6238 49.9343 14.9254 49.6317C15.2269 49.3291 15.5284 49.1777 15.5284 49.1777C15.0761 49.3291 14.6238 49.4803 14.3223 49.6317C14.0208 49.7831 13.7193 50.0857 13.4177 50.3883C13.267 50.6909 13.1162 50.9935 13.1162 51.4475C13.1162 51.7501 13.1162 52.2041 13.4177 52.3553C13.7193 52.8093 14.0208 53.2633 14.0208 53.5659C14.1716 53.8685 14.0208 54.1711 13.87 54.3225C13.7193 54.4738 13.5685 54.7764 13.5685 54.7764L13.7193 54.9277C14.4731 54.0199 14.6238 54.1711 15.0761 53.5659Z" fill="#F5EFDB" fill-opacity="1.000000" fill-rule="nonzero"/>
	<path id="Vector" d="M14.4733 58.5574C14.1718 58.2548 13.8703 58.1035 13.418 58.1035C13.1164 58.1035 12.6641 58.1035 12.3626 58.2548C11.6088 58.5574 11.0057 59.314 10.855 60.2219C10.855 60.2219 11.1565 59.9192 11.458 59.7679C11.7596 59.4653 12.3626 59.314 12.8149 59.4653C12.9657 59.4653 13.2672 59.6166 13.5687 59.9192C13.8702 60.0706 14.1718 60.2219 14.3225 60.3732C14.6241 60.5245 14.9256 60.6758 15.2271 60.6758C15.5287 60.6758 15.8302 60.6758 15.9809 60.3732C16.584 59.7679 16.4332 59.6166 17.4886 58.8601L17.187 58.7087C17.0363 58.8601 16.8855 59.0114 16.584 59.1627C16.2825 59.4653 15.5287 59.4653 14.4733 58.5574Z" fill="#F5EFDB" fill-opacity="1.000000" fill-rule="nonzero"/>
	<path id="Vector" d="M18.6951 56.7437C18.8459 56.4409 18.8459 56.1383 18.8459 55.9871C18.8459 55.6844 18.6951 55.5331 18.5444 55.3817C18.3936 55.2305 18.2428 54.9279 18.0921 54.7765C17.9413 54.6252 17.7905 54.4739 17.7905 54.1713C17.6398 53.7173 17.7905 53.2633 18.0921 52.9607C18.3936 52.6581 18.5444 52.3555 18.5444 52.3555C17.6398 52.6581 17.0367 53.2634 16.7352 54.0199C16.5844 54.3226 16.4337 54.7765 16.5844 55.0792C16.5844 55.3818 16.7352 55.6844 17.0367 55.9871C17.9413 56.7437 18.0921 57.3489 17.9413 57.8029C17.7905 58.1055 17.7905 58.2567 17.6398 58.4081L17.9413 58.5594C18.0921 57.3489 18.2428 57.5001 18.6951 56.7437Z" fill="#F5EFDB" fill-opacity="1.000000" fill-rule="nonzero"/>
	<path id="Vector" d="M15.679 64.1573C15.679 64.1573 15.8298 63.8546 16.1313 63.552C16.4328 63.2494 16.8851 62.9468 17.3374 63.0981C17.4882 63.0981 17.7897 63.2494 18.0912 63.2494L18.9958 61.8876C18.6943 61.7363 18.242 61.585 17.9405 61.585C17.6389 61.585 17.1867 61.7363 16.8851 61.8876C16.1313 62.3416 15.5283 63.0981 15.679 64.1573Z" fill="#F5EFDB" fill-opacity="1.000000" fill-rule="nonzero"/>
	<path id="Vector" d="M21.711 54.7754C20.9567 55.2294 20.3533 55.9858 20.2025 56.7424C20.0516 57.0452 20.0516 57.499 20.2025 57.8018C20.3533 58.1044 20.5042 58.407 20.8059 58.5582L21.711 57.1964C21.5601 57.0452 21.4093 56.8938 21.2584 56.7424C21.1076 56.4398 21.2584 55.8346 21.4093 55.532C21.5601 55.078 21.711 54.7754 21.711 54.7754Z" fill="#F5EFDB" fill-opacity="1.000000" fill-rule="nonzero"/>
	<path id="Vector" d="M17.4884 58.2568C17.4884 58.2568 17.4884 58.257 17.3376 58.1056C17.1869 58.1056 17.0361 57.9542 16.8853 57.803C16.5838 57.5004 16.1315 57.1976 15.6792 56.7438C15.5285 56.5924 15.2269 56.2898 15.0762 56.1384C14.9254 55.9872 14.6239 55.6846 14.4731 55.5332C14.3224 55.382 14.1716 55.2306 14.0208 55.0793C13.8701 54.928 13.8701 54.928 13.8701 54.928L13.7193 54.7766C13.7193 54.7766 13.5686 54.6254 13.267 54.1714C12.9655 53.8688 12.5132 53.4148 12.2117 52.9608C12.0609 52.6582 11.9101 52.507 11.6086 52.2042C11.4579 52.053 11.4579 52.053 11.3071 51.9017C11.3071 51.7504 11.1563 51.7504 11.1563 51.599C10.8548 51.2964 10.704 50.9938 10.704 50.9938L10.5533 50.6912C10.5533 50.6912 10.4025 50.3885 10.101 50.0859C9.95022 49.9346 9.79945 49.632 9.64869 49.4806C9.49792 49.178 9.34716 49.0267 9.1964 48.724C9.1964 48.5728 9.04564 48.4214 9.04564 48.2701C9.04564 48.1188 8.89487 47.9675 8.89487 47.8162C8.74411 47.5135 8.59335 47.3622 8.59335 47.0596C8.44258 46.9083 8.44258 46.757 8.44258 46.6057C8.44258 46.4543 8.29182 46.4543 8.29182 46.4543L8.14105 46.1517C8.14105 46.1517 8.14105 46.0004 7.99029 45.8491C7.83952 45.6978 7.83952 45.3951 7.68876 45.2438C7.538 44.9412 7.53799 44.7898 7.38724 44.6385C7.38724 44.4872 7.23647 44.3359 7.23647 44.3359L6.78418 44.4873C6.78418 44.4873 6.78418 44.6385 6.93494 44.7899C6.93494 44.9412 7.08571 45.2438 7.23647 45.5464C7.38723 45.8491 7.38724 46.0004 7.538 46.1517C7.68876 46.303 7.68876 46.4543 7.68876 46.4543L7.83952 46.757C7.83952 46.757 7.83952 46.757 7.99029 46.9082C7.99029 47.0596 8.14105 47.2109 8.29182 47.3622C8.44258 47.5135 8.44258 47.8162 8.59335 48.1188C8.59335 48.2701 8.74411 48.4214 8.74411 48.5728C8.74411 48.724 8.89487 48.8754 8.89487 49.0267C9.04563 49.3293 9.1964 49.632 9.34716 49.7833C9.49792 50.0859 9.64869 50.2372 9.79945 50.3885C9.95022 50.5398 9.95022 50.6912 10.101 50.8424C10.101 50.9938 10.2517 50.9938 10.2517 50.9938L10.4025 51.2964C10.4025 51.2964 10.5533 51.599 10.8548 51.9017C11.0056 52.053 11.1563 52.3556 11.3071 52.507C11.4579 52.8096 11.6086 52.9608 11.9101 53.2635C12.3624 53.7174 12.664 54.1714 12.9655 54.6254C13.267 54.928 13.4178 55.2306 13.4178 55.2306L13.5685 55.3818C13.5685 55.3818 13.5686 55.382 13.7193 55.5332C13.8701 55.6846 14.0208 55.8358 14.1716 55.9872C14.3224 56.1384 14.4731 56.2898 14.7747 56.5924C14.9254 56.7438 15.2269 57.0464 15.3777 57.1978C15.83 57.6516 16.2823 57.9542 16.7346 58.2568C16.8853 58.4082 17.0361 58.5596 17.1869 58.5596C17.3376 58.7108 17.3376 58.7108 17.3376 58.7108L17.6392 58.8622C17.6392 58.8622 17.7899 59.0134 17.9407 59.1648C18.0915 59.316 18.393 59.4674 18.6945 59.77C19.2976 60.224 19.9006 60.5266 19.9006 60.5266L20.2021 60.0726C20.2021 60.0726 19.5991 59.77 18.996 59.316C18.6945 59.1648 18.393 59.0134 18.2422 58.7108C18.0915 58.5596 17.9407 58.4082 17.9407 58.4082L17.4884 58.2568Z" fill="#F5EFDB" fill-opacity="1.000000" fill-rule="nonzero"/>
	<path id="Vector" d="M4.37214 25.7238C5.12595 26.1776 5.27672 25.875 6.33206 26.6316L6.48283 26.329C6.33206 26.1776 6.1813 26.0264 5.87978 25.875C5.72901 25.7238 5.57825 25.5724 5.42748 25.1184C5.42748 24.8158 5.42748 24.2106 5.72901 23.6052L4.22137 23C4.07061 23.454 3.91985 23.908 3.91985 24.5132C3.76908 24.9672 3.91985 25.421 4.37214 25.7238Z" fill="#F5EFDB" fill-opacity="1.000000" fill-rule="nonzero"/>
	<path id="Vector" d="M7.53799 26.481C7.23647 26.481 7.08571 26.481 6.93494 26.481L6.78418 26.7836C7.83952 26.7836 7.83952 27.0862 8.7441 27.0862C9.1964 27.0862 9.64869 26.9349 9.79945 26.6322C10.101 26.3296 10.2517 26.027 10.4025 25.573L8.89487 24.9678C8.7441 25.573 8.44258 25.8757 8.29182 26.1783C8.14105 26.3296 7.83952 26.481 7.53799 26.481Z" fill="#F5EFDB" fill-opacity="1.000000" fill-rule="nonzero"/>
	<path id="Vector" d="M4.07095 28.9017C4.22171 28.4478 4.07095 28.1451 3.92019 27.6912C3.76942 27.3885 3.4679 27.0859 3.16637 26.7833C2.56332 26.3293 1.65873 26.1781 0.75415 26.4807C0.75415 26.4807 1.05568 26.4807 1.50797 26.7833C1.96026 26.9346 2.26179 27.2373 2.41255 27.8425C2.41255 28.1451 2.41255 28.2965 2.41255 28.5991C2.41255 28.9017 2.41255 29.2043 2.41255 29.507C2.41255 30.1122 2.56332 30.7175 3.31713 30.8688C4.22171 31.1714 4.22172 30.8688 5.42783 31.3228L5.42783 31.0201C5.27706 31.0201 5.1263 30.8688 4.67401 30.7175C4.37248 30.7175 4.22172 30.4149 4.22172 30.1122C4.07095 30.1122 3.92019 29.507 4.07095 28.9017Z" fill="#F5EFDB" fill-opacity="1.000000" fill-rule="nonzero"/>
	<path id="Vector" d="M7.83932 31.6254C8.44238 31.6254 8.7439 31.1714 9.04543 30.7175C9.1962 30.4149 9.1962 30.2635 9.34695 29.9609C9.49772 29.6583 9.49772 29.507 9.64848 29.3556C9.95001 29.053 10.4023 29.053 10.8546 29.053C11.3069 29.053 11.6084 29.2043 11.6084 29.2043C10.8546 28.599 10.1008 28.2964 9.1962 28.4478C8.7439 28.4478 8.44238 28.599 8.14085 28.7504C7.83932 28.9017 7.68856 29.2043 7.5378 29.6582C7.38703 30.2635 7.23627 30.5662 7.0855 30.8688C6.93474 31.1714 6.63321 31.3228 6.48244 31.3228C6.18092 31.3228 6.03016 31.3228 5.87939 31.3228C5.87939 31.3228 5.87939 31.3228 5.87939 31.4741L5.87939 31.6254C6.93474 31.474 6.93474 31.7767 7.83932 31.6254Z" fill="#F5EFDB" fill-opacity="1.000000" fill-rule="nonzero"/>
	<path id="Vector" d="M3.61832 34.3491C3.61832 33.5925 3.16604 32.8359 2.41222 32.5333C1.6584 32.2307 0.753815 32.0793 0 32.6847C0 32.6847 0.301529 32.6847 0.753815 32.8359C1.20611 32.9873 1.6584 33.1387 1.80916 33.7439C1.95992 33.8951 1.95992 34.1978 1.95992 34.5005C1.95992 34.8031 2.11069 35.1057 2.11069 35.4083C2.26145 36.0135 2.56298 36.6188 3.16604 36.6188C4.07062 36.7701 4.07062 36.4675 5.27673 36.7701L5.27673 36.4675C5.12596 36.4675 4.82444 36.3162 4.52291 36.3162C4.22138 36.3162 4.07062 36.1649 3.91985 35.7109C3.61832 35.5596 3.61832 35.1057 3.61832 34.3491Z" fill="#F5EFDB" fill-opacity="1.000000" fill-rule="nonzero"/>
	<path id="Vector" d="M7.68882 36.4667C8.29188 36.3153 8.5934 35.8615 8.74416 35.4075C8.74416 35.1049 8.89493 34.9535 8.89493 34.6509C8.89493 34.3483 9.04569 34.1969 9.04569 34.0457C9.19646 33.743 9.79951 33.5917 10.101 33.4403C10.5533 33.4403 10.8549 33.4403 10.8549 33.4403C10.101 32.9865 9.19646 32.8351 8.44263 32.9865C7.68882 33.1377 7.23653 33.743 7.08576 34.4996C7.08576 35.1049 6.935 35.5588 6.78423 35.8615C6.63348 36.1641 6.48271 36.3153 6.18118 36.4667C5.87965 36.4667 5.72889 36.618 5.57812 36.618L5.57812 36.9207C6.78423 36.3154 6.935 36.618 7.68882 36.4667Z" fill="#F5EFDB" fill-opacity="1.000000" fill-rule="nonzero"/>
	<path id="Vector" d="M3.91997 39.7953C3.91997 39.3413 3.61844 39.0387 3.46768 38.7361C3.16615 38.4335 2.86462 38.2821 2.5631 38.1309C1.80928 37.9795 0.904694 37.9795 0.150879 38.7361C0.150879 38.7361 0.452408 38.7361 0.904694 38.7361C1.35699 38.7361 1.80928 38.8875 2.11081 39.3413C2.41233 39.7953 2.41233 40.4005 2.71386 41.0059C3.01539 41.6111 3.31692 42.0651 3.91997 42.0651C4.82455 42.0651 4.82455 41.7623 6.03066 41.9137C6.03066 41.9137 6.03066 41.9137 6.03066 41.7623L6.03066 41.6111C5.8799 41.6111 5.57837 41.6111 5.27684 41.6111C4.97532 41.6111 4.82455 41.4597 4.52303 41.1571C4.37226 41.0059 4.37226 40.8545 4.2215 40.5519C4.07073 40.4005 4.07073 40.0979 3.91997 39.7953Z" fill="#F5EFDB" fill-opacity="1.000000" fill-rule="nonzero"/>
	<path id="Vector" d="M8.44258 41.1575C9.04564 40.8549 9.1964 40.4009 9.1964 39.9469C9.1964 39.4929 9.1964 38.8877 9.34716 38.5851C9.49792 38.1311 9.95022 37.9799 10.4025 37.8285C10.8548 37.6771 11.1563 37.6771 11.1563 37.6771C10.2517 37.3745 9.34716 37.3745 8.74411 37.6771C8.44258 37.8285 8.14105 38.1311 7.99029 38.2825C7.83952 38.5851 7.68876 38.8877 7.83952 39.3417C7.83952 39.6443 7.83952 39.9469 7.83952 40.0983C7.83952 40.2495 7.83952 40.5521 7.83952 40.7035C7.68876 41.0061 7.53799 41.3087 7.38724 41.3087C7.08571 41.4601 6.93494 41.4601 6.78418 41.6113C6.78418 41.6113 6.78418 41.6113 6.78418 41.7627L6.78418 41.9141C7.53799 41.3087 7.68876 41.4601 8.44258 41.1575Z" fill="#F5EFDB" fill-opacity="1.000000" fill-rule="nonzero"/>
	<path id="Vector" d="M1.35767 44.7897C1.35767 44.7897 1.65919 44.6383 2.11149 44.6383C2.56377 44.6383 3.01607 44.6383 3.46836 45.0923C3.61913 45.2437 3.76989 45.3949 3.92065 45.6975L5.42829 45.0923C5.27753 44.6383 5.12676 44.3357 4.82523 44.1844C4.67447 44.0331 4.5237 44.0331 4.37294 43.8817C4.22218 43.8817 4.07141 43.7305 3.76989 43.7305C2.8653 43.7305 1.96072 44.0331 1.35767 44.7897Z" fill="#F5EFDB" fill-opacity="1.000000" fill-rule="nonzero"/>
	<path id="Vector" d="M11.9105 41.6134C11.0059 41.462 10.1013 41.6134 9.49824 42.0674C9.34747 42.2186 9.19671 42.37 9.04595 42.37C8.89519 42.5212 8.89519 42.6726 8.74442 42.8239C8.59366 43.1266 8.59366 43.4292 8.74442 43.8831L10.2521 43.2778C10.2521 43.1265 10.2521 42.8239 10.2521 42.6726C10.4028 42.2186 10.7043 41.916 11.1566 41.7646C11.6089 41.7646 11.9105 41.6134 11.9105 41.6134Z" fill="#F5EFDB" fill-opacity="1.000000" fill-rule="nonzero"/>
	<path id="Vector" d="M6.48308 41.4598C6.48308 41.4598 6.48308 41.1572 6.33231 40.7032C6.18155 40.2494 6.18155 39.644 6.03078 39.0388C6.03078 38.7362 5.88003 38.4336 5.88003 38.131C5.88003 37.8282 5.88002 37.5256 5.72926 37.3744C5.72926 37.223 5.72926 36.9204 5.72926 36.7692C5.72926 36.6178 5.72926 36.6178 5.72926 36.6178L5.72926 36.3152C5.72926 36.3152 5.72926 36.3152 5.72926 36.1638C5.72926 36.0126 5.72926 35.8612 5.72926 35.5586C5.72926 35.4072 5.72926 35.1046 5.72926 34.802C5.72926 34.4994 5.72926 34.1968 5.72926 33.8942C5.72926 33.2888 5.72926 32.6836 5.88003 32.2296C5.88003 31.7758 5.88003 31.473 5.88003 31.473C5.88003 31.473 5.88003 31.473 5.88003 31.3218L5.88003 31.1704C5.88003 31.1704 5.88003 30.8678 6.03078 30.4138C6.03078 30.2626 6.03079 29.96 6.18155 29.6572C6.18155 29.3546 6.33231 29.052 6.33231 28.7494C6.33231 28.5981 6.33231 28.4468 6.48308 28.2954C6.48308 28.1442 6.48308 27.9928 6.63384 27.8416C6.63384 27.5389 6.78461 27.2362 6.78461 27.085C6.78461 26.9336 6.93537 26.631 6.93537 26.631C6.93537 26.4796 6.93537 26.4797 6.93537 26.4797L7.08613 26.177C7.08613 26.177 7.08614 26.0258 7.23689 25.8744C7.23689 25.7231 7.23689 25.7231 7.38766 25.5718C7.38766 25.4204 7.53842 25.2692 7.53842 25.2692C7.68919 24.8152 7.83995 24.3612 7.83995 24.3612L7.38766 24.21C7.38766 24.21 7.23689 24.6639 7.08613 25.2692C6.93537 25.5718 6.93537 25.7231 6.93537 26.0258C6.93537 26.177 6.78461 26.3284 6.78461 26.3284L6.63384 26.631C6.63384 26.631 6.63384 26.631 6.63384 26.7823C6.63384 26.9336 6.48308 27.085 6.48308 27.3876C6.48308 27.5388 6.33231 27.8416 6.33231 28.1442C6.33231 28.2954 6.33231 28.4468 6.18155 28.5981C6.18155 28.7494 6.18155 28.9008 6.03078 29.052C6.03078 29.3546 5.88003 29.6573 5.88003 29.96C5.88003 30.2626 5.72926 30.5652 5.72926 30.7166C5.72926 31.1704 5.5785 31.473 5.5785 31.473L5.5785 31.7758C5.5785 31.7758 5.5785 32.0784 5.5785 32.5322C5.5785 32.9862 5.5785 33.5914 5.42773 34.1968C5.42773 34.4994 5.42773 34.802 5.42773 35.1046C5.42773 35.4072 5.42773 35.7098 5.42773 35.8612C5.42773 36.1638 5.42773 36.3152 5.42773 36.4664C5.42773 36.6178 5.42773 36.6178 5.42773 36.6178L5.42773 36.9204L5.42773 37.0718C5.42773 37.223 5.42773 37.3744 5.42773 37.677C5.42773 37.8282 5.42773 38.131 5.5785 38.4336C5.5785 38.7362 5.5785 39.0388 5.72926 39.3414C5.88002 39.9467 5.88003 40.552 6.03078 41.0059C6.18155 41.4598 6.18155 41.7625 6.18155 41.7625C6.18155 41.7625 6.18155 41.7625 6.18155 41.9138L6.18155 42.0652C6.18155 42.0652 6.33231 42.6704 6.48308 43.427C6.63384 44.0322 6.93537 44.7888 6.93537 44.7888L7.38766 44.6375C7.38766 44.6375 7.2369 44.0322 6.93537 43.2756C6.78461 42.6704 6.63384 41.9138 6.63384 41.9138C6.63384 41.9138 6.48308 41.7625 6.48308 41.4598Z" fill="#F5EFDB" fill-opacity="1.000000" fill-rule="nonzero"/>
	<path id="Vector" d="M17.3378 8.17114C17.6394 8.92773 17.9409 8.92773 18.2424 10.1382L18.544 9.98694C18.544 9.83557 18.3932 9.53296 18.2424 9.23035C18.0917 8.92773 18.2424 8.77637 18.3932 8.47375C18.544 8.17114 18.9962 7.86853 19.5993 7.56592L18.8455 6.05273C18.6947 6.2041 18.3932 6.35535 18.2424 6.50671C18.0917 6.65796 17.9409 6.80933 17.7901 6.96057C17.3379 7.26318 17.1871 7.71716 17.3378 8.17114Z" fill="#F5EFDB" fill-opacity="1.000000" fill-rule="nonzero"/>
	<path id="Vector" d="M19.2982 10.744C19.1475 10.5927 18.9967 10.4414 18.846 10.29L18.5444 10.4413C19.2982 11.1979 19.1475 11.3492 19.7505 11.9545C20.0521 12.2571 20.5044 12.4084 20.8059 12.2571C20.9566 12.2571 21.2582 12.1058 21.4089 12.1058C21.5597 12.1058 21.7105 11.9545 22.012 11.9545L21.2582 10.4413C20.8059 10.744 20.3536 10.8953 20.0521 10.8953C19.7505 11.0466 19.449 10.8953 19.2982 10.744Z" fill="#F5EFDB" fill-opacity="1.000000" fill-rule="nonzero"/>
	<path id="Vector" d="M15.0765 10.4401C15.6796 9.83472 15.9811 9.07825 15.6796 8.32166C15.5288 7.86768 15.3781 7.56506 15.0765 7.26245C14.775 6.95984 14.4735 6.65723 13.8704 6.50586C13.8704 6.50586 14.172 6.80847 14.3227 7.26245C14.4735 7.71643 14.6242 8.17029 14.3227 8.62427C14.0212 9.07825 13.5689 9.5321 13.1166 9.98608C12.6643 10.4401 12.5135 11.0453 12.8151 11.6505C13.2674 12.4071 13.4181 12.2559 14.0212 13.3151L14.172 13.1637C14.172 13.0123 14.0212 12.8611 13.7197 12.5585C13.8704 11.9532 14.0212 11.3479 15.0765 10.4401Z" fill="#F5EFDB" fill-opacity="1.000000" fill-rule="nonzero"/>
	<path id="Vector" d="M16.1318 14.9789C16.7348 15.4327 17.1871 15.2815 17.6394 14.9789C18.0917 14.8275 18.544 14.3735 18.8455 14.3735C19.2978 14.3735 19.5993 14.5249 20.0516 14.8275C20.3532 15.1301 20.5039 15.4327 20.5039 15.4327C20.3532 14.9789 20.2024 14.5249 20.0516 14.2223C19.9009 13.9197 19.5993 13.6169 19.2978 13.3143C18.9963 13.1631 18.6948 13.0117 18.2425 13.0117C17.9409 13.0117 17.4886 13.0117 17.3379 13.3143C16.8856 13.6169 16.4333 13.9197 16.1318 13.9197C15.8302 14.0709 15.5287 13.9196 15.378 13.7683C15.2272 13.6169 14.9257 13.4657 14.9257 13.4657L14.7749 13.6169C15.5287 14.2223 15.5287 14.3735 16.1318 14.9789Z" fill="#F5EFDB" fill-opacity="1.000000" fill-rule="nonzero"/>
	<path id="Vector" d="M11.1566 14.2234C11.4581 13.9208 11.6089 13.618 11.6089 13.1642C11.6089 12.8616 11.6089 12.4076 11.4581 12.105C11.1566 11.3484 10.4028 10.7432 9.49819 10.5918C9.49819 10.5918 9.79972 10.8944 9.95049 11.197C10.252 11.4996 10.4028 12.105 10.252 12.5588C10.252 12.7102 10.1012 13.0128 9.79972 13.3154C9.64896 13.618 9.49819 13.9208 9.34743 14.072C9.19666 14.3746 9.0459 14.6772 9.0459 14.98C9.0459 15.2826 9.0459 15.5852 9.34743 15.7365C9.95048 16.3418 10.1012 16.1904 10.8551 17.2496L11.0058 16.947C10.8551 16.7957 10.7043 16.6444 10.5535 16.3418C10.1012 16.0392 10.252 15.2826 11.1566 14.2234Z" fill="#F5EFDB" fill-opacity="1.000000" fill-rule="nonzero"/>
	<path id="Vector" d="M12.9659 18.4603C13.2674 18.6117 13.569 18.6117 13.7197 18.6117C14.0212 18.6117 14.172 18.4603 14.3228 18.3091C14.4735 18.1577 14.7751 18.0065 14.9258 17.8551C15.0766 17.7037 15.2274 17.5525 15.5289 17.5525C15.9812 17.4011 16.4335 17.5525 16.735 17.8551C17.0365 18.1577 17.338 18.3091 17.338 18.3091C17.0365 17.4011 16.4335 16.7959 15.6796 16.4933C15.3781 16.3419 14.9258 16.1907 14.6243 16.3419C14.3228 16.3419 14.0212 16.4933 13.7197 16.7959C12.9659 17.7037 12.3628 17.8551 11.9106 17.7037C11.609 17.5525 11.4583 17.5525 11.3075 17.4011L11.1567 17.7037C12.3628 17.8551 12.2121 18.1577 12.9659 18.4603Z" fill="#F5EFDB" fill-opacity="1.000000" fill-rule="nonzero"/>
	<path id="Vector" d="M7.99046 18.7627C8.14122 18.46 8.29198 18.0061 8.29198 17.7035C8.29198 17.4008 8.14122 16.9469 7.99046 16.6443C7.53817 16.0389 6.78435 15.4337 5.729 15.5851C5.729 15.5851 6.03053 15.7363 6.33205 16.0389C6.63358 16.3416 6.93511 16.7955 6.78435 17.2495C6.78435 17.7035 6.33206 18.3087 6.1813 18.9139C6.03053 19.5192 6.03053 20.1245 6.48282 20.5784C7.23664 21.1837 7.23664 20.8811 8.29198 21.7889C8.29198 21.7889 8.29198 21.7889 8.29198 21.6377L8.29198 21.4863C8.14122 21.335 7.99046 21.1837 7.68893 21.0323C7.53817 20.8811 7.38741 20.5784 7.38741 20.2758C7.38741 20.1245 7.38741 19.8219 7.53817 19.6705C7.68893 19.2166 7.83969 19.0653 7.99046 18.7627Z" fill="#F5EFDB" fill-opacity="1.000000" fill-rule="nonzero"/>
	<path id="Vector" d="M10.5538 22.5453C11.1569 22.6967 11.6091 22.3939 11.9107 22.0913C12.2122 21.7887 12.5137 21.1835 12.8152 21.0321C13.1168 20.8809 13.7198 20.8809 14.0214 21.1835C14.4737 21.3347 14.7752 21.6375 14.7752 21.6375C14.3229 20.8809 13.5691 20.2755 12.8152 20.1243C12.5137 19.9729 12.0614 19.9729 11.7599 20.1243C11.4584 20.2755 11.1568 20.4269 11.0061 20.7295C10.8553 21.0321 10.7046 21.1835 10.5538 21.3347C10.403 21.4861 10.2523 21.6373 10.1015 21.7887C9.79997 21.9401 9.49844 22.0913 9.34769 21.9401C9.04616 21.7887 8.89539 21.7887 8.74463 21.7887C8.74463 21.7887 8.74463 21.7887 8.74463 21.9401L8.74463 22.0913C9.79997 22.0913 9.64922 22.2427 10.5538 22.5453Z" fill="#F5EFDB" fill-opacity="1.000000" fill-rule="nonzero"/>
	<path id="Vector" d="M2.71387 20.882C2.71387 20.882 3.0154 21.0332 3.46769 21.3358C3.76921 21.6384 4.2215 21.941 4.2215 22.5464C4.2215 22.6976 4.2215 23.0002 4.07074 23.303L5.57838 23.9082C5.87991 23.1516 5.57838 22.395 5.12609 21.7898C4.52303 21.0332 3.76921 20.5792 2.71387 20.882Z" fill="#F5EFDB" fill-opacity="1.000000" fill-rule="nonzero"/>
	<path id="Vector" d="M12.815 25.2701C12.2119 24.5135 11.4581 24.2109 10.7043 24.0596C9.95049 24.0596 9.19666 24.3622 9.0459 24.9675L10.5535 25.5728C10.7043 25.4214 10.8551 25.2701 10.8551 25.1188C11.1566 24.8162 11.6089 24.8162 12.0612 24.9675C12.5135 25.1188 12.815 25.2701 12.815 25.2701Z" fill="#F5EFDB" fill-opacity="1.000000" fill-rule="nonzero"/>
	<path id="Vector" d="M8.74445 21.6382C8.74445 21.6382 8.89522 21.3354 9.04598 21.0328C9.19675 20.579 9.49828 20.125 9.7998 19.5198C10.1013 19.0658 10.4029 18.4606 10.7044 18.1578C11.0059 17.8552 11.1567 17.5526 11.1567 17.5526L11.3074 17.25C11.3074 17.25 11.3074 17.25 11.4582 17.0986C11.4582 16.9474 11.609 16.796 11.7597 16.6448C12.0613 16.3422 12.3628 15.8882 12.8151 15.4342C12.9658 15.283 13.2674 14.9802 13.4181 14.829C13.5689 14.6776 13.8704 14.375 14.0212 14.2236C14.172 14.0724 14.3227 13.921 14.4735 13.7698C14.6242 13.6184 14.6242 13.6184 14.6242 13.6184L14.775 13.4672C14.775 13.4672 14.9258 13.3158 15.3781 13.0132C15.6796 12.7106 16.1319 12.2566 16.5842 11.954C16.8857 11.8026 17.0365 11.6514 17.338 11.3488C17.4887 11.1974 17.4887 11.1974 17.6395 11.0461C17.7903 11.0461 17.7903 10.8948 17.941 10.8948C18.2426 10.5922 18.5441 10.4408 18.5441 10.4408L18.8456 10.2896C18.8456 10.2896 19.2979 9.98682 19.7502 9.6842C19.901 9.6842 19.901 9.53296 20.0517 9.53296C20.2025 9.53296 20.2025 9.38159 20.3533 9.38159C20.504 9.23035 20.6548 9.23035 20.6548 9.23035L20.3533 8.77637C20.3533 8.77637 20.2025 8.77637 20.0517 8.92761C19.901 8.92761 19.901 9.07898 19.7502 9.07898C19.5994 9.07898 19.5994 9.23035 19.4487 9.23035C19.2979 9.38159 18.9964 9.53296 18.8456 9.6842C18.6949 9.83557 18.5441 9.83557 18.5441 9.83557L18.2426 9.98682C18.2426 9.98682 17.941 10.1382 17.6395 10.4408C17.4887 10.5922 17.1872 10.7434 17.0365 10.8948C16.7349 11.0461 16.5842 11.1974 16.2826 11.5C15.8304 11.954 15.3781 12.2566 15.0765 12.5592C14.775 12.8618 14.4735 13.0132 14.4735 13.0132L14.3227 13.1646C14.3227 13.1646 14.3227 13.1646 14.1719 13.3158C14.0212 13.4672 13.8704 13.6184 13.7197 13.7698C13.5689 13.921 13.4181 14.0724 13.1166 14.375C12.9658 14.5264 12.6643 14.829 12.5135 14.9802C12.0613 15.4342 11.7597 15.8882 11.4582 16.3422C11.3074 16.4934 11.1567 16.6448 11.1567 16.796C11.0059 16.9474 11.0059 16.9474 11.0059 16.9474L10.8551 17.25C10.8551 17.25 10.7044 17.5526 10.4029 17.8552C10.2521 18.0066 10.1013 18.3092 9.95056 18.4606C9.7998 18.7632 9.64903 18.9144 9.49828 19.217C9.19675 19.671 8.89522 20.2762 8.59369 20.7302C8.44292 21.1842 8.29216 21.3354 8.29216 21.3354C8.29216 21.3354 8.29216 21.3354 8.29216 21.4868L8.29216 21.6382C8.29216 21.6382 8.29216 21.7894 8.1414 22.092C7.99064 22.3947 7.83987 22.6974 7.68911 23C7.53835 23.3026 7.38758 23.6052 7.38758 23.9078C7.38758 24.0592 7.23682 24.0592 7.23682 24.2104L7.23682 24.3618L7.68911 24.5131C7.68911 24.5131 7.68911 24.5131 7.68911 24.3618C7.68911 24.3618 7.68911 24.2104 7.83987 24.0592C7.99063 23.7566 8.1414 23.4539 8.1414 23.1512C8.29216 22.8486 8.44292 22.546 8.59369 22.2434C8.74445 21.9408 8.74445 21.7894 8.74445 21.7894C8.74445 21.7894 8.74445 21.7894 8.74445 21.6382Z" fill="#F5EFDB" fill-opacity="1.000000" fill-rule="nonzero"/>
	<path id="Vector" d="M29.8511 3.78284C30.3034 3.63159 30.6049 3.48022 30.9065 3.32898C31.208 3.02625 31.3588 2.72363 31.5095 2.42102C31.6603 1.66443 31.6603 0.756592 30.9065 0C30.9065 0 30.9065 0.302612 30.9065 0.756592C30.9065 1.21057 30.7557 1.66443 30.3034 1.96704C29.8511 2.26978 29.2481 2.26978 28.645 2.57239C28.0419 2.875 27.5897 3.17761 27.5897 3.78284C27.5897 4.6908 27.8912 4.6908 27.7404 5.90125C27.7404 5.90125 27.7404 5.90125 27.8912 5.90125L28.042 5.90125C28.042 5.75 28.042 5.44727 28.042 5.14465C28.042 4.84204 28.1927 4.6908 28.4942 4.38806C28.645 4.23682 28.7958 4.23682 29.0973 4.08545C29.2481 3.9342 29.5496 3.78284 29.8511 3.78284Z" fill="#F5EFDB" fill-opacity="1.000000" fill-rule="nonzero"/>
	<path id="Vector" d="M28.494 8.17029C28.7956 8.77563 29.2479 8.92688 29.7002 8.92688C30.1525 8.92688 30.7555 8.92688 31.057 9.07825C31.5093 9.22949 31.6601 9.68347 31.8109 10.1375C31.9616 10.5914 31.9616 10.894 31.9616 10.894C32.2631 9.98608 32.2631 9.07825 31.9616 8.4729C31.8109 8.17029 31.5093 7.86768 31.3586 7.71631C31.057 7.56506 30.7555 7.4137 30.3032 7.56506C30.0017 7.56506 29.7002 7.56506 29.5494 7.56506C29.3986 7.56506 29.0971 7.56506 28.9463 7.56506C28.6448 7.4137 28.3433 7.26245 28.3433 7.11108C28.1925 6.80847 28.1925 6.65723 28.0418 6.50586C28.0418 6.50586 28.0418 6.50586 27.891 6.50586L27.7402 6.50586C28.3433 7.26245 28.1925 7.4137 28.494 8.17029Z" fill="#F5EFDB" fill-opacity="1.000000" fill-rule="nonzero"/>
	<path id="Vector" d="M24.5747 5.14417C25.027 4.9928 25.3285 4.84155 25.4792 4.53894C25.63 4.38757 25.63 4.23621 25.7808 4.08496C25.7808 3.93359 25.9315 3.78235 25.9315 3.47974C26.0823 2.72314 25.7808 1.81519 24.8762 1.20996C24.8762 1.20996 25.027 1.51257 25.027 1.96655C25.027 2.42053 25.027 2.87439 24.5747 3.32837C24.4239 3.47974 24.1224 3.63098 23.8208 3.78235C23.5193 3.93359 23.2178 4.08496 22.9163 4.23621C22.3132 4.53894 22.0117 4.9928 22.1624 5.74939C22.3132 6.65735 22.6147 6.50598 22.7655 7.71655L23.067 7.56519C23.067 7.41382 23.067 7.11121 22.9163 6.80859C22.9163 6.50598 22.9163 6.35461 23.2178 6.052C23.5193 5.59814 23.9716 5.29541 24.5747 5.14417Z" fill="#F5EFDB" fill-opacity="1.000000" fill-rule="nonzero"/>
	<path id="Vector" d="M23.9714 9.68506C24.2729 10.2903 24.8759 10.2903 25.3282 10.2903C25.6298 10.2903 25.7805 10.139 26.0821 10.139C26.3836 10.139 26.5343 10.139 26.6851 10.139C27.1374 10.2903 27.4389 10.5929 27.5897 11.0469C27.7405 11.5009 27.8912 11.8035 27.8912 11.8035C28.042 10.8955 27.8912 9.98767 27.4389 9.38245C27.2882 9.23108 27.1374 9.07971 27.1374 8.92847C26.9866 8.7771 26.8359 8.7771 26.6851 8.62585C26.3836 8.47449 26.0821 8.47449 25.6298 8.62585C25.0267 8.7771 24.7252 8.92847 24.2729 8.92847C23.9714 8.92847 23.6698 8.7771 23.5191 8.62585C23.3683 8.32324 23.2175 8.17188 23.2175 8.17188L22.916 8.32324C23.6698 8.92847 23.5191 9.07971 23.9714 9.68506Z" fill="#F5EFDB" fill-opacity="1.000000" fill-rule="nonzero"/>
	<path id="Vector" d="M19.1466 3.3291C19.1466 3.3291 19.2974 3.63171 19.4482 4.08569C19.5989 4.53967 19.5989 4.99353 19.2974 5.44751C19.1466 5.59888 18.9959 5.75012 18.6943 5.90149L19.4482 7.41467C20.202 6.96069 20.5035 6.2041 20.5035 5.44751C20.5035 4.69092 20.0512 3.78308 19.1466 3.3291Z" fill="#F5EFDB" fill-opacity="1.000000" fill-rule="nonzero"/>
	<path id="Vector" d="M24.1223 13.3164C24.1223 12.4084 23.8208 11.5006 23.2177 11.0466C22.6147 10.4414 22.0116 10.29 21.2578 10.5928L22.0116 12.1058C22.1624 12.1058 22.4639 11.9546 22.6147 11.9546C23.067 11.9546 23.3685 12.2572 23.67 12.7111C23.9716 12.8624 24.1223 13.3164 24.1223 13.3164Z" fill="#F5EFDB" fill-opacity="1.000000" fill-rule="nonzero"/>
	<path id="Vector" d="M32.5649 63.8551C32.1126 63.8551 31.8111 63.8551 31.8111 63.8551C31.8111 63.8551 31.8111 63.8551 31.6603 63.8551L31.5096 63.8551C31.5096 63.8551 31.208 63.8551 30.7558 63.7039C30.605 63.7039 30.3035 63.7037 30.0019 63.5525C29.7004 63.5525 29.3989 63.4012 29.0974 63.4012C28.9466 63.4012 28.7958 63.4012 28.6451 63.2499C28.4943 63.2499 28.3435 63.2499 28.1928 63.0985C27.8912 63.0985 27.5897 62.9473 27.4389 62.9473C27.2882 62.9473 26.9867 62.7959 26.9867 62.7959C26.8359 62.7959 26.8359 62.7959 26.8359 62.7959L26.5344 62.6447C26.5344 62.6447 26.5344 62.6447 26.3836 62.6447C26.2328 62.6447 26.0821 62.4933 25.9313 62.4933C25.7805 62.4933 25.479 62.3419 25.1775 62.1907C24.876 62.0393 24.5744 62.0394 24.4237 61.8881C23.8206 61.5854 23.3683 61.4341 22.916 61.2827C22.4637 61.1315 22.1622 60.9801 22.1622 60.9801C22.1622 60.9801 22.1622 60.9801 22.0115 60.9801L21.8607 60.9801C21.8607 60.9801 21.4084 60.6775 20.9561 60.5262C20.6546 60.3749 20.5038 60.2236 20.3531 60.2236C20.2023 60.0723 20.0515 60.0723 20.0515 60.0723L19.75 60.5262C19.75 60.5262 19.9008 60.5262 20.0515 60.6775C20.2023 60.8289 20.5038 60.9801 20.6546 60.9801C21.1069 61.2828 21.5592 61.4341 21.5592 61.4341C21.5592 61.4341 21.5592 61.4341 21.7099 61.4341L21.8607 61.4341C21.8607 61.4341 22.1622 61.5854 22.6145 61.7367C23.0668 61.8881 23.6699 62.1907 24.1221 62.342C24.4237 62.4933 24.7252 62.4933 25.0267 62.6447C25.3283 62.7959 25.479 62.7959 25.7805 62.9473C26.2328 63.0985 26.5344 63.0985 26.5344 63.0985L26.8359 63.2499C26.8359 63.2499 26.8359 63.2499 26.9867 63.2499C27.1374 63.2499 27.2882 63.4012 27.5897 63.4012C27.7405 63.4012 28.042 63.5525 28.3435 63.5525C28.4943 63.5525 28.6451 63.5525 28.7958 63.7039C28.9466 63.7039 29.0974 63.7039 29.2481 63.8551C29.5496 63.8551 29.8512 64.0065 30.1527 64.0065C30.4542 64.0065 30.7558 64.1577 30.9065 64.1577C31.3588 64.1577 31.6603 64.3091 31.6603 64.3091L31.9619 64.3091C31.9619 64.3091 32.2634 64.3091 32.7157 64.3091L32.8664 64.3091L32.8664 63.7039C32.7157 63.8551 32.5649 63.8551 32.5649 63.8551Z" fill="#F5EFDB" fill-opacity="1.000000" fill-rule="nonzero"/>
	<path id="Vector" d="M32.1129 5.14441C31.8113 5.14441 31.6606 5.14453 31.359 5.29578C31.0575 5.29578 30.756 5.29578 30.4545 5.44714C29.8514 5.59839 29.2483 5.59839 28.7961 5.74976C28.3438 5.901 28.0422 5.901 28.0422 5.901C28.0422 5.901 28.0422 5.901 27.8915 5.901L27.7407 5.901C27.7407 5.901 27.4392 6.05237 26.9869 6.05237C26.8361 6.05237 26.5346 6.20361 26.2331 6.20361C25.9315 6.35498 25.63 6.35498 25.3285 6.50635C25.027 6.65759 24.7254 6.65759 24.4239 6.80896C24.1224 6.96021 23.9716 6.96021 23.6701 7.11157C23.5193 7.26282 23.2178 7.26294 23.2178 7.26294C23.067 7.26294 23.067 7.41418 23.067 7.41418L22.7655 7.56555C22.7655 7.56555 22.6147 7.56543 22.3132 7.7168C22.0117 7.86816 21.7102 8.01941 21.4086 8.17078C21.1071 8.32202 20.8056 8.47339 20.5041 8.62476C20.2025 8.776 20.0518 8.776 20.0518 8.776L20.3533 9.22998C20.3533 9.22998 20.504 9.07861 20.6548 9.07861C20.8056 8.92737 21.2579 8.776 21.5594 8.62476C21.8609 8.47339 22.1624 8.32202 22.464 8.17078C22.7655 8.01941 22.9163 8.01941 22.9163 8.01941L23.2178 7.86816C23.2178 7.86816 23.2178 7.86816 23.3686 7.7168C23.5193 7.7168 23.6701 7.56555 23.8208 7.56555C23.9716 7.41418 24.2731 7.41418 24.5747 7.26294C24.7254 7.26294 24.8762 7.11157 25.027 7.11157C25.1777 7.11157 25.3285 6.96021 25.4792 6.96021C25.7808 6.80896 26.0823 6.80896 26.3838 6.65759C26.6854 6.50635 26.8361 6.50635 27.1376 6.50635C27.5899 6.35498 27.8915 6.35498 27.8915 6.35498C27.8915 6.35498 27.8915 6.35498 28.0422 6.35498L28.193 6.35498C28.193 6.35498 28.4945 6.35498 28.9468 6.20361C29.3991 6.05237 30.0022 6.05237 30.6052 5.901C30.9067 5.901 31.2083 5.74976 31.5098 5.74976C31.8113 5.74976 32.1129 5.74976 32.2636 5.59839L32.4144 5.59839L32.2636 4.99316C32.1129 5.14453 32.1129 5.14441 32.1129 5.14441Z" fill="#F5EFDB" fill-opacity="1.000000" fill-rule="nonzero"/>
	<path id="Vector" d="M31.208 5.44678C31.208 5.44678 31.9618 4.08496 34.0725 4.08496C36.1832 4.08496 37.5401 4.69019 37.9924 4.69019C38.4447 4.69019 36.0325 4.84155 34.8263 5.59814C33.9218 6.20337 31.3588 6.50598 31.208 5.44678Z" fill="#F5EFDB" fill-opacity="1.000000" fill-rule="nonzero"/>
	<path id="Vector" d="M58.3458 63.2494C57.7428 62.4928 58.0443 62.4928 57.1397 61.4336C57.1397 61.4336 57.1397 61.4336 57.2905 61.4336L57.4413 61.4336C57.592 61.585 57.7428 61.7362 57.8936 62.0388C58.0443 62.1902 58.3458 62.3416 58.6474 62.3416C58.7981 62.3416 59.0997 62.3414 59.2504 62.1902C59.552 62.0388 59.7027 62.0389 60.0042 61.8876L60.9088 63.2494C60.0042 63.552 58.9489 64.1572 58.3458 63.2494Z" fill="#F5EFDB" fill-opacity="1.000000" fill-rule="nonzero"/>
	<path id="Vector" d="M56.9885 60.2235C57.1393 60.5261 57.1393 60.6775 57.1393 60.8287C57.1393 60.8287 57.1393 60.8287 56.9885 60.8287L56.8377 60.8287C56.687 59.7695 56.3855 59.7695 56.2347 59.0129C55.9332 57.9537 56.8377 57.4999 57.29 57.0459L58.1946 58.4077C57.8931 58.5591 57.7423 58.7103 57.5916 58.8617C57.4408 59.0131 57.29 59.1643 57.1393 59.3156C56.9885 59.7695 56.9885 60.0721 56.9885 60.2235Z" fill="#F5EFDB" fill-opacity="1.000000" fill-rule="nonzero"/>
	<path id="Vector" d="M55.1799 64.1578C55.9337 63.8552 56.6876 64.1578 57.2906 64.6118C57.8937 65.217 58.1952 65.9736 58.0444 67.0328C58.0444 67.0328 57.8937 66.7302 57.5921 66.2762C57.2906 65.9736 56.9891 65.5197 56.386 65.5197C55.4814 65.5197 53.6723 66.4275 53.0692 65.217C52.6169 64.4604 52.9185 64.3092 52.1646 63.25L52.4662 63.0986C52.6169 63.25 52.7677 63.4012 52.9185 63.7039C53.0692 64.0065 53.22 64.0066 53.6723 64.1578C53.9738 64.4604 54.5769 64.3092 55.1799 64.1578Z" fill="#F5EFDB" fill-opacity="1.000000" fill-rule="nonzero"/>
	<path id="Vector" d="M51.8629 60.98C51.8629 60.3748 52.1644 59.9208 52.6167 59.6182C52.7675 59.4668 53.069 59.3156 53.2198 59.1642C53.3705 59.0129 53.6721 58.8616 53.6721 58.7103C53.9736 58.4076 53.9736 57.9537 53.8228 57.4998C53.6721 57.0458 53.5213 56.7432 53.5213 56.7432C54.2751 57.3484 54.5766 58.105 54.7274 58.8616C54.7274 59.6182 54.4259 60.3748 53.8228 60.526C53.2198 60.6774 52.9182 60.98 52.6167 61.1313C52.3152 61.434 52.3152 61.5852 52.3152 61.8879C52.3152 62.1906 52.3152 62.3418 52.3152 62.4932L52.0136 62.6444C52.1644 61.7366 51.8629 61.7366 51.8629 60.98Z" fill="#F5EFDB" fill-opacity="1.000000" fill-rule="nonzero"/>
	<path id="Vector" d="M49.903 65.6714C50.3553 65.5201 50.6568 65.6714 51.1091 65.8228C51.4107 65.974 51.7122 66.2766 52.0137 66.5793C52.466 67.1846 52.6168 68.0924 52.3152 69.0004C52.3152 69.0004 52.3152 68.6978 52.0137 68.2438C51.863 67.7898 51.5614 67.4872 50.9584 67.3358C50.6569 67.3358 50.5061 67.3358 50.2046 67.3358C49.903 67.3358 49.6015 67.3358 49.3 67.3358C48.6969 67.3358 48.0939 67.1846 47.9431 66.428C47.6416 65.5201 47.9431 65.5201 47.4908 64.3096L47.7923 64.3096C47.7923 64.4609 47.9431 64.6122 48.0939 65.0662C48.0939 65.3688 48.3954 65.5201 48.6969 65.6714C48.6969 65.6714 49.3 65.6714 49.903 65.6714Z" fill="#F5EFDB" fill-opacity="1.000000" fill-rule="nonzero"/>
	<path id="Vector" d="M47.1895 61.8884C47.1895 61.2831 47.6418 60.9805 48.0941 60.6779C48.3957 60.5265 48.5464 60.5265 48.8479 60.3752C49.1495 60.2239 49.3002 60.2239 49.451 60.0725C49.7525 59.7699 49.7525 59.316 49.7525 58.8621C49.7525 58.4081 49.6018 58.1055 49.6018 58.1055C50.2048 58.8621 50.5063 59.7699 50.3556 60.5265C50.3556 60.8291 50.2048 61.2831 50.0541 61.5857C49.9033 61.8883 49.6018 62.0397 49.1495 62.1909C48.5464 62.3423 48.2449 62.4937 47.9434 62.6449C47.6418 62.7963 47.4911 63.0989 47.4911 63.2502C47.4911 63.5529 47.4911 63.7041 47.4911 63.8555C47.4911 63.8555 47.4911 63.8555 47.3403 63.8555L47.1895 63.8555C47.3403 62.7963 47.1895 62.6449 47.1895 61.8884Z" fill="#F5EFDB" fill-opacity="1.000000" fill-rule="nonzero"/>
	<path id="Vector" d="M73.271 47.5118C72.3665 47.3605 72.5172 47.0579 71.3111 46.9065L71.4619 46.604C71.6127 46.604 71.9142 46.604 72.2157 46.7552C72.5172 46.7552 72.668 46.7552 72.9695 46.4526C73.271 46.15 73.4218 45.696 73.7233 45.0908L75.231 45.696C75.0802 46.15 74.7787 46.6039 74.4772 46.9065C74.1756 47.3605 73.7233 47.5118 73.271 47.5118Z" fill="#F5EFDB" fill-opacity="1.000000" fill-rule="nonzero"/>
	<path id="Vector" d="M70.4062 45.9991C70.7077 46.1504 70.8585 46.3018 70.8585 46.3018L70.7077 46.6044C69.8031 45.8478 69.6524 46.1504 69.0493 45.5452C68.597 45.2426 68.4463 44.9399 68.4463 44.486C68.4463 44.032 68.597 43.7294 68.597 43.2754L70.1047 43.8806C69.9539 44.486 69.8031 44.7886 69.8031 45.2426C69.9539 45.5452 70.1047 45.8478 70.4062 45.9991Z" fill="#F5EFDB" fill-opacity="1.000000" fill-rule="nonzero"/>
	<path id="Vector" d="M71.311 50.0846C71.7633 49.328 72.5171 49.0254 73.2709 49.0254C74.0247 49.0254 74.9293 49.4794 75.3816 50.3872C75.3816 50.3872 75.0801 50.2358 74.6278 50.0846C74.1755 49.9332 73.7232 49.9332 73.2709 50.236C73.1202 50.3872 72.9694 50.5386 72.6679 50.8412C72.5171 51.1438 72.3663 51.2952 72.0648 51.5978C71.6125 52.0516 71.1602 52.3544 70.5572 52.203C69.8034 51.9004 69.8034 51.5978 68.5973 51.2952L68.748 50.9924C68.8988 50.9924 69.2003 51.1438 69.5018 51.2952C69.8034 51.4464 69.9541 51.2952 70.2557 51.1438C70.7079 51.1438 71.0095 50.6898 71.311 50.0846Z" fill="#F5EFDB" fill-opacity="1.000000" fill-rule="nonzero"/>
	<path id="Vector" d="M66.7881 49.7827C66.3358 49.3287 66.3358 48.8749 66.4866 48.2695C66.6373 47.9669 66.6374 47.8157 66.7881 47.5129C66.9389 47.2103 66.9389 47.059 66.9389 46.9077C66.9389 46.4537 66.6374 46.1511 66.1851 45.8485C65.8835 45.5459 65.4312 45.3945 65.4312 45.3945C66.3358 45.3945 67.2404 45.6971 67.6927 46.3025C68.2958 46.9077 68.4465 47.5129 68.145 48.2695C67.8435 48.7235 67.6927 49.1775 67.6927 49.4801C67.6927 49.7827 67.6927 50.0853 67.9942 50.2367C68.145 50.3879 68.2958 50.5393 68.4465 50.6906L68.2958 50.9933C67.5419 50.2367 67.3912 50.3879 66.7881 49.7827Z" fill="#F5EFDB" fill-opacity="1.000000" fill-rule="nonzero"/>
	<path id="Vector" d="M68.2958 54.6244C68.8988 54.0192 69.6526 53.7164 70.4065 54.0192C70.8587 54.1704 71.1603 54.3218 71.4618 54.6244C71.7633 54.927 72.0648 55.2296 72.2156 55.835C72.2156 55.835 71.9141 55.5322 71.4618 55.381C71.0095 55.2296 70.5572 55.0784 70.1049 55.381C69.6526 55.6836 69.2003 56.1376 68.748 56.5916C68.2958 57.0454 67.6927 57.1968 67.0896 56.8942C66.3358 56.4402 66.4866 56.2888 65.4312 55.6836L65.582 55.5322C65.7328 55.5322 65.8835 55.6836 66.3358 55.9862C66.7881 55.8348 67.3912 55.6836 68.2958 54.6244Z" fill="#F5EFDB" fill-opacity="1.000000" fill-rule="nonzero"/>
	<path id="Vector" d="M63.7727 53.5659C63.3204 52.9607 63.4712 52.5067 63.7727 52.0527C63.9235 51.5988 64.3758 51.1449 64.3758 50.8422C64.3758 50.3883 64.225 49.9343 63.9235 49.6317C63.6219 49.3291 63.3204 49.1777 63.3204 49.1777C63.7727 49.3291 64.225 49.4803 64.5265 49.6317C64.828 49.7831 65.1296 50.0857 65.4311 50.3883C65.5819 50.6909 65.7326 50.9935 65.7326 51.4475C65.7326 51.7501 65.7326 52.2041 65.4311 52.3553C65.1296 52.8093 64.828 53.2633 64.828 53.5659C64.6773 53.8685 64.828 54.1711 64.9788 54.3225C65.1296 54.4738 65.2803 54.7764 65.2803 54.7764L65.1296 54.9277C64.5265 54.0199 64.3758 54.1711 63.7727 53.5659Z" fill="#F5EFDB" fill-opacity="1.000000" fill-rule="nonzero"/>
	<path id="Vector" d="M64.5266 58.5574C64.8281 58.2548 65.1296 58.1035 65.5819 58.1035C65.8835 58.1035 66.3358 58.1035 66.6373 58.2548C67.3911 58.5574 67.9942 59.314 68.1449 60.2219C68.1449 60.2219 67.8434 59.9192 67.5419 59.7679C67.2403 59.4653 66.6373 59.314 66.185 59.4653C66.0342 59.4653 65.7327 59.6166 65.4312 59.9192C65.1296 60.0706 64.8281 60.2219 64.6774 60.3732C64.3758 60.5245 64.0743 60.6758 63.7728 60.6758C63.4712 60.6758 63.1697 60.6758 63.019 60.3732C62.4159 59.7679 62.5667 59.6166 61.5113 58.8601L61.8128 58.7087C61.9636 58.8601 62.1144 59.0114 62.4159 59.1627C62.7174 59.4653 63.4712 59.4653 64.5266 58.5574Z" fill="#F5EFDB" fill-opacity="1.000000" fill-rule="nonzero"/>
	<path id="Vector" d="M60.3051 56.7437C60.1544 56.4409 60.1544 56.1383 60.1544 55.9871C60.1544 55.6844 60.3052 55.5331 60.4559 55.3817C60.6067 55.2305 60.7574 54.9279 60.9082 54.7765C61.059 54.6252 61.2097 54.4739 61.2097 54.1713C61.3605 53.7173 61.2097 53.2633 60.9082 52.9607C60.6067 52.6581 60.4559 52.3555 60.4559 52.3555C61.3605 52.6581 61.9636 53.2634 62.2651 54.0199C62.4159 54.3226 62.5666 54.7765 62.4159 55.0792C62.4159 55.3818 62.2651 55.6844 61.9636 55.9871C61.059 56.7437 60.9082 57.3489 61.059 57.8029C61.2097 58.1055 61.2097 58.2567 61.3605 58.4081L61.059 58.5594C60.9082 57.3489 60.6067 57.5001 60.3051 56.7437Z" fill="#F5EFDB" fill-opacity="1.000000" fill-rule="nonzero"/>
	<path id="Vector" d="M63.3208 64.1573C63.3208 64.1573 63.17 63.8546 62.8685 63.552C62.567 63.2494 62.1147 62.9468 61.6624 63.0981C61.5116 63.0981 61.2101 63.2494 60.9086 63.2494L60.004 61.8876C60.3055 61.7363 60.7578 61.585 61.0593 61.585C61.3609 61.585 61.8132 61.7363 62.1147 61.8876C62.8685 62.3416 63.3208 63.0981 63.3208 64.1573Z" fill="#F5EFDB" fill-opacity="1.000000" fill-rule="nonzero"/>
	<path id="Vector" d="M57.2901 54.7754C58.0444 55.2294 58.6478 55.9858 58.7986 56.7424C58.9495 57.0452 58.9495 57.499 58.7986 57.8018C58.6478 58.1044 58.4969 58.407 58.1952 58.5582L57.2901 57.1964C57.441 57.0452 57.5918 56.8938 57.7427 56.7424C57.8935 56.4398 57.8935 55.8346 57.5918 55.532C57.441 55.078 57.2901 54.7754 57.2901 54.7754Z" fill="#F5EFDB" fill-opacity="1.000000" fill-rule="nonzero"/>
	<path id="Vector" d="M61.5122 58.2568C61.5122 58.2568 61.5122 58.257 61.6629 58.1056C61.8137 58.1056 61.9645 57.9542 62.1152 57.803C62.4168 57.5004 62.869 57.1976 63.3213 56.7438C63.4721 56.5924 63.7736 56.2898 63.9244 56.1384C64.0752 55.9872 64.3767 55.6846 64.5275 55.5332C64.6782 55.382 64.829 55.2306 64.9797 55.0793C65.1305 54.928 65.1305 54.928 65.1305 54.928L65.2813 54.7766C65.2813 54.7766 65.432 54.6254 65.7336 54.1714C66.0351 53.8688 66.4874 53.4148 66.7889 52.9608C66.9397 52.6582 67.0904 52.507 67.392 52.2042C67.5427 52.053 67.5427 52.053 67.6935 51.9017C67.6935 51.7504 67.8443 51.7504 67.8443 51.599C68.1458 51.2964 68.2965 50.9938 68.2965 50.9938L68.4473 50.6912C68.4473 50.6912 68.5981 50.3885 68.8996 50.0859C69.0504 49.9346 69.2011 49.632 69.3519 49.4806C69.5027 49.178 69.6534 49.0267 69.8042 48.724C69.8042 48.5728 69.9549 48.4214 69.9549 48.2701C69.9549 48.1188 70.1057 47.9675 70.1057 47.8162C70.2565 47.5135 70.4072 47.3622 70.4072 47.0596C70.558 46.9083 70.558 46.757 70.558 46.6057C70.558 46.4543 70.7088 46.4543 70.7088 46.4543L70.8595 46.1517C70.8595 46.1517 70.8595 46.0004 71.0103 45.8491C71.1611 45.6978 71.1611 45.3951 71.3118 45.2438C71.4626 44.9412 71.4626 44.7898 71.6133 44.6385C71.6133 44.4872 71.7641 44.3359 71.7641 44.3359L72.2164 44.4873C72.2164 44.4873 72.2164 44.6385 72.0656 44.7899C72.0656 44.9412 71.9149 45.2438 71.7641 45.5464C71.6133 45.8491 71.6133 46.0004 71.4626 46.1517C71.3118 46.303 71.3118 46.4543 71.3118 46.4543L71.1611 46.757C71.1611 46.757 71.1611 46.757 71.0103 46.9082C71.0103 47.0596 70.8595 47.2109 70.7088 47.3622C70.558 47.5135 70.558 47.8162 70.4072 48.1188C70.4072 48.2701 70.2565 48.4214 70.2565 48.5728C70.2565 48.724 70.1057 48.8754 70.1057 49.0267C69.9549 49.3293 69.8042 49.632 69.6534 49.7833C69.5027 50.0859 69.3519 50.2372 69.2011 50.3885C69.0504 50.5398 69.0504 50.6912 68.8996 50.8424C68.8996 50.9938 68.7488 50.9938 68.7488 50.9938L68.5981 51.2964C68.5981 51.2964 68.4473 51.599 68.1458 51.9017C67.995 52.053 67.8443 52.3556 67.6935 52.507C67.5427 52.8096 67.392 52.9608 67.0904 53.2635C66.6381 53.7174 66.3366 54.1714 66.0351 54.6254C65.7336 54.928 65.5828 55.2306 65.5828 55.2306L65.432 55.3818C65.432 55.3818 65.432 55.382 65.2813 55.5332C65.1305 55.6846 64.9797 55.8358 64.829 55.9872C64.6782 56.1384 64.5275 56.2898 64.2259 56.5924C64.0752 56.7438 63.7736 57.0464 63.6229 57.1978C63.1706 57.6516 62.7183 57.9542 62.266 58.2568C62.1152 58.4082 61.9645 58.5596 61.8137 58.5596C61.6629 58.7108 61.6629 58.7108 61.6629 58.7108L61.3614 58.8622C61.3614 58.8622 61.2107 59.0134 61.0599 59.1648C60.9091 59.316 60.6076 59.4674 60.3061 59.77C59.703 60.224 59.1 60.5266 59.1 60.5266L58.7984 60.0726C58.7984 60.0726 59.4015 59.77 60.0045 59.316C60.3061 59.1648 60.6076 59.0134 60.7584 58.7108C60.9091 58.5596 61.0599 58.4082 61.0599 58.4082L61.5122 58.2568Z" fill="#F5EFDB" fill-opacity="1.000000" fill-rule="nonzero"/>
	<path id="Vector" d="M74.4771 25.7238C73.7233 26.1776 73.5725 25.875 72.5172 26.6316L72.3664 26.329C72.5172 26.1776 72.668 26.0264 72.9695 25.875C73.1202 25.7238 73.271 25.5724 73.4218 25.1184C73.4218 24.8158 73.4218 24.2106 73.1202 23.6052L74.6279 23C74.7786 23.454 74.9294 23.908 74.9294 24.5132C75.2309 24.9672 74.9294 25.421 74.4771 25.7238Z" fill="#F5EFDB" fill-opacity="1.000000" fill-rule="nonzero"/>
	<path id="Vector" d="M71.3119 26.481C71.6134 26.481 71.7642 26.481 71.9149 26.481L72.0657 26.7836C71.0103 26.7836 71.0103 27.0862 70.1058 27.0862C69.6535 27.0862 69.2012 26.9349 69.0504 26.6322C68.7489 26.3296 68.5981 26.027 68.4474 25.573L69.955 24.9678C70.1058 25.573 70.4073 25.8757 70.5581 26.1783C70.8596 26.3296 71.1611 26.481 71.3119 26.481Z" fill="#F5EFDB" fill-opacity="1.000000" fill-rule="nonzero"/>
	<path id="Vector" d="M74.7788 28.9017C74.6281 28.4478 74.7788 28.1451 74.9296 27.6912C75.0804 27.3885 75.3819 27.0859 75.6834 26.7833C76.2865 26.3293 77.1911 26.1781 78.0956 26.4807C78.0956 26.4807 77.7941 26.4807 77.3418 26.7833C76.8895 26.9346 76.588 27.2373 76.4372 27.8425C76.4372 28.1451 76.4372 28.2965 76.4372 28.5991C76.4372 28.9017 76.4372 29.2043 76.4372 29.507C76.4372 30.1122 76.2865 30.7175 75.5327 30.8688C74.6281 31.1714 74.6281 30.8688 73.422 31.3228L73.422 31.0201C73.5727 31.0201 73.7235 30.8688 74.1758 30.7175C74.4773 30.7175 74.6281 30.4149 74.6281 30.1122C74.9296 30.1122 74.9296 29.507 74.7788 28.9017Z" fill="#F5EFDB" fill-opacity="1.000000" fill-rule="nonzero"/>
	<path id="Vector" d="M71.1608 31.6254C70.5577 31.6254 70.2562 31.1714 69.9547 30.7175C69.8039 30.4149 69.8039 30.2635 69.6532 29.9609C69.5024 29.6583 69.5024 29.507 69.3516 29.3556C69.0501 29.053 68.5978 29.053 68.1455 29.053C67.6932 29.053 67.3917 29.2043 67.3917 29.2043C68.1455 28.599 69.0501 28.2964 69.8039 28.4478C70.2562 28.4478 70.5577 28.599 70.8593 28.7504C71.1608 28.9017 71.3116 29.2043 71.4623 29.6582C71.6131 30.2635 71.7638 30.5662 71.9146 30.8688C72.0654 31.1714 72.3669 31.3228 72.5177 31.3228C72.8192 31.3228 72.9699 31.3228 73.1207 31.3228C73.1207 31.3228 73.1207 31.3228 73.1207 31.4741L73.1207 31.6254C71.9146 31.474 71.9146 31.7767 71.1608 31.6254Z" fill="#F5EFDB" fill-opacity="1.000000" fill-rule="nonzero"/>
	<path id="Vector" d="M75.3816 34.3491C75.3816 33.5925 75.8339 32.8359 76.5877 32.5333C77.3416 32.2307 78.2461 32.0793 79 32.6847C79 32.6847 78.6984 32.6847 78.2461 32.8359C77.7939 32.9873 77.3416 33.1387 77.1908 33.7439C77.04 33.8951 77.04 34.1978 77.04 34.5005C77.04 34.8031 76.8893 35.1057 76.8893 35.4083C76.7385 36.0135 76.437 36.6188 75.8339 36.6188C74.9293 36.7701 74.9293 36.4675 73.7232 36.7701L73.7232 36.4675C73.874 36.4675 74.1755 36.3162 74.4771 36.3162C74.7786 36.3162 74.9293 36.1649 75.0801 35.7109C75.2309 35.5596 75.3816 35.1057 75.3816 34.3491Z" fill="#F5EFDB" fill-opacity="1.000000" fill-rule="nonzero"/>
	<path id="Vector" d="M71.1613 36.4667C70.5582 36.3153 70.2567 35.8615 70.1059 35.4075C70.1059 35.1049 69.9552 34.9535 69.9552 34.6509C69.9552 34.3483 69.8044 34.1969 69.8044 34.0457C69.6536 33.743 69.0506 33.5917 68.749 33.4403C68.2967 33.4403 67.9952 33.4403 67.9952 33.4403C68.749 32.9865 69.6536 32.8351 70.4074 32.9865C71.1613 33.1377 71.6136 33.743 71.7643 34.4996C71.7643 35.1049 71.9151 35.5588 72.0659 35.8615C72.2166 36.1641 72.3674 36.3153 72.6689 36.4667C72.9704 36.4667 73.1212 36.618 73.272 36.618L73.272 36.9207C72.0658 36.3154 72.0659 36.618 71.1613 36.4667Z" fill="#F5EFDB" fill-opacity="1.000000" fill-rule="nonzero"/>
	<path id="Vector" d="M74.9296 39.7953C74.9296 39.3413 75.2312 39.0387 75.3819 38.7361C75.6834 38.4335 75.985 38.2821 76.2865 38.1309C77.0403 37.9795 77.9449 37.9795 78.6987 38.7361C78.6987 38.7361 78.3972 38.7361 77.9449 38.7361C77.4926 38.7361 77.0403 38.8875 76.7388 39.3413C76.4373 39.7953 76.4373 40.4005 76.1357 41.0059C75.8342 41.6111 75.5327 42.0651 74.9296 42.0651C74.0251 42.0651 74.025 41.7623 72.8189 41.9137C72.8189 41.9137 72.8189 41.9137 72.8189 41.7623L72.8189 41.6111C72.9697 41.6111 73.2712 41.6111 73.5728 41.6111C73.8743 41.6111 74.025 41.4597 74.3266 41.1571C74.4773 41.0059 74.4773 40.8545 74.6281 40.5519C74.7789 40.4005 74.9296 40.0979 74.9296 39.7953Z" fill="#F5EFDB" fill-opacity="1.000000" fill-rule="nonzero"/>
	<path id="Vector" d="M70.5581 41.1575C69.955 40.8549 69.8043 40.4009 69.8043 39.9469C69.8043 39.4929 69.8043 38.8877 69.6535 38.5851C69.5027 38.1311 69.0504 37.9799 68.5981 37.8285C68.1459 37.6771 67.8443 37.6771 67.8443 37.6771C68.7489 37.3745 69.6535 37.3745 70.2565 37.6771C70.5581 37.8285 70.8596 38.1311 71.0104 38.2825C71.1611 38.5851 71.3119 38.8877 71.1611 39.3417C71.1611 39.6443 71.1611 39.9469 71.1611 40.0983C71.1611 40.2495 71.1611 40.5521 71.1611 40.7035C71.3119 41.0061 71.4627 41.3087 71.6134 41.3087C71.9149 41.4601 72.0657 41.4601 72.2165 41.6113C72.2165 41.6113 72.2165 41.6113 72.2165 41.7627L72.2165 41.9141C71.4627 41.3087 71.3119 41.4601 70.5581 41.1575Z" fill="#F5EFDB" fill-opacity="1.000000" fill-rule="nonzero"/>
	<path id="Vector" d="M77.6431 44.7897C77.6431 44.7897 77.3416 44.6383 76.8893 44.6383C76.437 44.6383 75.9847 44.6383 75.5324 45.0923C75.3816 45.2437 75.2309 45.3949 75.2309 45.6975L73.7232 45.0923C73.874 44.6383 74.0248 44.3357 74.3263 44.1844C74.4771 44.0331 74.6278 44.0331 74.7786 43.8817C74.9293 43.8817 75.0801 43.7305 75.3816 43.7305C76.1355 43.7305 77.04 44.0331 77.6431 44.7897Z" fill="#F5EFDB" fill-opacity="1.000000" fill-rule="nonzero"/>
	<path id="Vector" d="M67.0899 41.6134C67.9945 41.462 68.8991 41.6134 69.5022 42.0674C69.6529 42.2186 69.8037 42.37 69.9545 42.37C70.1052 42.5212 70.1052 42.6726 70.256 42.8239C70.4067 43.1266 70.4067 43.4292 70.256 43.8831L68.7483 43.2778C68.7483 43.1265 68.7483 42.8239 68.7483 42.6726C68.5976 42.2186 68.296 41.916 67.8438 41.7646C67.3915 41.7646 67.0899 41.6134 67.0899 41.6134Z" fill="#F5EFDB" fill-opacity="1.000000" fill-rule="nonzero"/>
	<path id="Vector" d="M72.5176 41.4598C72.5176 41.4598 72.5176 41.1572 72.6684 40.7032C72.8191 40.2494 72.8191 39.644 72.9699 39.0388C72.9699 38.7362 73.1207 38.4336 73.1207 38.131C73.1207 37.8282 73.1207 37.5256 73.2714 37.3744C73.2714 37.223 73.2714 36.9204 73.2714 36.7692C73.2714 36.6178 73.2714 36.6178 73.2714 36.6178L73.2714 36.3152C73.2714 36.3152 73.2714 36.3152 73.2714 36.1638C73.2714 36.0126 73.2714 35.8612 73.2714 35.5586C73.2714 35.4072 73.2714 35.1046 73.2714 34.802C73.2714 34.4994 73.2714 34.1968 73.2714 33.8942C73.2714 33.2888 73.2714 32.6836 73.1207 32.2296C73.1207 31.7758 73.1207 31.473 73.1207 31.473C73.1207 31.473 73.1207 31.473 73.1207 31.3218L73.1207 31.1704C73.1207 31.1704 73.1207 30.8678 72.9699 30.4138C72.9699 30.2626 72.9699 29.96 72.8191 29.6572C72.8191 29.3546 72.6684 29.052 72.6684 28.7494C72.6684 28.5981 72.6684 28.4468 72.5176 28.2954C72.5176 28.1442 72.5176 27.9928 72.3668 27.8416C72.3668 27.5389 72.2161 27.2362 72.2161 27.085C72.2161 26.9336 72.0653 26.631 72.0653 26.631C72.0653 26.4796 72.0653 26.4797 72.0653 26.4797L71.9146 26.177C71.9146 26.177 71.9146 26.0258 71.7638 25.8744C71.7638 25.7231 71.7638 25.7231 71.613 25.5718C71.613 25.4204 71.4623 25.2692 71.4623 25.2692C71.3115 24.8152 71.1607 24.3612 71.1607 24.3612L71.613 24.21C71.613 24.21 71.7638 24.6639 71.9146 25.2692C72.0653 25.5718 72.0653 25.7231 72.0653 26.0258C72.0653 26.177 72.2161 26.3284 72.2161 26.3284L72.3668 26.631C72.3668 26.631 72.3668 26.631 72.3668 26.7823C72.3668 26.9336 72.5176 27.085 72.5176 27.3876C72.5176 27.5388 72.6684 27.8416 72.6684 28.1442C72.6684 28.2954 72.6684 28.4468 72.8191 28.5981C72.8191 28.7494 72.8191 28.9008 72.9699 29.052C72.9699 29.3546 73.1207 29.6573 73.1207 29.96C73.1207 30.2626 73.2714 30.5652 73.2714 30.7166C73.2714 31.1704 73.4222 31.473 73.4222 31.473L73.4222 31.7758C73.4222 31.7758 73.4222 32.0784 73.4222 32.5322C73.4222 32.9862 73.4222 33.5914 73.573 34.1968C73.573 34.4994 73.573 34.802 73.573 35.1046C73.573 35.4072 73.573 35.7098 73.573 35.8612C73.573 36.1638 73.573 36.3152 73.573 36.4664C73.573 36.6178 73.573 36.6178 73.573 36.6178L73.573 36.9204L73.573 37.0718C73.573 37.223 73.573 37.3744 73.573 37.677C73.573 37.8282 73.573 38.131 73.4222 38.4336C73.4222 38.7362 73.4222 39.0388 73.2714 39.3414C73.1207 39.9467 73.1207 40.552 72.9699 41.0059C72.8191 41.4598 72.8191 41.7625 72.8191 41.7625C72.8191 41.7625 72.8191 41.7625 72.8191 41.9138L72.8191 42.0652C72.8191 42.0652 72.6684 42.6704 72.5176 43.427C72.3668 44.0322 72.0653 44.7888 72.0653 44.7888L71.613 44.6375C71.613 44.6375 71.7638 44.0322 72.0653 43.2756C72.2161 42.6704 72.3668 41.9138 72.3668 41.9138C72.3668 41.9138 72.3668 41.7625 72.5176 41.4598Z" fill="#F5EFDB" fill-opacity="1.000000" fill-rule="nonzero"/>
	<path id="Vector" d="M61.6631 8.17114C61.3615 8.92773 61.06 8.92773 60.7585 10.1382L60.457 9.98694C60.457 9.83557 60.6077 9.53296 60.7585 9.23035C60.9092 8.92773 60.7585 8.77637 60.6077 8.47375C60.457 8.17114 60.0047 7.86853 59.4016 7.56592L60.1554 6.05273C60.3062 6.2041 60.6077 6.35535 60.7585 6.50671C60.9092 6.65796 61.06 6.80933 61.2108 6.96057C61.6631 7.26318 61.8138 7.71716 61.6631 8.17114Z" fill="#F5EFDB" fill-opacity="1.000000" fill-rule="nonzero"/>
	<path id="Vector" d="M59.703 10.744C59.8537 10.5927 60.0045 10.4414 60.1553 10.29L60.4568 10.4413C59.703 11.1979 59.8537 11.3492 59.2507 11.9545C58.9492 12.2571 58.4969 12.4084 58.0446 12.2571C57.8938 12.2571 57.5923 12.1058 57.4415 12.1058C57.2908 12.1058 57.14 11.9545 56.8385 11.9545L57.5923 10.4413C58.0446 10.744 58.4969 10.8953 58.7984 10.8953C59.2507 11.0466 59.5522 10.8953 59.703 10.744Z" fill="#F5EFDB" fill-opacity="1.000000" fill-rule="nonzero"/>
	<path id="Vector" d="M63.9246 10.4401C63.3215 9.83472 63.02 9.07825 63.3215 8.32166C63.4723 7.86768 63.623 7.56506 63.9246 7.26245C64.2261 6.95984 64.5276 6.65723 65.1307 6.50586C65.1307 6.50586 64.8291 6.80847 64.6784 7.26245C64.5276 7.71643 64.3769 8.17029 64.6784 8.62427C64.9799 9.07825 65.4322 9.5321 65.8845 9.98608C66.3368 10.4401 66.4875 11.0453 66.186 11.6505C65.7337 12.4071 65.583 12.2559 64.9799 13.3151L64.8291 13.1637C64.8291 13.0123 64.9799 12.8611 65.2814 12.5585C65.1307 11.9532 64.9799 11.3479 63.9246 10.4401Z" fill="#F5EFDB" fill-opacity="1.000000" fill-rule="nonzero"/>
	<path id="Vector" d="M62.7189 14.9789C62.1159 15.4327 61.6636 15.2815 61.2113 14.9789C60.759 14.8275 60.3067 14.3735 60.0052 14.3735C59.5529 14.3735 59.2514 14.5249 58.7991 14.8275C58.4975 15.1301 58.3468 15.4327 58.3468 15.4327C58.4975 14.9789 58.6483 14.5249 58.7991 14.2223C58.9498 13.9197 59.2514 13.6169 59.5529 13.3143C59.8544 13.1631 60.1559 13.0117 60.6082 13.0117C60.9098 13.0117 61.362 13.0117 61.5128 13.3143C61.9651 13.6169 62.4174 13.9197 62.7189 13.9197C63.0204 14.0709 63.322 13.9196 63.4727 13.7683C63.6235 13.6169 63.925 13.4657 63.925 13.4657L64.0758 13.6169C63.322 14.2223 63.4727 14.3735 62.7189 14.9789Z" fill="#F5EFDB" fill-opacity="1.000000" fill-rule="nonzero"/>
	<path id="Vector" d="M67.844 14.2234C67.5424 13.9208 67.3917 13.618 67.3917 13.1642C67.3917 12.8616 67.3917 12.4076 67.5424 12.105C67.844 11.3484 68.5978 10.7432 69.5024 10.5918C69.5024 10.5918 69.2009 10.8944 69.0501 11.197C68.7486 11.4996 68.5978 12.105 68.7486 12.5588C68.7486 12.7102 68.8993 13.0128 69.2009 13.3154C69.3516 13.618 69.5024 13.9208 69.6531 14.072C69.8039 14.3746 69.9547 14.6772 69.9547 14.98C69.9547 15.2826 69.9547 15.5852 69.6531 15.7365C69.0501 16.3418 68.8993 16.1904 68.1455 17.2496L67.9947 16.947C68.1455 16.7957 68.2963 16.6444 68.447 16.3418C68.7486 16.0392 68.5978 15.2826 67.844 14.2234Z" fill="#F5EFDB" fill-opacity="1.000000" fill-rule="nonzero"/>
	<path id="Vector" d="M65.8844 18.4603C65.5829 18.6117 65.2814 18.6117 65.1306 18.6117C64.8291 18.6117 64.6783 18.4603 64.5276 18.3091C64.3768 18.1577 64.0753 18.0065 63.9245 17.8551C63.7737 17.7037 63.623 17.5525 63.3215 17.5525C62.8692 17.4011 62.4169 17.5525 62.1154 17.8551C61.8138 18.1577 61.5123 18.3091 61.5123 18.3091C61.8138 17.4011 62.4169 16.7959 63.1707 16.4933C63.4722 16.3419 63.9245 16.1907 64.226 16.3419C64.5276 16.3419 64.8291 16.4933 65.1306 16.7959C65.8844 17.7037 66.4875 17.8551 66.9398 17.7037C67.2413 17.5525 67.3921 17.5525 67.5428 17.4011L67.6936 17.7037C66.6383 17.8551 66.6383 18.1577 65.8844 18.4603Z" fill="#F5EFDB" fill-opacity="1.000000" fill-rule="nonzero"/>
	<path id="Vector" d="M71.0106 18.7627C70.8598 18.46 70.7091 18.0061 70.7091 17.7035C70.7091 17.4008 70.8598 16.9469 71.0106 16.6443C71.4629 16.0389 72.2167 15.4337 73.2721 15.5851C73.2721 15.5851 72.9705 15.7363 72.669 16.0389C72.3675 16.3416 72.0659 16.7955 72.2167 17.2495C72.2167 17.7035 72.669 18.3087 72.8198 18.9139C72.9705 19.5192 72.9705 20.1245 72.5182 20.5784C71.7644 21.1837 71.7644 20.8811 70.7091 21.7889C70.7091 21.7889 70.7091 21.7889 70.7091 21.6377L70.7091 21.4863C70.8598 21.335 71.0106 21.1837 71.3121 21.0323C71.4629 20.8811 71.6137 20.5784 71.6137 20.2758C71.6137 20.1245 71.6137 19.8219 71.4629 19.6705C71.3121 19.2166 71.1614 19.0653 71.0106 18.7627Z" fill="#F5EFDB" fill-opacity="1.000000" fill-rule="nonzero"/>
	<path id="Vector" d="M68.4471 22.5453C67.844 22.6967 67.3917 22.3939 67.0902 22.0913C66.7887 21.7887 66.4871 21.1835 66.1856 21.0321C65.8841 20.8809 65.281 20.8809 64.9795 21.1835C64.5272 21.3347 64.2257 21.6375 64.2257 21.6375C64.678 20.8809 65.4318 20.2755 66.1856 20.1243C66.4871 19.9729 66.9394 19.9729 67.241 20.1243C67.5425 20.2755 67.844 20.4269 67.9948 20.7295C68.1455 21.0321 68.2963 21.1835 68.4471 21.3347C68.5978 21.4861 68.7486 21.6373 68.8994 21.7887C69.2009 21.9401 69.5024 22.0913 69.6532 21.9401C69.9547 21.7887 70.1055 21.7887 70.2562 21.7887C70.2562 21.7887 70.2562 21.7887 70.2562 21.9401L70.2562 22.0913C69.2009 22.0913 69.2009 22.2427 68.4471 22.5453Z" fill="#F5EFDB" fill-opacity="1.000000" fill-rule="nonzero"/>
	<path id="Vector" d="M76.2868 20.882C76.2868 20.882 75.9852 21.0332 75.5329 21.3358C75.2314 21.6384 74.7791 21.941 74.7791 22.5464C74.7791 22.6976 74.7791 23.0002 74.9299 23.303L73.4222 23.9082C73.1207 23.1516 73.4222 22.395 73.8745 21.7898C74.3268 21.0332 75.2314 20.5792 76.2868 20.882Z" fill="#F5EFDB" fill-opacity="1.000000" fill-rule="nonzero"/>
	<path id="Vector" d="M66.0352 25.2701C66.6383 24.5135 67.3921 24.2109 68.146 24.0596C68.8998 24.0596 69.6536 24.3622 69.8044 24.9675L68.2967 25.5728C68.1459 25.4214 67.9952 25.2701 67.9952 25.1188C67.6936 24.8162 67.2414 24.8162 66.7891 24.9675C66.4875 25.1188 66.0352 25.2701 66.0352 25.2701Z" fill="#F5EFDB" fill-opacity="1.000000" fill-rule="nonzero"/>
	<path id="Vector" d="M70.1062 21.6382C70.1062 21.6382 69.9555 21.3354 69.8047 21.0328C69.6539 20.579 69.3524 20.125 69.0509 19.5198C68.7493 19.0658 68.4478 18.4606 68.1463 18.1578C67.8448 17.8552 67.694 17.5526 67.694 17.5526L67.5432 17.25C67.5432 17.25 67.5432 17.25 67.3925 17.0986C67.2417 16.9474 67.2417 16.796 67.0909 16.6448C66.7894 16.3422 66.4879 15.8882 66.0356 15.4342C65.8848 15.283 65.5833 14.9802 65.4325 14.829C65.2818 14.6776 64.9803 14.375 64.8295 14.2236C64.6787 14.0724 64.528 13.921 64.3772 13.7698C64.2264 13.6184 64.2264 13.6184 64.2264 13.6184L64.0757 13.4672C64.0757 13.4672 63.9249 13.3158 63.4726 13.0132C63.1711 12.7106 62.7188 12.2566 62.2665 11.954C61.965 11.8026 61.8142 11.6514 61.5127 11.3488C61.3619 11.1974 61.3619 11.1974 61.2112 11.0461C61.0604 11.0461 61.0604 10.8948 60.9096 10.8948C60.6081 10.5922 60.3066 10.4408 60.3066 10.4408L60.0051 10.2896C60.0051 10.2896 59.5528 9.98682 59.1005 9.6842C58.9497 9.6842 58.9497 9.53296 58.7989 9.53296C58.6482 9.53296 58.6482 9.38159 58.4974 9.38159C58.3467 9.23035 58.1959 9.23035 58.1959 9.23035L58.4974 8.77637C58.4974 8.77637 58.6482 8.77637 58.7989 8.92761C58.9497 8.92761 58.9497 9.07898 59.1005 9.07898C59.2512 9.07898 59.2512 9.23035 59.402 9.23035C59.5528 9.38159 59.8543 9.53296 60.0051 9.6842C60.1558 9.83557 60.3066 9.83557 60.3066 9.83557L60.6081 9.98682C60.6081 9.98682 60.9096 10.1382 61.2112 10.4408C61.3619 10.5922 61.6635 10.7434 61.8142 10.8948C62.1157 11.0461 62.2665 11.1974 62.568 11.5C63.0203 11.954 63.4726 12.2566 63.7741 12.5592C64.0757 12.8618 64.3772 13.0132 64.3772 13.0132L64.528 13.1646C64.528 13.1646 64.528 13.1646 64.6787 13.3158C64.8295 13.4672 64.9803 13.6184 65.131 13.7698C65.2818 13.921 65.4325 14.0724 65.7341 14.375C65.8848 14.5264 66.1864 14.829 66.3371 14.9802C66.7894 15.4342 67.091 15.8882 67.3925 16.3422C67.5432 16.4934 67.694 16.6448 67.694 16.796C67.8448 16.9474 67.8448 16.9474 67.8448 16.9474L67.9955 17.25C67.9955 17.25 68.1463 17.5526 68.4478 17.8552C68.5986 18.0066 68.7494 18.3092 68.9001 18.4606C69.0509 18.7632 69.2016 18.9144 69.3524 19.217C69.6539 19.671 69.9555 20.2762 70.257 20.7302C70.4077 21.1842 70.5585 21.3354 70.5585 21.3354C70.5585 21.3354 70.5585 21.3354 70.5585 21.4868L70.5585 21.6382C70.5585 21.6382 70.5585 21.7894 70.7093 22.092C70.86 22.3947 71.0108 22.6974 71.1616 23C71.3123 23.3026 71.4631 23.6052 71.4631 23.9078C71.4631 24.0592 71.6139 24.0592 71.6139 24.2104L71.6139 24.3618L71.1616 24.5131C71.1616 24.5131 71.1616 24.5131 71.1616 24.3618C71.1616 24.3618 71.1616 24.2104 71.0108 24.0592C70.86 23.7566 70.7093 23.4539 70.7093 23.1512C70.5585 22.8486 70.4077 22.546 70.257 22.2434C70.1062 21.9408 70.1062 21.7894 70.1062 21.7894C70.1062 21.7894 70.257 21.7894 70.1062 21.6382Z" fill="#F5EFDB" fill-opacity="1.000000" fill-rule="nonzero"/>
	<path id="Vector" d="M49.1491 3.78284C48.6968 3.63159 48.3953 3.48022 48.0938 3.32898C47.7922 3.02625 47.6415 2.72363 47.4907 2.42102C47.3399 1.66443 47.3399 0.756592 48.0938 0C48.0938 0 48.0938 0.302612 48.0938 0.756592C48.0938 1.21057 48.2445 1.66443 48.6968 1.96704C49.1491 2.26978 49.7522 2.26978 50.3552 2.57239C50.9583 2.875 51.4106 3.17761 51.4106 3.78284C51.4106 4.6908 51.109 4.6908 51.2598 5.90125C51.2598 5.90125 51.2598 5.90125 51.109 5.90125L50.9583 5.90125C50.9583 5.75 50.9583 5.44727 50.9583 5.14465C50.9583 4.84204 50.8075 4.6908 50.506 4.38806C50.3552 4.23682 50.2045 4.23682 49.9029 4.08545C49.7522 3.9342 49.4506 3.78284 49.1491 3.78284Z" fill="#F5EFDB" fill-opacity="1.000000" fill-rule="nonzero"/>
	<path id="Vector" d="M50.3554 8.17029C50.0539 8.77563 49.6016 8.92688 49.1493 8.92688C48.697 8.92688 48.094 8.92688 47.7924 9.07825C47.3401 9.22949 47.1894 9.68347 47.0386 10.1375C46.8879 10.5914 46.8879 10.894 46.8879 10.894C46.5863 9.98608 46.5863 9.07825 46.8879 8.4729C47.0386 8.17029 47.3401 7.86768 47.4909 7.71631C47.7924 7.56506 48.094 7.4137 48.5463 7.56506C48.8478 7.56506 49.1493 7.56506 49.3001 7.56506C49.4508 7.56506 49.7524 7.56506 49.9031 7.56506C50.2047 7.4137 50.5062 7.26245 50.5062 7.11108C50.6569 6.80847 50.6569 6.65723 50.8077 6.50586C50.8077 6.50586 50.8077 6.50586 50.9585 6.50586L51.1092 6.50586C50.5062 7.26245 50.8077 7.4137 50.3554 8.17029Z" fill="#F5EFDB" fill-opacity="1.000000" fill-rule="nonzero"/>
	<path id="Vector" d="M54.4257 5.14417C53.9734 4.9928 53.6719 4.84155 53.5211 4.53894C53.3704 4.38757 53.3704 4.23621 53.2196 4.08496C53.2196 3.93359 53.0689 3.78235 53.0689 3.47974C52.9181 2.72314 53.2196 1.81519 54.1242 1.20996C54.1242 1.20996 53.9734 1.51257 53.9734 1.96655C53.9734 2.42053 53.9734 2.87439 54.4257 3.32837C54.5765 3.47974 54.878 3.63098 55.1795 3.78235C55.4811 3.93359 55.7826 4.08496 56.0841 4.23621C56.6872 4.53894 56.9887 4.9928 56.8379 5.74939C56.6872 6.65735 56.3857 6.50598 56.2349 7.71655L55.9334 7.56519C55.9334 7.41382 55.9334 7.11121 56.0841 6.80859C56.0841 6.50598 56.0841 6.35461 55.7826 6.052C55.4811 5.59814 55.0288 5.29541 54.4257 5.14417Z" fill="#F5EFDB" fill-opacity="1.000000" fill-rule="nonzero"/>
	<path id="Vector" d="M54.8783 9.68506C54.5768 10.2903 53.9737 10.2903 53.5215 10.2903C53.2199 10.2903 53.0692 10.139 52.7676 10.139C52.4661 10.139 52.3154 10.139 52.1646 10.139C51.7123 10.2903 51.4108 10.5929 51.26 11.0469C51.1092 11.5009 50.9585 11.8035 50.9585 11.8035C50.8077 10.8955 50.9585 9.98767 51.4108 9.38245C51.5615 9.23108 51.7123 9.07971 51.7123 8.92847C51.8631 8.7771 52.0138 8.7771 52.1646 8.62585C52.4661 8.47449 52.7676 8.47449 53.2199 8.62585C53.823 8.7771 54.1245 8.92847 54.5768 8.92847C54.8783 8.92847 55.1799 8.7771 55.3306 8.62585C55.4814 8.32324 55.6321 8.17188 55.6321 8.17188L55.9337 8.32324C55.1799 8.92847 55.3306 9.07971 54.8783 9.68506Z" fill="#F5EFDB" fill-opacity="1.000000" fill-rule="nonzero"/>
	<path id="Vector" d="M59.8534 3.3291C59.8534 3.3291 59.7027 3.63171 59.5519 4.08569C59.4011 4.53967 59.4011 4.99353 59.7027 5.44751C59.8534 5.59888 60.0042 5.75012 60.155 5.90149L59.4011 7.41467C58.6473 6.96069 58.3458 6.2041 58.3458 5.44751C58.4966 4.69092 58.9488 3.78308 59.8534 3.3291Z" fill="#F5EFDB" fill-opacity="1.000000" fill-rule="nonzero"/>
	<path id="Vector" d="M54.8785 13.3164C54.8785 12.4084 55.18 11.5006 55.7831 11.0466C56.3861 10.4414 56.9892 10.29 57.743 10.5928L56.9892 12.1058C56.8384 12.1058 56.5369 11.9546 56.3862 11.9546C55.9339 11.9546 55.6323 12.2572 55.3308 12.7111C55.0293 12.8624 54.8785 13.3164 54.8785 13.3164Z" fill="#F5EFDB" fill-opacity="1.000000" fill-rule="nonzero"/>
	<path id="Vector" d="M46.4354 63.8551C46.8877 63.8551 47.1892 63.8551 47.1892 63.8551C47.1892 63.8551 47.1892 63.8551 47.34 63.8551L47.4908 63.8551C47.4908 63.8551 47.7923 63.8551 48.2446 63.7039C48.3953 63.7039 48.6969 63.7037 48.9984 63.5525C49.2999 63.5525 49.6014 63.4012 49.903 63.4012C50.0537 63.4012 50.2045 63.4012 50.3553 63.2499C50.506 63.2499 50.6568 63.2499 50.8076 63.0985C51.1091 63.0985 51.4106 62.9473 51.5614 62.9473C51.7121 62.9473 52.0137 62.7959 52.0137 62.7959C52.1644 62.7959 52.1644 62.7959 52.1644 62.7959L52.466 62.6447C52.466 62.6447 52.466 62.6447 52.6167 62.6447C52.7675 62.6447 52.9182 62.4933 53.069 62.4933C53.2198 62.4933 53.5213 62.3419 53.8228 62.1907C54.1244 62.0393 54.4259 62.0394 54.5767 61.8881C55.1797 61.5854 55.632 61.4341 56.0843 61.2827C56.5366 61.1315 56.8381 60.9801 56.8381 60.9801C56.8381 60.9801 56.8381 60.9801 56.9889 60.9801L57.1396 60.9801C57.1396 60.9801 57.5919 60.6775 58.0442 60.5262C58.3457 60.3749 58.4965 60.2236 58.6473 60.2236C58.798 60.0723 58.9488 60.0723 58.9488 60.0723L59.2503 60.5262C59.2503 60.5262 59.0996 60.5262 58.9488 60.6775C58.798 60.8289 58.4965 60.9801 58.3457 60.9801C57.8935 61.2828 57.4412 61.4341 57.4412 61.4341C57.4412 61.4341 57.4412 61.4341 57.2904 61.4341L57.1396 61.4341C57.1396 61.4341 56.8381 61.5854 56.3858 61.7367C55.9335 61.8881 55.3305 62.1907 54.8782 62.342C54.5767 62.4933 54.2751 62.4933 53.9736 62.6447C53.6721 62.7959 53.5213 62.7959 53.2198 62.9473C52.7675 63.0985 52.466 63.0985 52.466 63.0985L52.1644 63.2499C52.1644 63.2499 52.1644 63.2499 52.0137 63.2499C51.8629 63.2499 51.7121 63.4012 51.4106 63.4012C51.2598 63.4012 50.9583 63.5525 50.6568 63.5525C50.506 63.5525 50.3553 63.5525 50.2045 63.7039C50.0537 63.7039 49.903 63.7039 49.7522 63.8551C49.4507 63.8551 49.1492 64.0065 48.8476 64.0065C48.5461 64.0065 48.2446 64.1577 48.0938 64.1577C47.6415 64.1577 47.34 64.3091 47.34 64.3091L47.0385 64.3091C47.0385 64.3091 46.7369 64.3091 46.2846 64.3091L46.1339 64.3091L46.1339 63.7039C46.2846 63.8551 46.4354 63.8551 46.4354 63.8551Z" fill="#F5EFDB" fill-opacity="1.000000" fill-rule="nonzero"/>
	<path id="Vector" d="M46.888 5.14441C47.1896 5.14441 47.3403 5.14453 47.6419 5.29578C47.9434 5.29578 48.2449 5.29578 48.5464 5.44714C49.1495 5.59839 49.7526 5.59839 50.2048 5.74976C50.6571 5.901 50.9587 5.901 50.9587 5.901C50.9587 5.901 50.9587 5.901 51.1094 5.901L51.2602 5.901C51.2602 5.901 51.5617 6.05237 52.014 6.05237C52.1648 6.05237 52.4663 6.20361 52.7678 6.20361C53.0694 6.35498 53.3709 6.35498 53.6724 6.50635C53.9739 6.65759 54.2755 6.65759 54.577 6.80896C54.8785 6.96021 55.0293 6.96021 55.3308 7.11157C55.4816 7.26282 55.7831 7.26294 55.7831 7.26294C55.9339 7.26294 55.9339 7.41418 55.9339 7.41418L56.2354 7.56555C56.2354 7.56555 56.3862 7.56543 56.6877 7.7168C56.9892 7.86816 57.2907 8.01941 57.5923 8.17078C57.8938 8.32202 58.1953 8.47339 58.4969 8.62476C58.7984 8.776 58.9491 8.776 58.9491 8.776L58.6476 9.22998C58.6476 9.22998 58.4969 9.07861 58.3461 9.07861C58.1953 8.92737 57.743 8.776 57.4415 8.62476C57.14 8.47339 56.8384 8.32202 56.5369 8.17078C56.2354 8.01941 56.0846 8.01941 56.0846 8.01941L55.7831 7.86816C55.7831 7.86816 55.7831 7.86816 55.6323 7.7168C55.4816 7.7168 55.3308 7.56555 55.1801 7.56555C55.0293 7.41418 54.7278 7.41418 54.4262 7.26294C54.2755 7.26294 54.1247 7.11157 53.9739 7.11157C53.8232 7.11157 53.6724 6.96021 53.5216 6.96021C53.2201 6.80896 52.9186 6.80896 52.6171 6.65759C52.3155 6.50635 52.1648 6.50635 51.8632 6.50635C51.411 6.35498 51.1094 6.35498 51.1094 6.35498C51.1094 6.35498 51.1094 6.35498 50.9587 6.35498L50.8079 6.35498C50.8079 6.35498 50.5064 6.35498 50.0541 6.20361C49.6018 6.05237 48.9987 6.05237 48.3957 5.901C48.0942 5.901 47.7926 5.74976 47.4911 5.74976C47.1896 5.74976 46.888 5.74976 46.7373 5.59839L46.5865 5.59839L46.7373 4.99316C46.7373 5.14453 46.888 5.14441 46.888 5.14441Z" fill="#F5EFDB" fill-opacity="1.000000" fill-rule="nonzero"/>
	<path id="Vector" d="M47.7924 5.44678C47.7924 5.44678 47.0385 4.08496 44.9279 4.08496C42.8172 4.08496 41.4603 4.69019 41.008 4.69019C40.5557 4.69019 42.9679 4.84155 44.174 5.59814C45.0786 6.20337 47.6416 6.50598 47.7924 5.44678Z" fill="#F5EFDB" fill-opacity="1.000000" fill-rule="nonzero"/>
	<path id="Vector" d="M39.3495 64.4597C36.1835 64.4597 33.4697 64.0057 30.3037 63.7031L30.3037 64.1571C33.1682 64.6111 36.1835 64.9137 39.3495 64.9137C42.3648 64.9137 45.2293 64.6111 48.0938 64.1571L46.2847 63.8545C43.4202 64.4597 42.3648 64.4597 39.3495 64.4597Z" fill="#F5EFDB" fill-opacity="1.000000" fill-rule="nonzero"/>
	<path id="5" d="M38.2 31.165C40.93 31.165 43.075 31.9301 44.635 33.46C46.225 34.96 47.02 37.105 47.02 39.895C47.02 41.845 46.615 43.51 45.805 44.89C45.025 46.24 43.945 47.275 42.565 47.995C41.185 48.6851 39.64 49.03 37.93 49.03C36.52 49.03 35.26 48.76 34.15 48.22C33.04 47.65 32.005 46.795 31.045 45.655L31 45.5649C31 45.4449 31.06 45.355 31.18 45.295C31.3 45.205 31.39 45.205 31.45 45.295C32.08 45.985 32.845 46.51 33.745 46.87C34.675 47.23 35.635 47.41 36.625 47.41C38.635 47.41 40.135 46.78 41.125 45.52C42.115 44.23 42.61 42.52 42.61 40.39C42.61 38.05 42.07 36.175 40.99 34.765C39.91 33.355 38.29 32.65 36.13 32.65C35.2 32.65 34.375 32.74 33.655 32.92C32.935 33.1 32.53 33.205 32.44 33.235C32.29 33.235 32.17 33.1899 32.08 33.1C31.99 32.98 31.96 32.845 31.99 32.6949L33.43 20.905C33.46 20.6949 33.505 20.5601 33.565 20.5C33.625 20.41 33.775 20.365 34.015 20.365C38.095 20.365 40.795 20.35 42.115 20.3199C43.465 20.26 44.35 20.155 44.77 20.005C45.19 19.855 45.52 19.54 45.76 19.0601C45.79 19 45.88 18.985 46.03 19.015C46.18 19.015 46.24 19.075 46.21 19.1949L45.535 23.515C45.445 23.875 45.325 24.115 45.175 24.235C45.055 24.325 44.8 24.37 44.41 24.37L34.96 24.145C34.57 24.145 34.33 24.355 34.24 24.775L33.385 31.975C35.005 31.4351 36.61 31.165 38.2 31.165Z" fill="#AAAAAA" fill-opacity="1.000000" fill-rule="nonzero"/>
</svg>
