<svg width="78.999969" height="79.000244" viewBox="0 0 79 79.0002" fill="none" xmlns="http://www.w3.org/2000/svg" xmlns:xlink="http://www.w3.org/1999/xlink">
	<desc>
			Created with Pixso.
	</desc>
	<defs/>
	<path id="Vector" d="M12.1935 58.3301C12.0217 58.1549 11.85 57.9797 11.85 57.8046C11.6783 57.4542 11.5065 57.2791 11.5065 57.2791C11.5065 56.7535 11.6782 56.228 11.6782 55.7026C12.1935 55.7026 13.0522 55.5275 13.3956 54.4764C13.5674 53.9509 13.5674 53.2502 13.5674 52.5496C13.5674 52.1992 13.5674 51.849 13.3956 51.6738C13.3956 51.3235 13.3956 51.1483 13.3956 50.9731C12.8804 51.3235 10.9913 52.7247 10.6478 53.6006C10.4761 54.1261 10.4761 54.4764 10.6478 54.8268C10.8195 55.1771 11.163 55.3523 11.3348 55.5275C11.163 55.7026 11.163 56.053 10.9913 56.4032C10.9913 56.4032 10.8195 56.228 10.6478 55.8777C10.4761 55.5275 10.3043 55.1771 10.1326 54.8268C9.96086 54.4764 9.78912 54.1261 9.61737 53.7758C9.61737 53.6006 9.44563 53.4254 9.44563 53.4254L9.44563 53.2502L8.9304 52.0242C8.9304 51.6738 9.2739 50.9731 9.44563 50.4476C9.96085 50.4476 10.8195 50.4476 11.3348 49.5718C11.5065 49.2214 11.6782 48.5208 11.6782 47.8202C11.6782 47.4698 11.6782 47.1195 11.6782 46.7692C11.6782 46.4188 11.6782 46.2437 11.6782 46.0685C11.163 46.2437 9.10216 47.2947 8.58693 48.1704C8.41519 48.3456 8.41521 48.5208 8.41521 48.6959C8.24347 49.3966 8.75867 49.9221 8.9304 50.0973C8.75867 50.2725 8.58694 50.6228 8.41521 50.798C8.41521 50.798 8.41521 50.6228 8.24347 50.4476C8.24347 50.2725 8.07172 50.0973 8.07172 49.7469C7.89998 49.2214 7.72824 48.6959 7.72824 48.6959C7.72824 48.6959 7.72826 48.5208 7.55652 48.3456C7.55652 48.1704 7.38477 47.9954 7.38477 47.9954L7.04129 46.7692C7.21304 46.4188 7.5565 45.7181 7.72824 45.3678C8.07172 45.543 9.10214 45.543 9.78911 44.6671C10.1326 44.3168 10.3043 43.6162 10.4761 42.9155C10.6478 42.2148 10.8195 41.6893 10.8195 41.339C10.3043 41.5142 8.07173 42.2148 7.38477 42.9155C6.69781 43.7914 7.21303 44.6671 7.38477 45.0175C7.21303 45.1926 7.04129 45.3678 6.86955 45.7181C6.86955 45.7181 6.86957 45.543 6.69783 45.1926C6.69783 44.8423 6.52608 44.4919 6.52608 43.9666C6.52608 43.6162 6.35432 43.0907 6.35432 42.7404C6.35432 42.39 6.35432 42.2148 6.35432 42.2148C6.35432 42.2148 6.35432 41.8645 6.35432 41.5142C6.35432 41.339 6.35432 41.1638 6.35432 41.1638C6.35432 40.9886 6.35432 40.9886 6.35432 40.9886C6.52606 40.6383 7.04129 40.1129 7.21303 39.7626C7.5565 39.9377 8.58694 40.1129 9.27391 39.4122C9.61739 39.0619 9.96086 38.5364 10.1326 37.8357C10.4761 37.135 10.6478 36.6096 10.6478 36.2593C9.96085 36.2593 7.72826 36.6096 7.04129 37.3102C6.86955 37.4854 6.69783 37.6605 6.69783 37.8357C6.35435 38.5364 6.69781 39.0619 6.86955 39.4122C6.69781 39.5874 6.52608 39.7626 6.1826 39.9377C6.1826 39.9377 6.1826 39.7626 6.1826 39.5874C6.1826 39.4122 6.1826 39.0619 6.1826 38.8867C6.1826 38.3612 6.1826 37.8357 6.1826 37.8357L6.1826 36.9598C6.1826 36.9598 6.1826 36.6096 6.1826 36.2593C6.1826 35.9089 6.1826 35.5586 6.1826 35.5586C6.35434 35.2083 6.86954 34.6827 7.21303 34.5076C7.5565 34.6827 8.41521 35.2083 9.27391 34.5076C9.61739 34.1572 10.1326 33.6317 10.4761 33.1062C10.8195 32.5808 11.163 32.0553 11.163 31.705C10.4761 31.705 8.24347 31.705 7.38477 32.2305C6.86955 32.5808 6.69783 32.931 6.69783 33.2814C6.69783 33.6317 6.69781 33.9821 6.86955 34.1572C6.69781 34.3324 6.35434 34.5076 6.1826 34.6827C6.1826 34.6827 6.1826 34.5076 6.1826 34.1572C6.1826 33.8069 6.35432 33.4565 6.35432 32.9312C6.35432 32.4056 6.52608 32.0553 6.52608 31.705C6.52608 31.3546 6.69783 31.1794 6.69783 31.1794C6.69783 31.1794 6.69783 31.1794 6.69783 31.0043C6.69783 30.8291 6.69783 30.6539 6.69783 30.6539C6.69783 30.3036 6.86955 29.9532 6.86955 29.9532C7.21303 29.6029 7.72824 29.2526 8.07172 29.0774C8.41519 29.4277 9.10217 29.9532 10.1326 29.4277C10.3043 29.2526 10.6478 29.0774 10.8195 28.9023C10.9913 28.7272 11.3347 28.3768 11.5065 28.2017C12.0217 27.6761 12.3652 27.1506 12.5369 26.9755C12.1935 26.9755 11.5065 26.8003 10.8195 26.6251C10.1326 26.6251 9.2739 26.6251 8.75868 26.8003C8.58694 26.9755 8.41521 26.9755 8.24347 27.1506C8.07173 27.3258 7.89999 27.6761 7.89999 28.0265C7.89999 28.3768 7.89999 28.552 7.89999 28.7272C7.72826 28.9023 7.38478 28.9022 7.04129 29.0774C7.04129 29.0774 7.21303 28.552 7.38477 28.0265C7.38477 27.8513 7.55652 27.501 7.55652 27.3258C7.55652 27.1506 7.72824 26.9755 7.72824 26.9755L8.07172 26.0996C8.07172 26.0996 8.07172 26.0996 8.07172 25.9244C8.07172 25.9244 8.07172 25.9244 8.07172 25.7493C8.07172 25.7493 8.07173 25.5741 8.24347 25.3989C8.41521 25.0486 8.41521 24.8735 8.41521 24.8735C8.7587 24.5232 9.44562 24.348 9.78911 24.1729C10.1326 24.5232 10.8195 25.2239 11.85 24.8735C12.7087 24.5232 14.0826 23.1218 14.5978 22.7715C14.0826 22.5963 11.85 21.7205 10.8195 22.0708C10.3043 22.246 9.96085 22.5963 9.78911 22.9467C9.61737 23.297 9.61737 23.6473 9.61737 23.8225C9.44563 23.8225 9.10216 23.9977 8.75868 23.9977C8.75868 23.9977 8.9304 23.8225 8.9304 23.4722C9.10214 23.1218 9.2739 22.7715 9.44563 22.4211C9.61737 22.0708 9.78911 21.7205 9.96085 21.3702C10.1326 21.0199 10.1326 20.8447 10.1326 20.8447L10.8195 19.7937C11.163 19.6185 11.85 19.4434 12.3652 19.2682C12.5369 19.6185 13.2239 20.3192 14.2543 20.3192C14.7695 20.3192 15.2847 19.9689 15.8 19.6185C16.1434 19.4434 16.3152 19.2682 16.6586 19.093C16.8304 18.9178 17.1739 18.7427 17.1739 18.7427C16.6587 18.3923 14.5978 17.3414 13.5674 17.3414C13.3956 17.3414 13.2239 17.3413 13.0522 17.5165C12.3652 17.8668 12.1935 18.5675 12.1935 18.7427C12.0217 18.7427 11.6782 18.7427 11.3348 18.7427C11.3348 18.7427 11.3347 18.5675 11.5065 18.3923C11.6782 18.2172 11.6783 18.042 11.85 17.8668C12.1935 17.5166 12.3652 16.9911 12.3652 16.9911C12.3652 16.9911 12.5369 16.8159 12.5369 16.6407C12.7087 16.4656 12.7087 16.2904 12.7087 16.2904L13.0522 15.7649L13.5674 15.2394C13.9109 15.0642 14.5978 15.0642 15.113 15.0642C15.2848 15.4146 15.8 16.2904 16.8304 16.2904C17.3456 16.2904 18.0326 16.1152 18.5478 15.7649C19.2347 15.5897 19.75 15.2394 19.9217 15.0642C19.4065 14.7139 17.6891 13.3126 16.6586 13.3126C16.1434 13.3126 15.8 13.4878 15.4565 13.838C15.2847 14.1884 15.113 14.3635 15.113 14.7139C14.9413 14.7139 14.5978 14.7139 14.2543 14.7139C14.2543 14.7139 14.4261 14.5387 14.5978 14.3635C14.7695 14.1884 15.113 13.838 15.4565 13.4878C15.6282 13.3126 15.8 13.1375 15.9717 12.9623C16.1434 12.7871 16.3152 12.6119 16.3152 12.6119C16.4869 12.4368 16.6586 12.2616 16.6586 12.2616C16.6586 12.2616 16.8304 12.0864 17.1739 11.7361C17.3456 11.5609 17.6891 11.3857 17.6891 11.3857C18.2043 11.3857 18.7195 11.3857 19.2347 11.3857C19.2347 11.9113 19.5782 12.7871 20.6086 12.9623C20.7804 12.9623 21.1239 12.9623 21.4673 12.9623C21.8108 12.9623 22.1543 12.7871 22.326 12.7871C22.6695 12.7871 23.013 12.6119 23.3565 12.6119C23.7 12.6119 23.8717 12.4368 24.0434 12.4368C23.7 11.9113 21.9826 10.3347 21.1239 10.1595C20.9521 10.1595 20.7804 10.1595 20.4369 10.1595C20.2652 10.1595 20.0934 10.1595 19.9217 10.3347C19.75 10.3347 19.75 10.5099 19.5782 10.6851C19.4065 10.8602 19.2347 11.0354 19.2347 11.2106C19.063 11.2106 18.7195 11.0354 18.376 11.0354C18.376 11.0354 18.7195 10.6851 19.2347 10.3347C19.5782 9.98438 20.0934 9.63403 20.0934 9.63403L20.7804 9.10864C20.7804 9.10864 20.7804 9.10864 20.9521 8.93347C20.9521 8.93347 21.1239 8.93347 21.1239 8.7583C21.4673 8.58313 21.6391 8.40796 21.6391 8.40796C21.9826 8.40796 22.6695 8.58313 23.1847 8.58313C23.1847 9.10864 23.3564 9.98438 24.3869 10.3347C24.9021 10.5099 25.5891 10.5099 26.276 10.5099C26.6195 10.5099 26.963 10.5099 27.1347 10.3347C27.4782 10.3347 27.6499 10.3347 27.8217 10.3347C27.4782 9.8092 26.1043 7.88245 25.2456 7.5321C24.7304 7.35693 24.3869 7.35693 24.0434 7.5321C23.7 7.70728 23.5282 8.05762 23.3565 8.23279C23.1848 8.05762 22.8412 8.05762 22.4978 7.88245C22.4978 7.88245 22.6695 7.70728 23.013 7.5321C23.3565 7.35693 23.7 7.18176 24.0434 7.00659C24.2151 6.83142 26.1043 5.95557 27.4782 5.07983C27.8217 5.43018 28.5086 5.95569 29.3673 5.60535C30.226 5.255 31.5999 3.32812 31.9434 2.80261C31.4282 2.62744 29.0239 2.2771 28.1652 2.62744C26.963 3.15295 27.1347 4.20398 27.1347 4.55432C26.4478 4.90466 25.7608 5.07983 25.4173 5.255C25.0739 5.43018 23.3565 5.95557 23.3565 5.95557C23.3565 5.60535 23.5282 5.255 23.5282 5.07983C23.7 5.07983 24.0434 5.07983 24.3869 4.90466C24.7304 4.72949 25.0739 4.37915 25.2456 3.85364C25.4173 3.32812 25.4173 2.45227 25.4173 1.75171C25.4173 1.05103 25.2456 0.175171 25.2456 0C25.0739 0.175171 24.9021 0.350342 24.5587 0.525513C24.2152 0.700684 24.0434 1.05103 23.7 1.2262C23.013 1.75171 22.4978 2.45227 22.326 2.97778C21.9825 4.02881 22.6695 4.72949 23.013 4.90466C23.013 5.07983 22.8412 5.43018 22.6695 5.60535C22.4978 5.95569 22.4978 6.13074 22.326 6.30591C22.326 6.30591 22.1543 6.30591 21.9826 6.48108C21.8108 6.65625 21.4673 6.83142 21.2956 7.00659C20.7804 7.35693 20.2652 7.70728 20.2652 7.70728C20.2652 7.70728 20.2652 7.70728 20.0934 7.88245C19.9217 7.88245 19.9217 8.05762 19.75 8.23279C19.4065 8.40796 19.2347 8.58313 19.2347 8.58313L18.8913 8.7583C18.8913 8.58313 18.8913 8.40796 18.8913 8.23279C18.8913 8.05762 18.8913 8.05762 18.8913 7.88245C19.063 7.88245 19.4065 7.70728 19.75 7.5321C20.0934 7.35693 20.4369 7.00659 20.4369 6.48108C20.6087 5.43018 19.9217 3.15295 19.75 2.62744C19.5782 2.80261 19.4065 2.97778 19.2347 3.15295C19.063 3.5033 18.7195 3.67847 18.376 4.02881C17.8608 4.72949 17.3456 5.43018 17.3456 5.95557L17.3456 6.13074C17.3456 7.18176 18.0326 7.5321 18.376 7.70728C18.2043 8.23279 18.2043 8.93347 18.0326 9.28381C18.0326 9.28381 17.8608 9.45898 17.6891 9.63403C17.5173 9.8092 17.1739 10.1595 16.8304 10.3347C16.4869 10.5099 16.3152 10.8602 15.9717 11.0354C15.8 11.2106 15.6282 11.3857 15.6282 11.3857C15.6282 11.3857 15.2847 11.7361 14.9413 11.9113C14.7695 12.0864 14.5978 12.2616 14.5978 12.2616C14.4261 12.4368 14.4261 12.4368 14.4261 12.4368C14.4261 12.0864 14.2543 11.7361 14.2543 11.5609C14.4261 11.5609 14.7695 11.3857 15.113 11.0354C15.4565 10.8602 15.6282 10.3347 15.6282 9.8092C15.6282 8.7583 14.5978 6.65625 14.4261 6.13074C14.2543 6.48108 13.7391 7.00659 13.3956 7.88245C13.0522 8.58313 12.7087 9.45898 12.7087 9.98438C12.7087 11.2106 13.5674 11.5609 14.0826 11.5609C14.0826 12.0864 14.0826 12.7871 13.9108 13.1375C13.9108 13.1375 13.7391 13.3126 13.5674 13.4878C13.3956 13.663 13.2239 13.838 13.0522 14.1884C12.8804 14.3635 12.7087 14.7139 12.5369 14.889C12.3652 15.0642 12.3652 15.2394 12.3652 15.2394C12.3652 15.2394 12.1935 15.5897 11.85 15.7649C11.6783 15.9401 11.6782 16.1152 11.5065 16.1152C11.5065 16.2904 11.3348 16.2904 11.3348 16.2904L11.163 16.6407C11.163 16.4656 10.9913 16.2904 10.9913 16.1152C10.9913 15.9401 10.9913 15.9401 10.8195 15.7649C10.9913 15.5897 11.3347 15.4146 11.5065 15.2394C11.6782 14.889 11.85 14.5387 11.85 14.0132C11.6783 12.9623 10.4761 11.0354 10.1326 10.5099C9.96086 10.8602 9.61739 11.5609 9.27391 12.2616C8.93044 13.1375 8.75867 13.838 8.9304 14.5387L8.9304 14.7139C9.10214 15.7649 9.96086 15.9401 10.4761 15.9401C10.4761 16.4656 10.6478 17.1663 10.6478 17.5165C10.6478 17.5165 10.3043 18.2172 9.78911 18.9178C9.44562 19.6185 8.9304 20.3192 8.9304 20.3192C8.9304 20.3192 8.93042 20.4944 8.75868 20.4944C8.75868 20.6696 8.58694 20.8447 8.41521 21.0199C8.24347 21.3701 8.07172 21.7205 8.07172 21.7205C7.89998 21.3701 7.72824 21.1951 7.72824 20.8447C7.89998 20.6696 8.24347 20.4944 8.41521 20.144C8.58694 19.7937 8.75867 19.4434 8.58693 18.7427C8.24345 17.6917 6.69781 16.1152 6.1826 15.5897C6.1826 15.7649 6.01086 16.1152 5.83913 16.2904C5.66739 16.6407 5.66737 16.9911 5.49564 17.5165C5.3239 18.3923 5.3239 19.2682 5.49564 19.7937C5.83911 20.8447 6.86954 21.0199 7.21303 21.0199C7.38477 21.5453 7.55652 22.246 7.55652 22.5963C7.55652 22.5963 7.5565 22.7715 7.38477 22.9467C7.21303 23.1218 7.21304 23.4722 7.04129 23.8225C6.86955 24.348 6.52608 25.0487 6.52608 25.0487C6.52608 25.0487 6.52608 25.0486 6.52608 25.2238C6.52608 25.3989 6.35432 25.5741 6.35432 25.7493C6.18259 26.0996 6.1826 26.45 6.1826 26.45L6.01085 26.8003C5.83911 26.6251 5.83913 26.45 5.66739 26.45C5.66739 26.2748 5.49564 26.2748 5.49564 26.0996C5.66737 25.9244 5.83911 25.7493 6.01085 25.2238C6.18259 24.8735 6.18259 24.348 6.01085 23.8225C5.49564 22.9467 3.77827 21.3701 3.26305 21.0199C3.09131 21.7205 2.74783 24.348 3.26305 25.2238C3.26305 25.2238 3.26303 25.3989 3.43477 25.3989C3.95 26.2748 4.8087 26.2748 5.32391 26.0996C5.49565 26.45 5.83913 27.1506 5.83913 27.6761C5.83913 27.6761 5.83913 27.8513 5.66739 28.2017C5.66739 28.552 5.49564 28.9023 5.49564 29.2526C5.3239 29.6029 5.32391 29.9532 5.32391 30.3036C5.32391 30.6539 5.15216 30.8291 5.15216 30.8291C5.15216 30.8291 5.15218 31.1794 4.98044 31.705C4.8087 32.0553 4.80869 32.5808 4.80869 32.5808C4.63695 32.4056 4.29349 32.0553 4.12175 31.8801C4.29349 31.705 4.46521 31.3546 4.46521 31.0043C4.46521 30.6539 4.46523 30.1284 4.12175 29.6029C3.60652 28.7272 1.54565 27.6761 1.03044 27.3258C1.03044 27.6761 1.03044 28.552 1.03044 29.4277C1.20218 30.3036 1.37392 31.1794 1.71739 31.5298C2.40434 32.4056 3.26303 32.2305 3.77824 32.0553C4.12172 32.4056 4.46519 33.1062 4.63693 33.4565C4.63693 33.4565 4.63693 33.6317 4.63693 33.8069C4.63693 33.9821 4.63693 34.3324 4.63693 34.6827C4.63693 35.0331 4.63693 35.3834 4.63693 35.5586C4.63693 35.7338 4.63693 35.9089 4.63693 35.9089L4.63693 37.3102L4.63693 37.6605C4.46519 37.4854 4.29347 37.4854 4.29347 37.3102C4.12173 37.3102 4.12173 37.135 3.95 37.135C4.12173 36.9598 4.12175 36.6096 4.12175 36.2593C4.12175 35.9089 3.95 35.3834 3.60652 35.0331C2.91957 34.3324 0.686966 33.4565 0.171753 33.2814C0.171753 33.6317 0.343475 34.5076 0.515228 35.2083C0.686966 36.0841 1.03044 36.7847 1.37392 37.3102C1.37392 37.3102 1.37393 37.3102 1.54567 37.4854C2.40436 38.186 3.09129 37.8357 3.43477 37.6605C3.77826 38.0109 4.29347 38.5364 4.46521 38.8867C4.46521 38.8867 4.46521 39.0619 4.46521 39.4122C4.46521 39.7626 4.46521 40.1129 4.46521 40.4631C4.46521 40.8135 4.46519 41.1638 4.63693 41.5142C4.63693 41.8645 4.63693 42.0397 4.63693 42.0397C4.63693 42.0397 4.63695 42.5652 4.80869 42.9155C4.80869 43.2659 4.98044 43.7914 4.98044 43.7914C4.63696 43.6162 4.46523 43.441 4.12175 43.441C4.29349 43.0907 4.46521 42.0397 3.60652 41.339C2.74783 40.6383 0.515213 40.2881 0 40.2881C0.171738 40.6383 0.343491 41.339 0.686966 42.2148C1.03044 42.9155 1.54565 43.7914 1.88913 44.1417C2.74783 44.8423 3.60652 44.3168 3.95 43.9666C4.29347 44.3168 4.80869 44.6671 5.15216 45.0175C5.15216 45.0175 5.3239 45.7181 5.49564 46.2437C5.49564 46.594 5.66739 46.9443 5.66739 47.1195C5.66739 47.2947 5.83913 47.4698 5.83913 47.4698C5.83913 47.4698 6.01085 47.8202 6.01085 48.1704C6.01085 48.3456 6.1826 48.5208 6.1826 48.6959C6.1826 48.8711 6.1826 48.8711 6.1826 48.8711L6.35432 49.2214C6.18259 49.2214 6.01086 49.0463 5.83913 49.0463C5.66739 49.0463 5.66737 48.8711 5.49564 48.8711C5.49564 48.6959 5.49564 48.3456 5.49564 47.9954C5.3239 47.645 5.15216 47.2947 4.63693 46.9443C3.77824 46.4188 1.37392 46.4188 0.858688 46.4188C1.03043 46.7692 1.37392 47.4698 1.88913 48.1704C2.40436 48.8711 2.91956 49.5718 3.43477 49.7469L3.60652 49.7469C4.46521 50.0973 5.15216 49.5718 5.49564 49.2214C5.83911 49.3966 6.52608 49.7469 6.86955 50.0973C6.86955 50.0973 7.21303 50.798 7.38477 51.4987C7.5565 51.849 7.72826 52.1992 7.89999 52.5496C8.07173 52.8999 8.07172 53.0751 8.07172 53.0751C8.07172 53.0751 8.07173 53.2502 8.24347 53.2502C8.24347 53.4254 8.41519 53.6006 8.58693 53.7758C8.75867 54.1261 8.9304 54.6516 8.9304 54.6516C8.58693 54.6516 8.24345 54.4764 8.07172 54.4764C8.07172 54.3013 8.07173 53.9509 7.89999 53.6006C7.72826 53.2502 7.38477 52.8999 6.86955 52.7247C6.35434 52.5496 5.49565 52.5496 4.80869 52.5496C4.12173 52.5496 3.26305 52.7247 3.09131 52.7247C3.26305 52.8999 3.26305 53.0751 3.60652 53.4254C3.77826 53.7758 4.12173 53.9509 4.29347 54.3013C4.80869 55.002 5.49564 55.5275 6.01085 55.7026C7.04129 56.053 7.72826 55.3523 7.89999 55.002C8.07173 55.002 8.41519 55.1771 8.58693 55.3523C8.93042 55.5275 9.10217 55.5275 9.27391 55.7026C9.27391 55.7026 9.2739 55.8777 9.44563 56.0529C9.61737 56.228 9.78911 56.5784 9.96085 56.7535C10.3043 57.2791 10.6478 57.8046 10.6478 57.8046C10.6478 57.8046 10.6478 57.8046 10.8195 57.9797C10.8195 58.1549 10.9913 58.1549 11.163 58.3301C11.3347 58.6804 11.5065 58.8556 11.5065 58.8556L12.1935 58.3301Z" fill="#F5EFDB" fill-opacity="1.000000" fill-rule="nonzero"/>
	<path id="Vector" d="M66.2915 59.907C65.9481 60.2573 65.6046 60.7827 65.6046 60.7827C65.6046 60.4325 65.4328 60.0822 65.4328 59.907C65.6046 59.907 65.7763 59.7318 65.9481 59.5566C66.1198 59.3815 66.1198 59.3815 66.2915 59.2063C66.2915 59.0311 66.4633 58.856 66.4633 58.6808C66.4633 58.5056 66.4633 58.3304 66.4633 57.9801C66.2915 56.9291 64.5742 55.3527 64.2307 55.0023C64.2307 55.1775 64.0589 55.3527 64.0589 55.703C64.0589 56.0533 63.8872 56.4037 63.8872 56.7539C63.8872 57.1042 63.7155 57.4546 63.7155 57.6298C63.7155 57.9801 63.7155 58.1553 63.7155 58.5056C63.8872 59.5566 64.7459 59.907 65.2611 59.907C65.2611 60.4325 65.2611 61.1331 65.2611 61.4834C65.2611 61.4834 65.0894 61.6586 64.9176 62.0089C64.7459 62.1841 64.4024 62.5344 64.4024 62.5344C64.4024 62.5344 64.2307 62.7096 64.0589 62.8848C63.8872 63.0599 63.8872 63.0599 63.7155 63.2351C63.5437 63.4103 63.3719 63.5854 63.2002 63.7606C62.8568 64.111 62.5133 64.4612 62.3415 64.6364C62.1698 64.8115 61.998 64.9867 61.998 64.9867C61.998 64.6364 61.998 64.286 61.998 64.111C62.1698 64.111 62.5133 63.9358 62.8568 63.7606C63.2002 63.5854 63.372 63.0599 63.372 62.5344C63.372 61.4834 61.9981 59.5566 61.6546 59.2063C61.4828 59.3815 61.3111 60.0822 60.9676 60.6075C60.6241 61.3082 60.4524 62.0089 60.4524 62.3593C60.4524 63.4103 61.3111 63.9358 61.6546 64.111C61.6546 64.6364 61.4828 65.337 61.4828 65.6874L60.4524 66.5632C60.4524 66.5632 60.2807 66.7384 60.1089 66.7384C59.9372 66.9136 59.7654 66.9136 59.7654 66.9136C59.7654 66.9136 59.422 67.2639 58.9068 67.4391C58.735 67.6143 58.3915 67.7894 58.3915 67.7894C58.2198 67.9646 58.0481 67.9646 58.0481 67.9646C58.0481 67.6143 58.0481 67.2639 58.0481 67.0887C58.3915 67.0887 59.0785 66.9136 59.2502 66.2129C59.2502 66.0377 59.422 65.8625 59.422 65.6874C59.5937 64.6364 58.3915 62.5344 58.2198 62.0089C58.2198 62.1841 58.048 62.3593 57.8763 62.5344C57.7046 62.7096 57.5329 63.0599 57.3611 63.4103C57.0176 63.9358 56.6741 64.6364 56.6741 64.9867C56.5024 66.0377 57.1894 66.5632 57.7046 66.9136C57.5328 67.2639 57.3611 67.9646 57.1894 68.49L56.1589 69.1907C56.1589 69.1907 55.9872 69.3658 55.6437 69.3658C55.3002 69.541 54.9568 69.7162 54.6133 69.8914C54.2698 70.0665 53.7546 70.2417 53.5828 70.4169C53.2393 70.592 53.0676 70.592 53.0676 70.592C53.0676 70.2417 53.2393 69.8914 53.2393 69.7162C53.4111 69.7162 53.7546 69.7162 54.0981 69.541C54.4415 69.3658 54.785 69.0155 54.9568 68.49C55.3002 67.4391 54.4416 65.337 54.2698 64.6364C54.0981 64.8115 54.0981 64.9867 53.9263 65.1619C53.7546 65.337 53.5829 65.5122 53.2393 65.8625C52.8959 66.3881 52.3807 66.9136 52.209 67.4391C51.8655 68.49 52.5524 69.1907 52.8959 69.541C52.7242 69.8914 52.3807 70.592 52.209 70.9424C52.209 70.9424 51.8654 71.1176 51.6937 71.1176C51.522 71.1176 51.3503 71.2927 51.3503 71.2927C51.1785 71.2927 51.1785 71.2927 51.1785 71.2927L50.3198 71.6431C50.3198 71.6431 50.1481 71.6431 49.9763 71.8182C49.8046 71.8182 49.4611 71.9934 49.2894 71.9934C48.7741 72.1685 48.2589 72.3436 48.2589 72.3436C48.4307 71.9934 48.4307 71.8182 48.6024 71.4679C48.7742 71.4679 48.9459 71.4679 49.2894 71.4679C49.6328 71.4679 49.8046 71.2927 50.1481 71.1176C50.3198 70.9424 50.3198 70.7672 50.4915 70.592C50.6633 70.0665 50.6633 69.3658 50.6633 68.49C50.6633 67.7894 50.4915 66.9136 50.3198 66.7384C50.1481 66.9136 49.6328 67.2639 49.1176 67.7894C48.9459 67.9646 48.6024 68.3148 48.4307 68.49C48.2589 68.6652 48.0872 69.0155 47.9155 69.1907C47.4003 70.2417 47.9155 70.9424 48.2589 71.2927C48.0872 71.6431 47.572 72.1685 47.4002 72.5188C47.4002 72.5188 47.0568 72.5188 46.7133 72.694L46.5416 72.694C44.309 72.8691 40.7024 73.2195 40.7024 73.2195C40.7024 73.2195 36.5807 73.0443 34.5198 72.8691C34.5198 72.8691 34.5198 72.8691 34.3481 72.8691C34.1763 72.8691 34.0046 72.8691 34.0046 72.8691C33.6611 72.8691 33.3177 72.694 33.3177 72.694C32.9742 72.3438 32.6307 71.8182 32.459 71.4679C32.8024 71.1176 33.3177 70.4169 32.8024 69.3658C32.6307 69.1907 32.6307 68.8403 32.2872 68.6652C32.1155 68.49 31.772 68.1398 31.6003 67.9646C31.0851 67.4391 30.5698 67.0887 30.3981 66.9136C30.3981 67.2639 30.2263 67.9646 30.0546 68.6652C30.0546 69.3658 30.0546 70.2417 30.2263 70.7672C30.3981 70.9424 30.3981 71.1176 30.5698 71.2927C30.7416 71.4679 31.0851 71.6431 31.4285 71.6431C31.772 71.6431 31.9437 71.6431 32.1155 71.6431C32.2872 71.8182 32.2872 72.1685 32.459 72.5188C32.459 72.5188 31.9437 72.3438 31.4285 72.1686C31.2568 72.1686 30.9133 71.9934 30.7416 71.9934C30.5698 71.9934 30.3981 71.8182 30.3981 71.8182L29.5394 71.4679C29.5394 71.4679 29.5394 71.4679 29.3676 71.4679C29.3676 71.4679 29.3676 71.4679 29.1959 71.4679C29.0242 71.4679 29.0242 71.2927 28.8524 71.2927C28.509 71.1176 28.3372 71.1176 28.3372 71.1176C28.1655 70.7672 27.822 70.0665 27.6503 69.7162C27.9937 69.3658 28.6807 68.6652 28.3372 67.6143C28.1655 67.0887 27.822 66.5632 27.3068 66.0377C27.135 65.8625 26.9633 65.5122 26.6198 65.337C26.4481 65.1619 26.2763 64.9867 26.2763 64.8115C26.1046 65.337 25.2459 67.6143 25.5894 68.6652C25.7611 69.1907 26.1046 69.541 26.4481 69.7162C26.7916 69.8914 27.135 69.8914 27.3068 69.8914C27.3068 70.0665 27.4785 70.4169 27.4785 70.7672C27.4785 70.7672 27.3068 70.592 26.9633 70.592C26.6198 70.4169 26.2764 70.2417 25.9329 70.0665C25.5894 69.8914 25.2459 69.7162 24.9024 69.541C24.559 69.3658 24.3872 69.3658 24.3872 69.3658L23.3568 68.6652C23.1851 68.3149 23.0133 67.6143 22.8416 67.0887C23.1851 66.9136 23.872 66.2129 23.872 65.1619C23.872 64.6364 23.5285 64.111 23.1851 63.5854C23.0133 63.2351 22.8416 63.0599 22.6698 62.7096C22.4981 62.5344 22.3264 62.1841 22.3264 62.1841C21.9829 62.7096 20.9524 64.8115 20.9524 65.8625C20.9524 66.0377 20.9525 66.2129 21.1242 66.3881C21.4677 67.0887 21.9829 67.2639 22.3264 67.2639C22.3264 67.4391 22.3264 67.7894 22.3264 68.1398C22.3264 68.1398 22.1546 68.1398 21.9829 67.9646C21.8111 67.7894 21.6394 67.7894 21.4677 67.6143C21.1242 67.2639 20.6089 66.9136 20.6089 66.9136C20.6089 66.9136 20.4372 66.7384 20.2655 66.7384C20.0938 66.5632 19.922 66.5632 19.922 66.5632L18.5481 65.5122C18.3764 65.1619 18.3763 64.4612 18.3763 63.9358C18.7198 63.7606 19.5785 63.2351 19.5785 62.1841C19.5785 61.6586 19.4068 60.9579 19.0633 60.4325C18.8916 59.7318 18.5481 59.2063 18.3763 59.0311C18.0329 59.5566 16.659 61.3082 16.659 62.3593C16.659 62.8848 16.8307 63.2351 17.1742 63.5854C17.5177 63.7606 17.6894 63.9358 18.0329 63.9358C18.0329 64.111 18.0329 64.4612 18.0329 64.8115C18.0329 64.8115 17.8611 64.6364 17.6894 64.4613C17.5177 64.2861 17.1742 63.9358 16.8307 63.5854C16.659 63.4103 16.4872 63.2351 16.3155 63.0599C16.1437 62.8848 15.972 62.7096 15.972 62.7096C15.8003 62.5344 15.6285 62.3593 15.6285 62.3593C15.6285 62.3593 15.4568 62.1841 15.1133 61.8337C14.9416 61.6586 14.7698 61.3082 14.7698 61.3082C14.7698 60.7827 14.7698 60.2573 14.7698 59.7318C15.2851 59.7318 16.1437 59.3815 16.3155 58.3304C16.3155 58.1553 16.3155 57.8049 16.3155 57.4546C16.3155 57.1042 16.1438 56.754 16.1438 56.5789C16.1438 56.2285 15.972 55.8782 15.972 55.5278C15.972 55.1775 15.8003 55.0023 15.8003 54.8271C15.285 55.1775 13.7394 56.9291 13.5677 57.8049C13.5677 57.9801 13.5677 58.1553 13.5677 58.5056C13.5677 58.6808 13.5677 58.856 13.7394 59.0311C13.7394 59.2063 13.9111 59.2063 14.0829 59.3815C14.2546 59.5566 14.4264 59.7318 14.5981 59.7318C14.5981 59.907 14.4264 60.2573 14.4264 60.6075C14.4264 60.6075 14.0829 60.2573 13.7394 59.7318C13.3959 59.3815 13.0525 58.856 13.0525 58.856L12.3655 59.3815L12.5372 59.7318C12.3655 59.7318 12.1937 59.7318 12.022 59.7318C11.8503 59.7318 11.8503 59.7318 11.6785 59.7318C11.6785 59.5566 11.5068 59.2063 11.3351 58.856C11.1633 58.5056 10.8198 58.1553 10.3046 58.1553C9.27419 57.9801 7.04158 58.6808 6.52637 58.856C6.6981 59.0311 6.86986 59.2063 7.0416 59.3815C7.21333 59.5566 7.55681 59.907 7.90028 60.2573C8.58723 60.7827 9.27419 61.3082 9.7894 61.3082L9.96115 61.3082C10.9916 61.3082 11.3351 60.6075 11.5068 60.2573C12.022 60.4325 12.709 60.4324 13.0525 60.6075C13.0525 60.6075 13.2242 60.7827 13.3959 60.9579C13.5677 61.1331 13.7394 61.4834 14.0829 61.8337C14.2546 62.1841 14.5981 62.3593 14.7698 62.7096C14.9416 62.8848 15.1133 63.0599 15.1133 63.0599C15.1133 63.0599 15.4568 63.4103 15.6285 63.7606C15.8003 63.9358 15.972 64.111 15.972 64.111C16.1438 64.286 16.1438 64.2861 16.1438 64.2861C15.8003 64.2861 15.4568 64.4613 15.2851 64.4613C15.2851 64.2861 15.1133 63.9358 14.7698 63.5854C14.5981 63.2351 14.0829 63.0599 13.5677 63.0599C12.5372 63.0599 10.4764 64.111 9.96115 64.2861C10.3046 64.4613 10.8198 64.9867 11.6785 65.337C12.3655 65.6874 13.2242 66.0377 13.7394 66.0377C14.9416 66.0377 15.2851 65.1619 15.2851 64.6364C15.8003 64.6364 16.4872 64.6364 16.8307 64.8115C16.8307 64.8115 17.0024 64.9867 17.1742 65.1619C17.3459 65.337 17.5177 65.5122 17.8611 65.6874C18.0329 65.8625 18.3764 66.0377 18.5481 66.2129C18.7198 66.3881 18.8916 66.3881 18.8916 66.3881C18.8916 66.3881 19.235 66.5632 19.4068 66.9136C19.5785 67.0887 19.7503 67.0887 19.7503 67.2639C19.922 67.2639 19.922 67.4391 19.922 67.4391L20.0938 67.6143C19.922 67.6143 19.7503 67.7894 19.5785 67.7894C19.4068 67.7894 19.4068 67.7894 19.235 67.9646C19.0633 67.7894 18.8916 67.4391 18.7198 67.2639C18.3764 67.0887 18.0329 66.9136 17.5177 66.9136C16.4872 67.0887 14.5981 68.3149 14.0829 68.6652C14.4263 68.8403 15.1133 69.1907 15.8003 69.541C16.659 69.8914 17.3459 70.0665 18.0329 70.0665L18.2046 70.0665C19.2351 69.8914 19.4068 69.0155 19.4068 68.49C19.922 68.49 20.6089 68.3148 20.9524 68.3148C20.9524 68.3148 21.6394 68.6652 22.3264 69.1907C23.0133 69.541 23.7003 70.0665 23.7003 70.0665C23.7003 70.0665 23.872 70.0665 23.872 70.2417C24.0438 70.2417 24.2155 70.4169 24.3872 70.592C24.7307 70.7672 25.2459 70.9424 25.2459 70.9424C24.9024 71.1176 24.7307 71.2927 24.3872 71.2927C24.2155 71.1176 24.0437 70.7672 23.7003 70.592C23.3568 70.4169 23.0133 70.2417 22.3264 70.4169C21.2959 70.7672 19.7503 72.3436 19.235 72.8691C19.4068 72.8691 19.7503 73.0443 19.922 73.2195C20.2655 73.3947 20.6089 73.3947 21.1242 73.5698C21.9829 73.745 22.8416 73.745 23.3568 73.5698C24.3872 73.2195 24.559 72.1685 24.559 71.8182C25.0742 71.6431 25.7611 71.4679 26.1046 71.4679C26.1046 71.4679 26.2764 71.4679 26.4481 71.6431C26.6198 71.8182 26.9633 71.8182 27.3068 71.9934C27.822 72.1685 28.509 72.5188 28.509 72.5188C28.509 72.5188 28.5089 72.5188 28.6807 72.5188C28.8524 72.5188 29.0242 72.694 29.1959 72.694C29.5394 72.8691 29.8829 72.8691 29.8829 72.8691L30.2263 73.0443C30.0546 73.2195 29.8829 73.2195 29.8829 73.3947C29.7112 73.3947 29.7111 73.5698 29.5394 73.5698C29.3676 73.3947 29.1959 73.2195 28.6807 73.0443C28.3372 72.8691 27.822 72.8691 27.3068 73.0443C26.4481 73.5698 24.9024 75.3215 24.559 75.8469C25.2459 76.0221 27.822 76.3724 28.6807 75.8469C28.6807 75.8469 28.8524 75.847 28.8524 75.6719C29.7111 75.1464 29.5394 74.2705 29.5394 73.745C29.8828 73.5698 30.5698 73.2195 31.0851 73.2195C31.0851 73.2195 31.2568 73.2195 31.6003 73.3947C31.9438 73.5698 32.2872 73.5698 32.6307 73.745C32.9742 73.9202 33.3177 73.9202 33.6611 73.9202C34.0046 73.9202 34.1764 73.9202 34.1764 73.9202C35.2068 74.0953 36.7524 74.2705 38.1263 74.4457C38.1263 74.4457 38.2981 74.4457 38.4698 74.4457C33.8329 76.0222 32.6307 79 32.6307 79L34.6916 79C35.2068 77.2483 38.1263 75.847 40.3589 75.1464C42.4198 76.0222 45.3394 77.4235 46.0263 79L48.0872 79C48.0872 79 46.885 76.0222 42.2481 74.4457C42.2481 74.4457 42.248 74.4457 42.4198 74.4457C43.7937 74.2705 46.1981 74.0953 47.7437 73.745C47.9155 73.745 48.0872 73.745 48.2589 73.5698C48.6024 73.3947 48.9459 73.3947 49.2894 73.2195C49.6328 73.2195 49.8046 73.0443 49.8046 73.0443C50.1481 73.2195 50.835 73.3947 51.3503 73.745C51.3503 74.0953 51.1785 75.1464 52.0372 75.6719L52.209 75.6719C53.2394 76.1973 55.6437 75.847 56.3307 75.6719C55.9872 75.1464 54.6133 73.2195 53.5828 72.8691C53.0676 72.694 52.5524 72.694 52.209 72.8691C51.8655 73.0443 51.522 73.2195 51.3503 73.3947C51.1785 73.3947 51.1785 73.2195 51.0067 73.2195C50.835 73.0443 50.6633 73.0443 50.6633 72.8691L51.0067 72.694C51.0067 72.694 51.3503 72.5188 51.6937 72.5188C51.8654 72.5188 52.0372 72.3436 52.209 72.3436C52.3807 72.3436 52.3807 72.3436 52.3807 72.3436C52.3807 72.3436 52.8959 72.1685 53.5828 71.8182C53.9263 71.6431 54.0981 71.6431 54.4415 71.4679C54.6133 71.2927 54.785 71.2927 54.785 71.2927C55.3002 71.2927 55.9872 71.6431 56.3307 71.6431C56.3307 72.1685 56.3307 73.0443 57.5328 73.3947C58.0481 73.5698 58.9068 73.5698 59.7654 73.3947C60.1089 73.3947 60.6241 73.2195 60.9676 73.0443C61.3111 72.8691 61.6546 72.8691 61.6546 72.694C61.1394 72.1686 59.5937 70.592 58.5633 70.2417C58.0481 70.0665 57.5328 70.2417 57.1894 70.4169C56.8459 70.592 56.6742 70.9424 56.5024 71.1176C56.3307 70.9424 55.9872 70.9424 55.6437 70.7672C55.6437 70.7672 55.9872 70.592 56.3307 70.4169C56.5024 70.2417 56.6742 70.2417 56.8459 70.0665C57.0176 70.0665 57.0176 69.8914 57.0176 69.8914C57.0176 69.8914 57.7046 69.541 58.3915 69.0155C59.0785 68.6652 59.7654 68.1398 59.7654 68.1398C60.2807 68.1398 60.9676 68.1398 61.3111 68.3148C61.3111 68.6652 61.4828 69.541 62.5133 69.8914L62.685 69.8914C63.2002 70.0665 64.0589 69.7162 64.9176 69.541C65.7763 69.1907 66.4633 68.8403 66.635 68.6652C66.1198 68.3149 64.2307 66.9136 63.2002 66.9136C62.685 66.9136 62.1698 67.0887 61.998 67.2639C61.6546 67.4391 61.4828 67.7894 61.4828 67.9646C61.3111 67.9646 61.3111 67.9646 61.1394 67.7894C60.9676 67.7894 60.7959 67.6143 60.6241 67.6143L60.9676 67.4391C60.9676 67.4391 60.9676 67.4391 61.1394 67.2639C61.3111 67.2639 61.3111 67.0887 61.4828 66.9136C61.8263 66.7384 61.998 66.3881 61.998 66.3881C61.998 66.3881 62.1698 66.2129 62.3415 66.2129C62.5133 66.0377 62.8568 65.8625 63.0285 65.6874C63.2002 65.5122 63.5437 65.337 63.7155 65.1619C63.8872 64.9867 64.0589 64.8115 64.0589 64.8115C64.4024 64.6364 65.2611 64.6364 65.6046 64.6364C65.7763 64.9867 66.1198 66.0377 67.1502 66.0377C67.6654 66.0377 68.5241 65.6874 69.2111 65.337C69.898 64.9867 70.585 64.4613 70.9285 64.2861C70.4133 63.9358 68.3524 62.8848 67.322 63.0599C66.8067 63.0599 66.2915 63.2351 66.1198 63.5854C65.7763 63.9358 65.7763 64.2861 65.6046 64.4613C65.4328 64.4613 65.0894 64.4613 64.7459 64.2861C64.7459 64.2861 64.7459 64.286 64.9176 64.111C65.0894 63.9358 65.2611 63.7606 65.2611 63.7606C65.6046 63.4103 65.9481 63.0599 65.9481 63.0599C65.9481 63.0599 66.1198 62.8848 66.2915 62.7096C66.4633 62.5344 66.8067 62.1841 66.9785 61.8337C67.1502 61.4834 67.4937 61.3082 67.6655 60.9579C67.8372 60.7827 68.0089 60.6075 68.0089 60.6075C68.3524 60.4324 69.0393 60.2573 69.5546 60.2573C69.7263 60.6075 70.2415 61.4834 71.1002 61.3082L71.272 61.3082C71.7872 61.1331 72.4741 60.7827 73.1611 60.2573C73.5046 59.907 73.8481 59.7318 74.0198 59.5566C74.1915 59.3815 74.535 59.0311 74.535 59.0311C74.0198 58.856 71.7872 58.1553 70.7567 58.3304C70.2415 58.5056 69.898 58.6808 69.7263 59.0311C69.5546 59.3815 69.3828 59.7318 69.3828 59.907C69.2111 59.907 69.2111 59.907 69.0393 59.907C68.8676 59.907 68.6959 59.907 68.5241 59.907L68.6959 59.5566L68.0089 59.0311C66.9785 59.0311 66.635 59.5566 66.2915 59.907Z" fill="#F5EFDB" fill-opacity="1.000000" fill-rule="nonzero"/>
	<path id="Vector" d="M73.5043 46.9442C73.6761 46.2435 73.8478 45.718 73.8478 45.718C74.1913 45.3677 74.7065 45.0175 75.05 44.6671C75.3935 45.0175 76.2522 45.5428 77.1109 44.8423C77.6261 44.4919 77.9695 43.7913 78.313 42.9154C78.6565 42.2147 78.8282 41.339 79 40.9886C78.313 41.1638 76.0804 41.514 75.3935 42.0396C74.5348 42.7402 74.7065 43.7913 74.8783 44.1416C74.7065 44.3168 74.363 44.4919 74.0196 44.4919C74.0196 44.4919 74.0195 44.1416 74.1913 43.6161C74.1913 43.0906 74.363 42.7402 74.363 42.7402C74.363 42.7402 74.363 42.5651 74.363 42.2147C74.363 41.8644 74.363 41.514 74.5348 41.1638C74.5348 40.8135 74.5348 40.4631 74.5348 40.1128C74.5348 39.7625 74.5348 39.5873 74.5348 39.5873C74.7065 39.2369 75.2217 38.7114 75.5652 38.3611C75.9087 38.5363 76.7674 38.8866 77.4543 38.1859C77.4543 38.1859 77.6261 38.1859 77.6261 38.0107C77.9695 37.6604 78.313 36.7847 78.4847 35.9088C78.6565 35.033 78.8282 34.3323 78.8282 33.9819C78.313 34.1571 76.0804 34.8578 75.3935 35.7336C75.05 36.084 74.8783 36.6095 74.8783 36.9598C74.8783 37.3102 75.05 37.6604 75.05 37.8356C75.05 37.8356 74.8782 38.0107 74.7065 38.0107C74.5348 38.1859 74.363 38.1859 74.363 38.3611L74.363 38.0107L74.363 36.6095C74.363 36.6095 74.363 36.4343 74.363 36.2592C74.363 36.084 74.363 35.7336 74.363 35.3833C74.363 35.033 74.363 34.6826 74.363 34.5074C74.363 34.3323 74.363 34.1571 74.363 34.1571C74.5348 33.8068 74.8783 33.1062 75.2217 32.7559C75.5652 32.931 76.5956 33.1062 77.2826 32.2303C77.6261 31.88 77.7978 31.0042 77.9696 30.1283C78.1413 29.2526 78.1413 28.3767 77.9696 28.0264C77.4543 28.3767 75.3935 29.4277 74.7065 30.3035C74.363 30.829 74.363 31.1793 74.363 31.7048C74.363 32.0552 74.5348 32.4055 74.7065 32.5807C74.5348 32.7559 74.363 32.931 74.0196 33.2814C74.0196 33.2814 74.0196 32.7559 73.8478 32.4055C73.8478 32.0552 73.6761 31.5297 73.6761 31.5297C73.6761 31.5297 73.6761 31.3545 73.6761 31.0042C73.6761 30.6538 73.5043 30.3035 73.5043 29.9531C73.5043 29.6028 73.3326 29.2526 73.3326 28.9022C73.3326 28.5519 73.1609 28.3767 73.1609 28.3767C73.3326 28.0264 73.5043 27.3257 73.8478 26.8002C74.1913 26.8002 75.2217 26.9753 75.7369 26.0995L75.7369 25.9243C76.2522 25.0486 75.9087 22.421 75.7369 21.7205C75.2217 22.0707 73.3326 23.472 72.9891 24.5231C72.8174 25.0486 72.8174 25.5741 72.9891 25.9243C73.1609 26.2747 73.3326 26.625 73.5043 26.8002C73.5043 26.9753 73.3326 26.9753 73.3326 27.1505C73.1609 27.3257 73.1609 27.5009 72.9891 27.5009L72.8174 27.1505C72.8174 27.1505 72.6457 26.8002 72.6457 26.4498C72.6457 26.2747 72.4739 26.0995 72.4739 25.9243C72.4739 25.7493 72.4739 25.7493 72.4739 25.7493C72.4739 25.7493 72.3022 25.2238 71.9587 24.5231C71.787 24.1727 71.787 23.9976 71.6152 23.6472C71.4435 23.472 71.4435 23.2969 71.4435 23.2969C71.4435 22.7714 71.787 22.2458 71.787 21.7205C72.3022 21.7205 73.1609 21.7205 73.5043 20.4943C73.6761 19.9688 73.6761 19.0929 73.5043 18.217C73.5043 17.8668 73.3326 17.3413 73.1609 16.991C72.9891 16.6406 72.9891 16.2903 72.8174 16.2903C72.3022 16.8158 70.7565 18.3922 70.413 19.4432C70.2413 19.9688 70.4131 20.4943 70.5848 20.8446C70.7565 21.1949 71.1 21.3701 71.2717 21.5453C71.1 21.7205 71.1 22.0707 70.9283 22.421C70.9283 22.421 70.7565 22.0707 70.5848 21.5453C70.4131 21.3701 70.4131 21.1949 70.2413 21.0198C70.2413 20.8446 70.0696 20.8446 70.0696 20.8446C70.0696 20.8446 69.7261 20.1439 69.3826 19.4432C69.0392 18.7426 68.5239 18.042 68.5239 18.042C68.5239 17.5165 68.5239 16.8158 68.6956 16.4655C69.0391 16.4655 69.8978 16.2903 70.2413 15.2393L70.2413 15.0641C70.4131 14.5386 70.0695 13.6628 69.8978 12.787C69.5544 11.9111 69.2109 11.2104 69.0391 11.0353C68.6956 11.5608 67.3217 13.4877 67.15 14.5386C67.15 15.0641 67.3217 15.5896 67.4935 15.7648C67.6652 16.1151 68.0087 16.2903 68.1804 16.2903C68.1804 16.4655 68.1805 16.4655 68.0087 16.6406C68.0087 16.8158 67.8369 16.991 67.8369 17.1661L67.6652 16.8158C67.6652 16.8158 67.6652 16.8158 67.4935 16.6406C67.4935 16.4655 67.3217 16.4655 67.15 16.2903C66.9783 15.9399 66.6348 15.7648 66.6348 15.7648C66.6348 15.7648 66.463 15.5896 66.463 15.4144C66.2913 15.2393 66.1196 14.8889 65.9478 14.7137C65.7761 14.5386 65.6044 14.1882 65.4326 14.0132C65.2609 13.838 65.2609 13.6628 65.2609 13.6628C65.0891 13.3125 65.0891 12.4366 65.0891 12.0863C65.4326 11.9111 66.463 11.5608 66.463 10.5098C66.463 9.98438 66.1196 9.10852 65.7761 8.40784C65.4326 7.70715 64.9174 7.00647 64.7457 6.65613C64.4022 7.18164 63.3717 9.28369 63.5435 10.3346C63.5435 10.8601 63.7152 11.3856 64.0587 11.5608C64.4022 11.9111 64.7457 11.9111 64.9174 12.0863C64.9174 12.2615 64.9174 12.6118 64.7457 12.9622C64.7457 12.9622 64.7457 12.9622 64.5739 12.787C64.4022 12.6118 64.4022 12.4366 64.2305 12.4366C63.887 12.0863 63.5435 11.9111 63.5435 11.9111C63.5435 11.9111 63.3718 11.736 63.2 11.5608C63.0283 11.3856 62.6848 11.0353 62.3413 10.8601C61.9978 10.6849 61.8261 10.3346 61.4826 10.1595C61.3109 9.98438 61.1392 9.8092 61.1392 9.8092C60.9674 9.45886 60.7957 8.75818 60.7957 8.23267C61.1392 8.0575 61.9978 7.53198 61.8261 6.65613L61.8261 6.48096C61.6544 5.95557 61.3109 5.25488 60.7957 4.5542C60.4522 4.20386 60.2805 3.85352 59.937 3.67834C59.7653 3.50317 59.4218 3.15283 59.4218 3.15283C59.25 3.67834 58.563 5.95557 58.7348 7.00647C58.9065 7.53198 59.0783 7.88232 59.4218 8.0575C59.7653 8.23267 60.1087 8.40784 60.2805 8.40784C60.2805 8.58301 60.2805 8.58301 60.2805 8.75818C60.2805 8.93335 60.2805 9.10852 60.2805 9.28369L60.1087 9.10852C60.1087 9.10852 59.7652 8.93335 59.5935 8.75818C59.4218 8.58301 59.25 8.58301 59.25 8.40784C59.0783 8.40784 59.0783 8.23267 59.0783 8.23267C59.0783 8.23267 58.5631 7.88232 58.0479 7.53198C57.7044 7.35681 57.5327 7.18164 57.3609 7.00647C57.1892 6.8313 57.0174 6.8313 57.0174 6.8313C56.8457 6.65613 56.8457 6.30579 56.674 6.13074C56.5022 5.7804 56.5022 5.60522 56.3305 5.43005C56.674 5.25488 57.5326 4.5542 57.1891 3.50317C57.0174 2.97766 56.5022 2.2771 55.8152 1.75159C55.4718 1.40125 55.1283 1.22607 54.9565 1.0509C54.6131 0.875732 54.4413 0.700562 54.2696 0.525391C54.2696 0.875732 54.0979 1.57642 54.0979 2.2771C54.0979 2.97766 54.0979 3.85352 54.2696 4.37903C54.4413 4.90454 54.7848 5.25488 55.1283 5.43005C55.4718 5.60522 55.8152 5.60522 55.987 5.60522C55.987 5.7804 56.1587 6.13074 56.1587 6.48096C56.1587 6.48096 54.6131 5.95557 54.0979 5.7804C53.9261 5.60522 53.2392 5.43005 52.3805 5.07971C52.3805 4.72937 52.5522 3.67834 51.35 3.15283C50.4914 2.80249 48.087 3.15283 47.5718 3.15283C47.9153 3.67834 49.2892 5.60522 50.1479 5.95557C51.1783 6.30591 51.8653 5.7804 52.037 5.43005C53.5826 6.30579 55.3 7.18164 55.4718 7.35681C55.8152 7.53198 56.1588 7.70715 56.5022 7.88232C56.8457 8.0575 57.0174 8.23267 57.0174 8.23267C56.6739 8.40784 56.5022 8.40784 56.1587 8.58301C55.987 8.40784 55.8152 8.0575 55.4718 7.88232C55.1283 7.70715 54.7848 7.70715 54.2696 7.88232C53.4109 8.23267 52.037 10.1594 51.6935 10.6849C51.8653 10.6849 52.037 10.6849 52.3805 10.6849C52.7239 10.6849 52.8957 10.6849 53.2392 10.8601C53.9261 10.8601 54.6131 10.8601 55.1283 10.6849C56.1587 10.3346 56.3305 9.45886 56.3305 8.93335C56.8457 8.75818 57.3609 8.75818 57.8761 8.75818C57.8761 8.75818 58.2196 8.93335 58.3913 9.10852C58.563 9.10852 58.563 9.28369 58.7348 9.28369C58.9065 9.28369 58.9066 9.45886 58.9066 9.45886L59.5935 9.98438C59.5935 9.98438 59.937 10.3346 60.4522 10.6849C60.7957 11.0353 61.3109 11.3856 61.3109 11.3856C60.9674 11.3856 60.6239 11.5608 60.4522 11.5608C60.4522 11.3856 60.2805 11.2104 60.1087 11.0353C59.937 10.8601 59.937 10.8601 59.7652 10.6849C59.5935 10.6849 59.4218 10.5098 59.25 10.5098C59.0783 10.5098 58.9066 10.5098 58.5631 10.5098C57.5327 10.6849 55.987 12.4366 55.6435 12.787C55.8152 12.787 55.987 12.9622 56.3305 12.9622C56.674 12.9622 57.0174 13.1373 57.3609 13.1373C57.7044 13.1373 58.0479 13.3125 58.2196 13.3125C58.5631 13.3125 58.7348 13.3125 59.0783 13.3125C60.1087 13.1373 60.4522 12.2615 60.4522 11.736C60.9674 11.736 61.6544 11.736 61.9979 11.736C61.9979 11.736 62.1696 11.9111 62.5131 12.0863C62.6848 12.2615 63.0283 12.6118 63.0283 12.6118C63.0283 12.6118 63.2 12.787 63.3718 12.9622C63.5435 13.1373 63.5435 13.1373 63.7152 13.3125C63.887 13.4877 64.0587 13.6628 64.2305 13.838C64.5739 14.1882 64.7457 14.5386 65.0891 14.7137C65.2609 14.8889 65.4326 15.0641 65.4326 15.0641C65.0891 15.0641 64.7457 15.0641 64.5739 15.0641C64.5739 14.8889 64.4022 14.5386 64.2305 14.1882C64.0587 13.838 63.5435 13.6628 63.0283 13.6628C61.9978 13.6628 60.1087 15.0641 59.7652 15.4144C59.937 15.5896 60.6239 15.7648 61.1392 16.1151C61.8261 16.4655 62.5131 16.6406 62.8565 16.6406C63.887 16.6406 64.4022 15.7648 64.5739 15.4144C65.0891 15.4144 65.7761 15.5896 66.1196 15.5896L66.9783 16.6406C66.9783 16.6406 67.15 16.8158 67.15 16.991C67.3217 17.1661 67.3217 17.3413 67.3217 17.3413C67.3217 17.3413 67.6652 17.6917 67.8369 18.217C68.0087 18.3922 68.1804 18.7426 68.1804 18.7426C68.3522 18.9177 68.3522 19.0929 68.3522 19.0929C68.0087 19.0929 67.6652 19.0929 67.4935 19.0929C67.4935 18.7426 67.3217 18.042 66.6348 17.8668C66.463 17.8668 66.2913 17.6917 66.1196 17.6917C65.0891 17.5165 63.0283 18.7426 62.5131 18.9177C62.6848 18.9177 62.8565 19.0929 63.0283 19.2681C63.2 19.4432 63.5435 19.6184 63.887 19.7936C64.4022 20.1439 65.0891 20.4943 65.4326 20.4943C66.463 20.6694 66.9783 19.9688 67.3217 19.4432C67.6652 19.6184 68.3522 19.7936 68.8674 19.9688L69.5544 21.0198C69.5544 21.0198 69.7261 21.1949 69.7261 21.5453C69.8978 21.8956 70.0696 22.2458 70.2413 22.5962C70.4131 22.9465 70.5848 23.472 70.7565 23.6472C70.9283 23.9976 70.9283 24.1727 70.9283 24.1727C70.5848 24.1727 70.2413 23.9976 70.0696 23.9976C70.0696 23.8224 70.0695 23.472 69.8978 23.1217C69.7261 22.7714 69.3826 22.421 68.8674 22.2458C67.837 21.8956 65.7761 22.7714 65.0891 22.9465C65.4326 23.2969 66.8065 24.6982 67.8369 25.0486C68.8674 25.3989 69.5544 24.6982 69.8978 24.3479C70.2413 24.5231 70.9283 24.8734 71.2717 25.0486C71.2717 25.0486 71.4435 25.3989 71.4435 25.5741C71.4435 25.7491 71.6152 25.9243 71.6152 25.9243C71.6152 26.0995 71.6152 26.0995 71.6152 26.0995L71.9587 26.9753C71.9587 26.9753 71.9587 27.1505 72.1304 27.3257C72.1304 27.5009 72.3022 27.8512 72.3022 28.0264C72.4739 28.5519 72.6457 29.0774 72.6457 29.0774C72.3022 28.9022 72.1304 28.9022 71.787 28.7271C71.787 28.5519 71.787 28.3767 71.787 28.0264C71.787 27.676 71.6152 27.5009 71.4435 27.1505C71.2717 26.9753 71.1 26.9753 70.9283 26.8002C70.4131 26.625 69.7261 26.625 68.8674 26.625C68.1805 26.625 67.3217 26.8002 67.15 26.9753C67.3217 27.1505 67.6652 27.676 68.1804 28.2015C68.3522 28.3767 68.6956 28.7271 68.8674 28.9022C69.0392 29.0774 69.3826 29.2526 69.5544 29.4277C70.5848 29.9531 71.2717 29.4277 71.6152 29.0774C71.9587 29.2526 72.4739 29.778 72.8174 29.9531C72.8174 29.9531 72.8174 30.3035 72.9891 30.6538C72.9891 30.829 72.9891 31.0042 72.9891 31.0042C72.9891 31.1793 72.9891 31.1793 72.9891 31.1793C72.9891 31.1793 72.9891 31.3545 73.1609 31.7048C73.1609 32.0552 73.3326 32.4055 73.3326 32.931C73.3326 33.4565 73.5043 33.8068 73.5043 34.1571C73.5043 34.5074 73.5043 34.6826 73.5043 34.6826C73.1609 34.5074 72.9891 34.3323 72.8174 34.1571C72.8174 33.9819 72.9891 33.6316 72.9891 33.2814C72.9891 32.931 72.8174 32.5807 72.3022 32.2303C71.4435 31.7048 69.2109 31.7048 68.5239 31.7048C68.6957 31.88 68.8674 32.5807 69.2109 33.1062C69.5544 33.6316 69.8978 34.3323 70.413 34.5074C71.2717 35.033 72.1304 34.6826 72.4739 34.5074C72.8174 34.8578 73.3326 35.2081 73.5043 35.5585C73.5043 35.5585 73.5043 35.9088 73.5043 36.2592C73.5043 36.6095 73.5043 36.9598 73.5043 36.9598L73.5043 37.8356C73.5043 37.8356 73.5043 38.3611 73.5043 38.8866C73.5043 39.0618 73.5043 39.4121 73.5043 39.5873C73.5043 39.7625 73.5043 39.9376 73.5043 39.9376C73.3326 39.7625 72.9891 39.5873 72.8174 39.4121C72.9891 39.0618 73.1609 38.5363 72.9891 37.8356C72.8174 37.6604 72.8174 37.4854 72.6457 37.3102C71.9587 36.6095 69.5544 36.2592 69.0391 36.2592C69.0391 36.6095 69.3826 37.135 69.5544 37.8356C69.7261 38.3611 70.0695 39.0618 70.413 39.4121C71.1 40.1128 72.1304 39.9376 72.4739 39.7625C72.8174 40.1128 73.1609 40.6383 73.3326 40.9886C73.3326 40.9886 73.3326 40.9886 73.3326 41.1638C73.3326 41.3389 73.3326 41.5142 73.3326 41.6892C73.3326 42.0396 73.3326 42.3899 73.3326 42.3899C73.3326 42.3899 73.3326 42.5651 73.3326 42.9154C73.3326 43.2657 73.1609 43.6161 73.1609 44.1416C73.1609 44.4919 72.9891 45.0175 72.9891 45.3677C72.9891 45.718 72.8174 45.8932 72.8174 45.8932C72.6457 45.718 72.4739 45.3678 72.3022 45.1926C72.6457 44.8423 72.9891 43.9664 72.3022 43.0906C71.6152 42.2147 69.5544 41.5142 68.8674 41.5142C68.8674 41.6892 69.0391 42.3899 69.2109 43.0906C69.3826 43.7913 69.5544 44.4919 69.8978 44.8423C70.5848 45.718 71.4435 45.5428 71.9587 45.5428C72.1304 45.8932 72.4739 46.5939 72.6457 46.9442L72.3022 48.1704C72.3022 48.1704 72.3022 48.3456 72.1304 48.5208C72.1304 48.6959 71.9587 48.8711 71.9587 48.8711C71.9587 48.8711 71.787 49.3965 71.6152 49.922C71.6152 50.0972 71.4435 50.4475 71.4435 50.6227C71.4435 50.7979 71.2717 50.973 71.2717 50.973C71.1 50.7979 70.9283 50.4475 70.7565 50.2723C71.1 50.0972 71.4435 49.5717 71.2717 48.8711C71.2717 48.6959 71.1 48.5208 71.1 48.3456C70.5848 47.4697 68.5239 46.4187 68.0087 46.2435C68.0087 46.4187 68.0087 46.5939 68.0087 46.9442C68.0087 47.2946 68.0087 47.6449 68.0087 47.9952C68.0087 48.6959 68.1805 49.3965 68.3522 49.7468C68.8674 50.6227 69.7261 50.7979 70.2413 50.6227C70.4131 50.973 70.7565 51.6737 70.7565 52.1992L70.2413 53.4253C70.2413 53.4253 70.2413 53.4253 70.2413 53.6005C70.2413 53.6005 70.0696 53.7756 70.0696 53.9508C69.8978 54.3011 69.7261 54.6515 69.5544 55.0018C69.3826 55.3522 69.2109 55.7025 69.0391 56.0529C68.8674 56.4032 68.6956 56.5784 68.6956 56.5784C68.5239 56.228 68.5239 56.0529 68.3522 55.7025C68.5239 55.5273 68.8674 55.3522 69.0391 55.0018C69.2109 54.6515 69.2109 54.3011 69.0391 53.7756C68.6956 52.8999 66.8065 51.4985 66.2913 51.1482C66.2913 51.3234 66.2913 51.4985 66.2913 51.8489C66.2913 52.1992 66.2913 52.3744 66.1196 52.7247C66.1196 53.4253 66.1196 54.126 66.2913 54.6515C66.6348 55.7025 67.4935 55.8777 68.0087 55.8777C68.1805 56.4032 68.1804 56.9287 68.1804 57.4541C68.1804 57.4541 68.0087 57.8044 67.8369 57.9796C67.6652 58.1548 67.6652 58.33 67.6652 58.33C67.6652 58.5051 67.4935 58.5051 67.4935 58.5051L66.9783 59.2058L67.6652 59.7313C67.6652 59.7313 67.837 59.381 68.0087 59.2058C68.1805 59.0306 68.1805 58.8555 68.3522 58.8555C68.3522 58.6803 68.5239 58.6803 68.5239 58.6803C68.5239 58.6803 68.8674 58.1548 69.2109 57.6293C69.3826 57.2789 69.5544 57.1038 69.7261 56.9287C69.8978 56.7535 69.8978 56.5784 69.8978 56.5784C70.0695 56.4032 70.4131 56.4032 70.5848 56.228C70.9283 56.0529 71.1 56.0529 71.2717 55.8777C71.4435 56.228 72.1304 57.1038 73.1609 56.5784C73.6761 56.4032 74.363 55.8777 74.8783 55.177C75.2217 54.8267 75.3935 54.4763 75.5652 54.3011C75.7369 53.9508 75.9087 53.7756 76.0804 53.6005C75.7369 53.6005 75.05 53.4253 74.363 53.4253C73.6761 53.4253 72.8174 53.4253 72.3022 53.6005C71.787 53.7756 71.4435 54.126 71.2717 54.4763C71.1 54.8267 71.1 55.177 71.1 55.3522C70.9283 55.3522 70.5848 55.5273 70.2413 55.5273C70.2413 55.5273 70.4131 55.177 70.5848 54.8267C70.7565 54.6515 70.7565 54.4763 70.9283 54.3011C70.9283 54.126 71.1 54.126 71.1 54.126C71.1 54.126 71.1 53.9508 71.2717 53.6005C71.4435 53.2501 71.6152 52.8999 71.787 52.5496C72.1304 51.8489 72.3022 51.1482 72.3022 51.1482C72.6457 50.7979 73.1609 50.4475 73.6761 50.2723C74.0196 50.6227 74.5348 51.1482 75.5652 50.7979L75.7369 50.7979C76.2522 50.6227 76.7674 49.922 77.2826 49.2213C77.7978 48.5208 78.1413 47.8201 78.313 47.4697C77.6261 47.4697 75.3935 47.4697 74.5348 47.9952C74.0196 48.3456 73.8478 48.6959 73.6761 49.0463C73.5044 49.3965 73.6761 49.7468 73.6761 49.922C73.5044 49.922 73.5043 50.0972 73.3326 50.0972C73.1609 50.0972 72.9891 50.2723 72.8174 50.2723L72.9891 49.922C72.9891 49.922 72.9891 49.922 72.9891 49.7468C72.9891 49.5717 73.1609 49.3965 73.1609 49.2213C73.3326 48.8711 73.3326 48.5208 73.3326 48.5208C73.3326 48.5208 73.3326 48.3456 73.5043 48.1704C73.3326 47.4697 73.3326 47.2946 73.5043 46.9442Z" fill="#F5EFDB" fill-opacity="1.000000" fill-rule="nonzero"/>
	<path id="1" d="M33.3962 53C33.3375 53 33.3082 52.9086 33.3082 52.7256C33.3082 52.5426 33.3375 52.451 33.3962 52.451C34.6876 52.451 35.6562 52.3749 36.3019 52.2224C36.9769 52.0394 37.4612 51.7345 37.7547 51.3076C38.0482 50.8501 38.195 50.1793 38.195 49.2949L38.195 32.2792C38.195 30.2056 37.7254 29.1688 36.7862 29.1688C36.0818 29.1688 34.9518 29.7482 33.3962 30.907L33.3082 30.9526C33.1908 30.9526 33.1027 30.8917 33.044 30.7698C32.9853 30.6172 32.9853 30.5105 33.044 30.4496L41.5409 24.0914C41.6583 24.0305 41.761 24 41.8491 24C41.9077 24 41.9665 24.0305 42.0251 24.0914C42.0839 24.1525 42.1132 24.2135 42.1132 24.2744L42.1132 49.2949C42.1132 50.2097 42.2453 50.8806 42.5094 51.3076C42.7736 51.7345 43.2285 52.0394 43.8742 52.2224C44.5493 52.3749 45.5472 52.451 46.8679 52.451C46.956 52.451 47 52.5426 47 52.7256C47 52.9086 46.956 53 46.8679 53C45.6939 53 44.7694 52.9847 44.0943 52.9542L40.1321 52.9086L36.3019 52.9542C35.5975 52.9847 34.6289 53 33.3962 53Z" fill="#AAAAAA" fill-opacity="1.000000" fill-rule="nonzero"/>
</svg>
