<svg width="78.999908" height="79.000000" viewBox="0 0 78.9999 79" fill="none" xmlns="http://www.w3.org/2000/svg" xmlns:xlink="http://www.w3.org/1999/xlink">
	<desc>
			Created with Pixso.
	</desc>
	<defs/>
	<path id="Vector" d="M73.712 54.3329C73.5518 54.0105 73.2313 53.688 72.9108 53.5269C72.4301 53.0431 71.9494 52.882 71.9494 52.882C71.9494 52.882 71.4686 52.7207 70.8276 52.7207C70.5072 52.7207 70.1867 52.7207 69.706 52.7207C69.3855 52.7207 68.9048 52.882 68.5843 53.0432C68.2638 53.2043 67.9433 53.3656 67.7831 53.5269C67.3023 53.8492 66.9818 54.1718 66.6613 54.4941C66.5011 54.6554 66.5011 54.8167 66.3409 54.8167C66.3409 54.9779 66.1806 54.9778 66.1806 54.9778C66.1806 54.9778 66.6613 55.139 67.3023 55.3003C67.6228 55.3003 67.9433 55.4615 68.424 55.4615C68.7445 55.4615 69.2252 55.4615 69.706 55.3003C70.0264 55.139 70.3469 54.9779 70.6674 54.8167C71.1482 54.4941 71.4686 54.0105 71.7891 53.6881C72.1096 53.3656 72.1096 53.0432 72.1096 53.0432C72.1096 53.0432 71.9494 53.3656 71.9494 53.8492C71.7891 54.333 71.7891 54.8167 71.7891 55.4615C71.7891 55.7839 71.7891 56.1064 71.9494 56.5901C72.1096 57.0737 72.2698 57.3962 72.4301 57.7186C72.5903 58.0411 72.9108 58.3635 73.0711 58.686C73.5518 59.1697 73.8723 59.4921 73.8723 59.4921C73.8723 59.4921 73.8723 59.4921 74.0325 59.3309C74.0325 59.1697 74.1928 59.0084 74.353 58.8472C74.5133 58.3635 74.6735 57.7186 74.6735 57.0737C74.6735 56.7513 74.6735 56.2676 74.5132 55.9452C74.1928 54.9778 74.0325 54.6554 73.712 54.3329Z" fill="#F5EFDB" fill-opacity="1.000000" fill-rule="nonzero"/>
	<path id="Vector" d="M76.2757 49.9799C76.1155 49.4962 75.795 49.1737 75.4745 48.8512C75.154 48.5288 74.8335 48.3676 74.6733 48.2063C74.0323 47.8839 73.7118 47.7227 73.7118 47.7227C73.7118 47.7227 73.2311 47.7227 72.5901 47.7227C72.2696 47.7227 71.9492 47.7227 71.4684 47.8839C71.1479 48.0452 70.6672 48.0452 70.3467 48.3676C70.0262 48.5288 69.7057 48.8512 69.3853 49.0125C69.0648 49.335 68.9045 49.4961 68.7443 49.8186C68.584 50.141 68.4238 50.3022 68.4238 50.4635C68.2635 50.6248 68.2635 50.786 68.2635 50.786C68.2635 50.786 68.7443 50.9471 69.3853 50.9471C70.0262 50.9471 70.8274 50.9471 71.6287 50.6248C71.9491 50.4635 72.2696 50.141 72.5901 49.8186C72.9106 49.4961 73.0708 49.1737 73.2311 49.0125C73.5516 48.5288 73.7118 48.0452 73.7118 47.8839C73.7118 47.8839 73.5516 48.3676 73.5516 49.0125C73.5516 49.335 73.5516 49.6573 73.5516 50.141C73.5516 50.4635 73.7118 50.9471 73.8721 51.2697C74.1926 52.0757 74.8335 52.7207 75.3143 53.2043C75.795 53.688 76.2757 53.8492 76.2757 53.8492C76.2757 53.8492 76.2757 53.688 76.4359 53.5267C76.4359 53.3655 76.5962 53.0431 76.5962 52.7206C76.5962 52.3982 76.5962 51.9146 76.5962 51.4308C76.5962 50.9471 76.436 50.4635 76.2757 49.9799Z" fill="#F5EFDB" fill-opacity="1.000000" fill-rule="nonzero"/>
	<path id="Vector" d="M77.8785 45.6267C77.7183 45.1431 77.558 44.8207 77.3978 44.3369C77.0773 44.0145 76.9171 43.692 76.5966 43.3696C76.2761 43.0471 75.9556 42.8859 75.6351 42.8859C74.9941 42.5635 74.5134 42.5635 74.5134 42.5635C74.5134 42.5635 74.0327 42.5635 73.3917 42.7247C73.0712 42.7247 72.7508 42.8859 72.27 43.0471C71.9496 43.2084 71.4688 43.3695 71.1483 43.692C70.8279 44.0144 70.5074 44.1757 70.3471 44.4982C70.1869 44.8206 70.0266 45.1431 69.8664 45.3042C69.7061 45.788 69.5459 46.2716 69.5459 46.2716C69.5459 46.2716 70.0266 46.2716 70.6676 46.2716C71.3086 46.2716 72.1098 46.1104 72.911 45.4655C73.2315 45.1431 73.552 44.9818 73.7122 44.6594C73.8725 44.3369 74.0327 44.0144 74.1929 43.692C74.3532 43.0471 74.5134 42.5635 74.5134 42.5635C74.5134 42.5635 74.5134 43.0471 74.5134 43.692C74.5134 44.0144 74.6737 44.3369 74.6737 44.8206C74.8339 45.1431 74.9942 45.6267 75.1544 45.9492C75.6351 46.7552 76.2761 47.239 76.9171 47.5614C77.558 47.8839 77.8785 48.045 77.8785 48.045C77.8785 48.045 78.0388 47.5614 78.0388 46.7552C78.0388 46.4329 78.0388 46.1104 77.8785 45.6267Z" fill="#F5EFDB" fill-opacity="1.000000" fill-rule="nonzero"/>
	<path id="Vector" d="M78.8397 41.4349C78.8397 40.9512 78.6794 40.3063 78.3589 39.6614C78.1987 39.339 78.0384 39.0166 77.718 38.6941C77.077 38.0492 76.2758 37.7268 75.6348 37.5656C74.9938 37.4043 74.5131 37.4043 74.5131 37.4043C74.5131 37.4043 74.0323 37.4043 73.3914 37.7268C72.7504 37.8879 71.9492 38.3716 71.4685 39.0165C71.148 39.339 70.9877 39.5002 70.8275 39.8226C70.507 40.3063 70.3468 40.79 70.3468 41.2737C70.3468 41.4349 70.3468 41.5962 70.1865 41.7573C70.1865 41.9186 70.1865 41.9186 70.1865 41.9186C70.1865 41.9186 70.6672 41.9186 71.3082 41.7573C71.9492 41.5962 72.7504 41.2737 73.3914 40.6288C73.7119 40.3063 73.8721 40.1451 74.0323 39.8226C74.3528 39.339 74.3528 38.6941 74.5131 38.3717C74.5131 37.8879 74.5131 37.5656 74.5131 37.5656C74.5131 37.5656 74.5131 37.8879 74.6733 38.3717C74.8336 38.8553 74.8336 39.339 75.1541 39.9839C75.3143 40.3064 75.4745 40.6288 75.795 40.9513C76.436 41.5962 77.077 42.0798 77.718 42.241C78.3589 42.5635 78.8397 42.5635 78.8397 42.5635L78.8397 42.4022C78.8397 41.9186 78.8397 41.5961 78.8397 41.4349Z" fill="#F5EFDB" fill-opacity="1.000000" fill-rule="nonzero"/>
	<path id="Vector" d="M63.1358 65.618C63.1358 65.618 62.8153 65.2955 62.1743 64.9731C61.5334 64.6506 60.8924 64.3282 59.9309 64.167C59.6104 64.167 59.2899 64.167 58.9695 64.167C58.3285 64.3282 57.8478 64.4894 57.5273 64.6506C57.2068 64.8119 56.8863 64.9731 56.8863 64.9731C56.8863 64.9731 57.2068 65.2955 57.6875 65.7793C58.1682 66.2629 58.9695 66.5853 59.7707 66.7466C60.0912 66.7466 60.4117 66.7466 60.7321 66.7466C61.3731 66.5853 61.8539 66.4242 62.1743 66.1017C62.9756 65.9404 63.1358 65.7792 63.1358 65.618C63.1358 65.618 62.8153 65.9404 62.6551 66.2629C62.3346 66.5853 62.0141 67.0691 61.8539 67.5527C61.6936 67.8751 61.5334 68.1976 61.5334 68.5201C61.3731 69.3262 61.5334 70.2936 61.6936 70.9385C61.8539 71.5834 62.1743 72.067 62.1743 72.067C62.1743 72.067 62.4948 71.9058 62.8153 71.5834C63.1358 71.2609 63.6165 70.7772 63.937 70.1323C64.0973 69.8099 64.2575 69.4874 64.2575 69.0038C64.4178 68.0364 64.0973 67.2302 63.937 66.5853C63.4563 66.1017 63.1358 65.618 63.1358 65.618Z" fill="#F5EFDB" fill-opacity="1.000000" fill-rule="nonzero"/>
	<path id="Vector" d="M66.8213 61.9108C66.8213 61.9108 66.3406 61.5883 65.8599 61.427C65.2189 61.1046 64.4176 60.9434 63.6164 60.9434C63.4562 60.9434 63.1357 60.9434 62.9755 61.1046C62.8152 61.1046 62.655 61.2659 62.4947 61.2659C62.1742 61.427 61.8537 61.5883 61.6935 61.7495C61.373 61.9108 61.2128 62.0719 61.0525 62.0719C60.8923 62.2332 60.8923 62.2332 60.8923 62.2332C60.8923 62.2332 61.2128 62.5557 61.8538 62.8781C62.1742 63.0393 62.4947 63.2006 62.8152 63.3617C62.9754 63.3617 63.1357 63.5229 63.4562 63.5229C63.6164 63.5229 63.9369 63.5229 64.0972 63.5229C64.5779 63.5229 64.8984 63.3617 65.2189 63.2004C65.5393 63.0393 65.8598 62.8781 66.1803 62.7168C66.3406 62.2332 66.661 61.9108 66.8213 61.9108C66.8213 61.9108 66.5008 62.3944 66.1803 62.8781C66.0201 63.2006 65.8598 63.5229 65.6996 63.8453C65.5393 64.1678 65.5394 64.6515 65.5394 64.974C65.5394 65.1353 65.5394 65.4576 65.5394 65.6189C65.5394 65.7802 65.5393 66.1025 65.6996 66.2638C65.8598 66.5862 65.8598 67.0699 66.0201 67.3923C66.3406 68.0372 66.6611 68.3597 66.6611 68.3597C66.6611 68.3597 66.8213 68.1985 66.9815 68.0372C67.1418 67.876 67.302 67.5536 67.4623 67.3923C67.6225 67.0699 67.7828 66.7474 67.943 66.2638C67.943 66.1025 68.1032 65.7802 68.1032 65.6189C68.1032 65.4576 68.1032 65.1353 68.1032 64.974C68.1032 64.0066 67.7828 63.2006 67.4623 62.7168C67.1418 62.2332 66.8213 61.9108 66.8213 61.9108Z" fill="#F5EFDB" fill-opacity="1.000000" fill-rule="nonzero"/>
	<path id="Vector" d="M70.6672 58.3624C70.1865 57.8788 69.866 57.5563 69.866 57.5563C69.866 57.5563 69.3853 57.3951 68.7443 57.2339C68.1033 57.0726 67.3021 56.9114 66.5009 57.0726C65.6997 57.2339 65.0587 57.7175 64.578 58.04C64.4177 58.2012 64.0972 58.3624 64.0972 58.5237C63.937 58.6848 63.937 58.6849 63.937 58.6849C63.937 58.6849 64.4177 59.0073 64.8985 59.1686C65.5394 59.491 66.3407 59.6522 67.1419 59.491C67.6226 59.491 67.9431 59.3297 68.2636 59.0073C68.5841 58.8461 68.9046 58.5237 69.0648 58.3624C69.225 58.2012 69.5455 57.8788 69.5455 57.7175C69.7058 57.5563 69.7058 57.395 69.7058 57.395C69.7058 57.395 69.5455 57.5563 69.5455 57.7175C69.3853 57.8788 69.3853 58.2012 69.225 58.5237C69.0648 58.8461 69.0648 59.1686 68.9045 59.6522C68.9045 59.9747 68.7443 60.4584 68.9045 60.942C69.0648 61.9093 69.3853 62.5542 69.7058 63.1991C70.0262 63.844 70.3468 64.1665 70.3468 64.1665C70.3468 64.1665 70.507 64.0052 70.507 63.844C70.6672 63.6827 70.8275 63.3604 70.9877 63.0378C71.3082 62.3929 71.6287 61.4257 71.4684 60.6195C71.4684 59.491 70.9877 58.8461 70.6672 58.3624Z" fill="#F5EFDB" fill-opacity="1.000000" fill-rule="nonzero"/>
	<path id="Vector" d="M49.0344 72.3899C48.7139 71.9062 48.0729 71.1001 47.4319 70.7777C47.1114 70.6165 46.7909 70.4552 46.4704 70.2939C46.15 70.1328 45.9897 70.1328 45.6692 70.1328C45.3487 70.1328 45.1885 70.1328 45.0283 70.1328C44.7078 70.1328 44.3873 70.1328 44.3873 70.1328C44.3873 70.1328 44.5475 70.6165 44.7078 71.2614C45.0283 71.9062 45.509 72.5511 46.15 73.0348C46.4705 73.196 46.791 73.3573 47.1114 73.3573C48.2332 73.6798 49.3549 73.3573 49.5151 73.3573C49.3549 73.3573 48.3934 73.6797 47.4319 74.4858C47.1114 74.6471 46.9512 74.9695 46.6307 75.292C46.15 75.9369 45.8295 76.9042 45.6692 77.5491C45.509 78.194 45.509 78.6777 45.509 78.6777C45.509 78.6777 45.8295 78.6777 46.3102 78.5165C46.4705 78.5165 46.791 78.3552 47.1114 78.1941C47.4319 78.0328 47.7524 77.8716 47.9127 77.7103C48.2332 77.5491 48.5536 77.2267 48.7139 76.9042C49.1946 76.0981 49.3548 75.292 49.3548 74.6471C49.3548 74.0022 49.3548 73.5184 49.3548 73.5184C49.3548 73.5184 49.3548 72.8737 49.0344 72.3899Z" fill="#F5EFDB" fill-opacity="1.000000" fill-rule="nonzero"/>
	<path id="Vector" d="M54.4826 71.5846C54.4826 71.5846 54.1621 71.101 53.8416 70.6172C53.3609 70.1335 52.7199 69.4886 52.079 69.1663C51.7585 69.005 51.2778 68.8438 50.9573 68.8438C50.6368 68.8438 50.3163 68.8438 49.9958 68.8438C49.3548 68.8438 49.0344 69.005 49.0344 69.005C49.0344 69.005 49.1946 69.4886 49.5151 69.9723C49.8356 70.4561 50.4765 71.101 51.2777 71.5846C52.079 71.907 52.8802 71.907 53.5212 71.7458C54.0019 71.7458 54.4826 71.5846 54.4826 71.5846C54.4826 71.5846 54.0019 71.7458 53.5212 72.2295C53.0404 72.5519 52.3994 73.1968 52.079 74.0029C51.5982 74.8091 51.5982 75.6152 51.438 76.2601C51.438 76.905 51.5982 77.3887 51.5982 77.3887C51.5982 77.3887 52.079 77.2274 52.72 76.9049C53.0404 76.7438 53.3609 76.4213 53.6814 76.0989C54.0019 75.7764 54.3224 75.454 54.4826 74.9703C54.9633 74.1642 54.9633 73.1968 54.8031 72.5519C54.6429 71.907 54.4826 71.5846 54.4826 71.5846Z" fill="#F5EFDB" fill-opacity="1.000000" fill-rule="nonzero"/>
	<path id="Vector" d="M59.13 68.843C59.13 68.843 58.8095 68.5205 58.3288 68.0369C57.848 67.5532 57.0468 67.0696 56.2456 66.9083C55.7648 66.7471 55.4444 66.7471 55.1239 66.7471C54.8034 66.7471 54.4829 66.9083 54.1624 66.9083C53.5214 67.0696 53.2009 67.2307 53.2009 67.2307C53.2009 67.2307 53.5214 67.7144 53.8419 68.1981C54.3227 68.6818 54.9636 69.1654 55.7648 69.4878C56.0853 69.649 56.5661 69.649 56.8865 69.649C57.207 69.649 57.6878 69.4878 57.848 69.4878C58.6492 69.1654 58.9697 69.0042 59.13 68.843C59.13 68.843 58.6492 69.1654 58.1685 69.649C58.0083 69.8103 57.6878 70.1328 57.5275 70.4552C57.3673 70.7777 57.0468 71.1001 56.8865 71.5837C56.5661 72.3899 56.5661 73.3573 56.7263 74.0022C56.8866 74.6471 57.0468 75.1307 57.0468 75.1307C57.0468 75.1307 57.5275 74.9695 58.1685 74.4858C58.489 74.3246 58.8095 74.0021 58.9697 73.6797C59.2902 73.3573 59.4504 72.8735 59.6107 72.5511C59.9312 71.745 59.7709 70.7777 59.6107 70.1328C59.2902 69.3267 59.13 68.843 59.13 68.843Z" fill="#F5EFDB" fill-opacity="1.000000" fill-rule="nonzero"/>
	<path id="Vector" d="M33.9718 73.3579C33.8116 72.713 33.6513 71.9067 33.1706 71.1007C33.0103 70.7782 32.6898 70.6169 32.5296 70.2946C32.3694 70.1333 32.0489 69.9722 31.8886 69.8109C31.7284 69.6497 31.4079 69.4884 31.2477 69.4884C30.9272 69.3273 30.6067 69.166 30.6067 69.166C30.6067 69.166 30.4464 69.6497 30.4464 70.2946C30.4464 70.9395 30.6067 71.7456 31.0874 72.5518C31.2477 72.8741 31.5681 73.0354 31.7284 73.3579C31.8886 73.519 32.2091 73.6803 32.3694 73.8416C32.5296 74.0027 32.8501 74.0028 33.0103 74.1639C33.4911 74.3252 33.6513 74.3252 33.8116 74.3252C33.8116 74.3252 33.4911 74.3252 33.0103 74.3252C32.8501 74.3252 32.5296 74.3252 32.2091 74.3252C31.8886 74.3252 31.5681 74.3252 31.4079 74.4865C31.0874 74.4865 30.7669 74.6476 30.4464 74.8088C29.6452 75.2925 29.0043 75.7762 28.6838 76.4211C28.3633 76.9048 28.0428 77.3884 28.0428 77.3884C28.0428 77.3884 28.3633 77.5497 28.844 77.5497C29.1645 77.5497 29.3247 77.5497 29.6452 77.5497C29.9657 77.5497 30.2862 77.5497 30.6067 77.3884C30.9272 77.3884 31.2477 77.2272 31.7284 77.066C32.5296 76.5823 33.0103 75.9374 33.3308 75.2925C33.6513 74.6476 33.8116 74.1639 33.8116 74.1639C33.8116 74.1639 34.132 74.0028 33.9718 73.3579Z" fill="#F5EFDB" fill-opacity="1.000000" fill-rule="nonzero"/>
	<path id="Vector" d="M37.9776 71.745C37.6571 71.4226 37.3366 71.2614 37.0161 70.939C36.6957 70.7777 36.3752 70.6165 36.2149 70.4552C35.7342 70.2941 35.2535 70.1328 35.2535 70.1328C35.2535 70.1328 35.2535 70.6165 35.2535 71.2614C35.4137 71.9062 35.574 72.7124 36.2149 73.3573C36.5354 73.6797 36.8559 73.8409 37.1764 74.1635C37.4969 74.3246 37.8174 74.4858 38.1378 74.6471C38.7788 74.8082 39.2596 74.8083 39.2596 74.8083C39.2596 74.8083 38.7788 74.8083 38.1378 74.9695C37.8174 74.9695 37.4969 75.1307 37.1764 75.292C36.8559 75.4531 36.3752 75.6144 36.0547 75.9369C35.4137 76.4205 34.933 77.2267 34.6125 77.7103C34.292 78.3552 34.1318 78.8389 34.1318 78.8389C34.1318 78.8389 34.6125 78.8389 35.4137 78.8389C36.2149 78.8389 37.0161 78.5165 37.8174 78.0327C38.6186 77.3878 38.9391 76.7429 39.0993 76.098C39.2596 75.4531 39.4198 74.9695 39.4198 74.9695C39.4198 74.9695 39.4198 74.4858 39.2596 73.8409C38.7788 73.0348 38.4583 72.3899 37.9776 71.745Z" fill="#F5EFDB" fill-opacity="1.000000" fill-rule="nonzero"/>
	<path id="Vector" d="M44.0673 73.5183C43.7468 72.8734 43.4263 72.2285 42.7853 71.5836C42.4648 71.2612 42.1443 71.1 41.8239 70.9388C41.5034 70.7776 41.1829 70.7776 40.8624 70.6163C40.2214 70.4551 39.9009 70.4551 39.9009 70.4551C39.9009 70.4551 39.9009 70.9387 40.0612 71.5836C40.2214 72.2285 40.5419 73.0347 41.1829 73.5183C41.8238 74.0021 42.6251 74.3245 43.266 74.3245C43.907 74.3245 44.3877 74.3245 44.3877 74.3245C44.3877 74.3245 43.907 74.3245 43.266 74.647C42.6251 74.8082 41.9841 75.1306 41.3431 75.7755C40.7021 76.4204 40.3816 77.2266 40.0612 77.8715C39.9009 78.5164 39.7407 79 39.7407 79C39.7407 79 40.2214 79 41.0226 78.8389C41.3431 78.8389 41.8238 78.6776 42.1443 78.3551C42.4648 78.1938 42.9455 77.8715 43.266 77.549C43.907 76.9041 44.2275 76.098 44.2275 75.4531C44.3878 74.8082 44.3877 74.3245 44.3877 74.3245C44.3877 74.3245 44.3877 74.0021 44.0673 73.5183Z" fill="#F5EFDB" fill-opacity="1.000000" fill-rule="nonzero"/>
	<path id="Vector" d="M19.5496 68.5211C19.5496 68.5211 19.7099 68.0374 20.0304 67.3925C20.1906 66.7476 20.3509 65.9415 20.3509 65.1354C20.3509 64.8129 20.1906 64.4905 20.0304 64.168C19.8701 63.6843 19.5496 63.2007 19.2292 62.8782C19.0689 62.717 19.0689 62.5558 18.9087 62.5558C18.7484 62.5558 18.7484 62.3945 18.7484 62.3945C18.7484 62.3945 18.4279 62.717 18.1075 63.3619C17.787 64.0068 17.6267 64.8129 17.6267 65.619C17.6267 65.9415 17.787 66.2639 17.9472 66.5864C18.5882 67.8762 19.5496 68.5211 19.5496 68.5211C19.3894 68.5211 18.5882 67.8762 17.3062 67.5537C16.9857 67.5537 16.6653 67.3925 16.1845 67.3925C15.3833 67.3925 14.4218 67.715 13.9411 68.0374C13.3001 68.3599 12.9797 68.6823 12.9797 68.6823C12.9797 68.6823 12.9797 68.6823 13.1399 68.8435C13.3001 69.0048 13.4604 69.0048 13.6206 69.166C14.1014 69.4884 14.5821 69.8109 15.2231 69.9722C15.5436 70.1333 16.0243 70.1333 16.3448 70.1333C17.3062 70.1333 18.1075 69.6497 18.5882 69.3273C19.2292 69.0048 19.5496 68.5211 19.5496 68.5211Z" fill="#F5EFDB" fill-opacity="1.000000" fill-rule="nonzero"/>
	<path id="Vector" d="M24.0365 71.2621C24.0365 71.2621 24.1968 70.7784 24.357 70.1335C24.5172 69.4886 24.5172 68.6825 24.357 67.8765C24.1968 67.3927 24.0365 67.0703 23.8763 66.7479C23.7161 66.5867 23.716 66.4254 23.5558 66.2642C23.3955 66.1029 23.3955 65.9418 23.2353 65.9418C22.9148 65.4581 22.4341 65.2969 22.4341 65.2969C22.4341 65.2969 22.2738 65.7805 21.9533 66.4254C21.7931 67.0703 21.6329 67.8765 21.7931 68.6825C21.9534 69.1663 22.1136 69.4886 22.2739 69.8112C22.4341 70.1335 22.7546 70.4561 22.9148 70.6173C23.5558 70.9397 24.0365 71.2621 24.0365 71.2621C24.0365 71.2621 23.5558 70.9397 22.9148 70.7784C22.5943 70.7784 22.2739 70.6173 21.7931 70.6173C21.4726 70.6173 20.9919 70.6173 20.5112 70.6173C19.7099 70.7784 18.9087 71.2622 18.428 71.5846C17.9473 72.0682 17.6268 72.3907 17.6268 72.3907C17.6268 72.3907 18.1075 72.7131 18.7485 72.8744C18.9087 72.8744 19.069 73.0356 19.2292 73.0356C19.3895 73.0356 19.71 73.1969 19.8702 73.1969C20.3509 73.1969 20.6714 73.1969 21.1521 73.1969C22.1136 73.0356 22.7546 72.5519 23.2353 72.0682C23.8763 71.7458 24.0365 71.2621 24.0365 71.2621Z" fill="#F5EFDB" fill-opacity="1.000000" fill-rule="nonzero"/>
	<path id="Vector" d="M29.0041 73.1956C29.0041 73.1956 29.1643 72.7118 29.1643 72.0669C29.1643 71.422 29.1643 70.616 28.6836 69.8098C28.5234 69.4873 28.3631 69.1649 28.0426 68.8424C27.8824 68.52 27.5619 68.3588 27.4017 68.1975C26.921 67.8751 26.6005 67.7139 26.6005 67.7139C26.6005 67.7139 26.4402 68.1975 26.28 68.8424C26.1198 69.4873 26.1197 70.2935 26.4402 71.0996C26.6005 71.422 26.7607 71.7445 27.0812 72.0669C27.4017 72.3894 27.5619 72.5505 27.8824 72.7118C28.3631 73.0343 28.8438 73.1956 29.0041 73.1956C29.0041 73.1956 28.5234 73.0343 27.8824 73.0343C27.5619 73.0343 27.2414 73.0343 26.7607 73.0343C26.4402 73.0343 25.9595 73.1956 25.639 73.1956C24.8378 73.5179 24.1968 74.0016 23.7161 74.4854C23.2354 74.969 23.0751 75.4526 23.0751 75.4526C23.0751 75.4526 23.5558 75.6139 24.1968 75.7751C24.5173 75.9364 24.998 75.9363 25.3185 75.9363C25.7993 75.9363 26.1197 75.9364 26.6005 75.7751C27.4017 75.4526 28.0426 74.8077 28.5234 74.3241C28.6836 73.6792 29.0041 73.1956 29.0041 73.1956Z" fill="#F5EFDB" fill-opacity="1.000000" fill-rule="nonzero"/>
	<path id="Vector" d="M8.01225 57.235C8.65323 57.0737 9.13394 56.9125 9.13394 56.9125C9.13394 56.9125 9.45444 56.5901 9.93517 56.1063C10.0954 55.9452 10.4159 55.6227 10.5762 55.3003C10.7364 54.9778 11.0569 54.6553 11.0569 54.1716C11.2171 53.8492 11.2171 53.5267 11.2171 53.2043C11.2171 52.5594 11.2171 52.0757 11.0569 51.7533C11.0569 51.592 10.8966 51.4309 10.8966 51.2697C10.8966 51.1084 10.8966 51.1084 10.8966 51.1084C10.8966 51.1084 10.4159 51.2697 9.93517 51.7533C9.61469 51.9146 9.45444 52.2369 9.13394 52.5594C8.81346 52.8818 8.65323 53.2043 8.49298 53.688C8.33275 54.0105 8.33273 54.3329 8.33273 54.6554C8.33273 55.3003 8.493 55.7839 8.65324 56.2676C8.81348 56.7512 8.97372 56.9125 8.97372 57.0737C8.97372 57.0737 8.81348 56.7512 8.49298 56.4288C8.1725 56.1063 7.85202 55.6227 7.37129 55.3003C7.0508 55.139 6.7303 54.8165 6.40982 54.8165C5.92908 54.6554 5.6086 54.4941 5.12785 54.4941C4.64713 54.4941 4.32664 54.4941 4.00616 54.4941C3.36519 54.4941 2.88446 54.6554 2.88446 54.6554C2.88446 54.6554 2.88448 54.6554 3.04471 54.8165C3.04471 54.9778 3.20496 55.139 3.36519 55.3003C3.68568 55.7839 4.00616 56.2676 4.48689 56.7512C4.80739 56.9125 5.12788 57.2349 5.44836 57.3961C5.92909 57.5574 6.24957 57.7186 6.7303 57.7186C7.21103 57.3961 7.69176 57.3961 8.01225 57.235Z" fill="#F5EFDB" fill-opacity="1.000000" fill-rule="nonzero"/>
	<path id="Vector" d="M10.8964 61.9109C11.5374 61.7496 11.8578 61.4272 11.8578 61.4272C11.8578 61.4272 12.1783 61.1047 12.6591 60.6211C12.9796 60.1375 13.4603 59.3313 13.6205 58.5251C13.6205 58.0415 13.6205 57.719 13.6205 57.3966C13.6205 57.0741 13.4603 56.7517 13.4603 56.4293C13.3 55.9456 13.1398 55.4619 13.1398 55.4619C13.1398 55.4619 12.8193 55.7844 12.3386 56.2681C11.8578 56.7517 11.3771 57.3966 11.2169 58.3639C11.0566 59.17 11.2169 59.9762 11.5373 60.6211C11.6976 60.9435 11.8578 61.1047 11.8578 61.266C12.0181 61.4272 12.0181 61.5884 12.0181 61.5884C11.8578 61.4272 10.8964 60.1375 9.13368 59.6538C8.33247 59.4926 7.37102 59.4926 6.73004 59.6538C6.08907 59.8149 5.60834 59.9762 5.60834 59.9762C5.60834 59.9762 5.92882 60.4598 6.40956 60.9436C6.73004 61.266 6.89029 61.4272 7.37103 61.7496C7.69151 61.9109 8.17224 62.2333 8.65298 62.2333C9.45419 62.2333 10.2554 62.0721 10.8964 61.9109Z" fill="#F5EFDB" fill-opacity="1.000000" fill-rule="nonzero"/>
	<path id="Vector" d="M14.582 65.9414C15.223 65.6189 15.5435 65.2965 15.5435 65.2965C15.5435 65.2965 15.864 64.974 16.1845 64.3291C16.3447 64.0067 16.505 63.6842 16.6652 63.3618C16.6652 63.2006 16.8254 63.0393 16.8254 62.7169C16.8254 62.5557 16.8254 62.2333 16.8254 62.072C16.8254 61.5884 16.8255 61.2659 16.6652 60.9434C16.505 60.621 16.5049 60.2985 16.3447 59.9761C16.1845 59.6536 16.0242 59.4924 16.0242 59.3312C15.864 59.1699 15.864 59.1699 15.864 59.1699C15.864 59.1699 15.5435 59.4924 15.0628 59.9761C14.7423 60.4597 14.2616 61.2659 14.2616 62.072C14.2616 62.2333 14.2616 62.5557 14.2616 62.7169C14.2616 62.8781 14.4218 63.0393 14.4218 63.2006C14.582 63.5229 14.7423 63.8455 14.9025 64.1678C15.223 64.6516 15.5435 64.974 15.7037 65.1353C15.7037 65.1353 15.223 64.8129 14.7423 64.4904C14.4218 64.3291 14.1013 64.1678 13.7808 64.0067C13.6206 64.0067 13.4603 63.8455 13.1398 63.8455C12.9796 63.8455 12.8194 63.6842 12.4989 63.6842C11.6976 63.5231 10.7362 63.8455 10.0952 64.0067C9.45422 64.1678 9.13373 64.4904 9.13373 64.4904C9.13373 64.4904 9.29398 64.6516 9.29398 64.8127C9.45422 64.974 9.61446 65.1353 9.93495 65.4576C10.2554 65.6189 10.5759 65.9414 10.8964 66.1027C11.2169 66.2638 11.6976 66.425 12.1784 66.425C12.3386 66.425 12.6591 66.425 12.8193 66.425C12.9796 66.425 13.3001 66.425 13.4603 66.2638C13.9411 66.2638 14.2616 66.1027 14.582 65.9414Z" fill="#F5EFDB" fill-opacity="1.000000" fill-rule="nonzero"/>
	<path id="Vector" d="M1.44179 40.6282C2.08276 41.2731 2.88397 41.5956 3.52493 41.7567C4.16591 41.918 4.64667 41.918 4.64667 41.918C4.64667 41.918 5.1274 41.918 5.76837 41.5955C6.40935 41.4343 7.21056 40.9507 7.69128 40.3058C8.01176 39.9833 8.17201 39.822 8.33224 39.4996C8.65274 39.016 8.81299 38.5322 8.81299 38.0486C8.81299 37.8873 8.81299 37.7261 8.97324 37.5649C8.97324 37.4037 8.97324 37.4037 8.97324 37.4037C8.97324 37.4037 8.49251 37.4037 7.85153 37.5649C7.21056 37.7261 6.40935 38.0486 5.76837 38.6935C5.44788 39.016 5.28761 39.1771 5.12738 39.4996C4.80688 39.9833 4.80692 40.6282 4.64667 40.9507C4.64667 41.4343 4.64667 41.7567 4.64667 41.7567C4.64667 41.7567 4.64665 41.4343 4.48642 40.9507C4.32617 40.4669 4.32616 39.9833 4.00568 39.4996C3.84543 39.1771 3.6852 38.8547 3.36472 38.5322C2.72374 37.8873 2.08276 37.4037 1.44179 37.0813C0.800812 36.7588 0.320068 36.7588 0.320068 36.7588L0.320068 36.92C0.320068 37.0813 0.320068 37.2424 0.320068 37.5649C0.320068 38.0486 0.480316 38.6935 0.800797 39.3384C0.961044 39.9833 1.12131 40.3057 1.44179 40.6282Z" fill="#F5EFDB" fill-opacity="1.000000" fill-rule="nonzero"/>
	<path id="Vector" d="M1.92291 46.2708C2.56389 46.9156 3.52536 47.0769 4.16634 47.0769C4.80731 47.0769 5.28804 47.0769 5.28804 47.0769C5.28804 47.0769 5.76878 46.9158 6.24951 46.5933C6.89049 46.2709 7.53145 45.7872 8.01218 45.1423C8.4929 44.4974 8.65315 43.6913 8.81339 43.2076C8.81339 43.0464 8.81339 42.8851 8.81339 42.8851C8.81339 42.7239 8.81339 42.7239 8.81339 42.5627C8.81339 42.4015 8.81339 42.2402 8.81339 42.2402C8.81339 42.2402 8.33266 42.2402 7.6917 42.5627C7.3712 42.7239 7.0507 42.8851 6.73022 43.0464C6.40973 43.2075 6.08926 43.53 5.76877 43.8524C5.44829 44.1749 5.28804 44.4974 5.28804 44.9811C5.12779 45.3035 5.12779 45.626 5.12779 45.9484C5.12779 46.2709 5.12779 46.5933 5.12779 46.7545C5.12779 46.9158 5.12779 47.0769 5.12779 47.0769C5.12779 47.0769 5.12779 46.9158 4.96756 46.7545C4.96756 46.5933 4.80731 46.2709 4.64708 45.9484C4.48683 45.626 4.32658 45.3035 4.16634 44.9811C4.0061 44.6586 3.68561 44.3362 3.36513 44.0137C3.04463 43.6913 2.72415 43.53 2.24342 43.3688C1.92294 43.2076 1.44218 43.0464 1.1217 43.0464C0.480728 42.8851 0 42.8851 0 42.8851C0 42.8851 0 43.0464 0 43.2076C0 43.3688 0 43.53 0 43.53C0 43.6913 0.160248 43.8524 0.160248 44.0137C0.801224 44.8198 1.28194 45.626 1.92291 46.2708Z" fill="#F5EFDB" fill-opacity="1.000000" fill-rule="nonzero"/>
	<path id="Vector" d="M5.60863 52.3977C6.2496 52.3977 6.73033 52.2365 6.73033 52.2365C6.73033 52.2365 7.21107 52.0753 7.6918 51.5916C8.17253 51.1079 8.81349 50.6243 9.13399 49.8181C9.29422 49.4957 9.45448 49.012 9.45448 48.6896C9.45448 48.3671 9.61472 48.0447 9.61472 47.7222C9.61472 47.5609 9.61472 47.3998 9.61472 47.3998C9.61472 47.2385 9.61472 47.2385 9.61472 47.0773C9.61472 46.9161 9.61472 46.7549 9.61472 46.7549C9.61472 46.7549 9.134 46.9161 8.65327 47.2385C8.33278 47.3998 8.01228 47.561 7.6918 47.8834C7.37131 48.2058 7.21107 48.5283 6.89058 48.8508C6.73035 49.1732 6.5701 49.6569 6.5701 49.9794C6.5701 50.3018 6.5701 50.7854 6.5701 51.1079C6.5701 51.7528 6.73035 52.2365 6.89058 52.2365C6.89058 52.2365 6.73033 51.7528 6.40985 51.1079C6.2496 50.7854 6.08937 50.463 5.76889 50.3018C5.44839 49.9794 5.28815 49.6569 4.80742 49.4956C4.48692 49.3345 4.00621 49.012 3.68571 49.012C3.36523 48.8508 2.88451 48.8508 2.56403 48.8508C1.92305 48.8508 1.44232 48.8508 1.44232 48.8508C1.44232 48.8508 1.44231 49.012 1.60255 49.1732C1.60255 49.3345 1.60255 49.3345 1.7628 49.4956C1.7628 49.6569 1.92303 49.8181 1.92303 49.9794C2.08328 50.3018 2.24353 50.6243 2.56403 50.9467C2.88451 51.2692 3.20497 51.5916 3.52547 51.7528C4.16644 52.2365 4.96767 52.3977 5.60863 52.3977Z" fill="#F5EFDB" fill-opacity="1.000000" fill-rule="nonzero"/>
	<path id="Vector" d="M5.2878 24.9893C5.44803 25.3118 5.76852 25.6342 6.089 25.7954C6.56973 26.2791 7.05048 26.4403 7.05048 26.4403C7.05048 26.4403 7.5312 26.6016 8.17218 26.6016C8.49266 26.6016 8.81314 26.6016 9.29388 26.6016C9.61436 26.6016 10.0951 26.4403 10.4156 26.2791C10.7361 26.1178 11.0565 25.9567 11.2168 25.7954C11.6975 25.4729 12.018 25.1505 12.3385 24.828C12.4987 24.6669 12.4988 24.5056 12.659 24.5056C12.659 24.3444 12.8192 24.3444 12.8192 24.3444C12.8192 24.3444 12.3385 24.1831 11.6975 24.022C11.377 24.022 11.0566 23.8607 10.5758 23.8607C10.2553 23.8607 9.77461 23.8607 9.29388 24.022C8.97339 24.1831 8.65289 24.3444 8.33241 24.5056C7.85168 24.828 7.53119 25.3118 7.21071 25.6342C6.89023 25.9567 6.89023 26.2791 6.89023 26.2791C6.89023 26.2791 7.05048 25.9567 7.05048 25.4729C7.21072 24.9893 7.21071 24.5056 7.21071 23.8607C7.21071 23.5382 7.21072 23.2158 7.05048 22.7321C6.89023 22.2484 6.72998 21.926 6.56975 21.6035C6.4095 21.2811 6.089 20.9586 5.92876 20.6362C5.44803 20.1526 5.12753 19.8301 5.12753 19.8301C5.12753 19.8301 5.12755 19.8301 4.9673 19.9913C4.9673 20.1526 4.80705 20.3137 4.80705 20.475C4.6468 20.9586 4.48657 21.6035 4.48657 22.2484C4.48657 22.5709 4.48659 23.0546 4.64682 23.3771C4.96732 24.1831 5.12755 24.6669 5.2878 24.9893Z" fill="#F5EFDB" fill-opacity="1.000000" fill-rule="nonzero"/>
	<path id="Vector" d="M2.88438 29.1819C3.04463 29.6655 3.36511 29.988 3.68561 30.3104C4.00609 30.6329 4.32658 30.7941 4.48682 30.9553C5.12779 31.2778 5.44829 31.4391 5.44829 31.4391C5.44829 31.4391 5.92902 31.4391 6.56999 31.4391C6.89047 31.4391 7.21097 31.4391 7.6917 31.2778C8.01218 31.1166 8.4929 31.1166 8.81339 30.7941C9.13388 30.6329 9.45438 30.3104 9.77486 30.1492C10.0954 29.8268 10.2556 29.6655 10.4158 29.3431C10.5761 29.0206 10.7363 28.8595 10.7363 28.6982C10.8966 28.537 10.8966 28.3757 10.8966 28.3757C10.8966 28.3757 10.4158 28.2146 9.77486 28.2146C9.1339 28.2146 8.33266 28.2145 7.53143 28.537C7.21095 28.6982 6.89047 29.0206 6.56999 29.3431C6.24951 29.6655 6.08925 29.988 5.929 30.1492C5.60852 30.6329 5.44829 31.1166 5.44829 31.2778C5.44829 31.2778 5.60852 30.7941 5.60852 30.1492C5.60852 29.8268 5.60852 29.5044 5.60852 29.0206C5.60852 28.6982 5.44829 28.2146 5.28804 27.8921C4.96756 27.0859 4.32658 26.441 3.84586 25.9574C3.36513 25.4738 2.88438 25.3125 2.88438 25.3125C2.88438 25.3125 2.88437 25.4738 2.72414 25.635C2.72414 25.7961 2.5639 26.1187 2.5639 26.441C2.5639 26.7635 2.5639 27.2472 2.5639 27.5696C2.5639 28.3757 2.5639 28.6982 2.88438 29.1819Z" fill="#F5EFDB" fill-opacity="1.000000" fill-rule="nonzero"/>
	<path id="Vector" d="M1.12169 33.5336C1.28194 34.0172 1.44218 34.3397 1.60243 34.8234C1.92291 35.1458 2.08316 35.4683 2.40364 35.7908C2.72414 36.1132 3.04463 36.2744 3.36511 36.2744C4.00609 36.5968 4.48682 36.5968 4.48682 36.5968C4.48682 36.5968 4.96754 36.5968 5.60852 36.4355C5.92902 36.4355 6.24951 36.2744 6.56999 36.1132C6.89049 35.9519 7.37122 35.7908 7.6917 35.4683C8.01218 35.1459 8.33267 34.9846 8.49292 34.6622C8.65315 34.3397 8.81342 34.0173 8.97365 33.8561C9.1339 33.3724 9.29413 32.8887 9.29413 32.8887C9.29413 32.8887 8.81342 32.8887 8.17244 32.8887C7.53146 32.8887 6.73022 33.0499 5.929 33.6948C5.60852 34.0172 5.28802 34.1785 5.12779 34.501C4.96754 34.8234 4.80731 35.1459 4.64708 35.4683C4.48683 36.1132 4.32657 36.5968 4.32657 36.5968C4.32657 36.5968 4.32657 36.1132 4.32657 35.4683C4.32657 35.1459 4.16634 34.8234 4.16634 34.3397C4.00609 34.0172 3.84584 33.5336 3.68561 33.2112C3.20486 32.405 2.56389 31.9214 1.92291 31.5989C1.28194 31.2765 0.961456 31.1152 0.961456 31.1152C0.961456 31.1152 0.801208 31.5989 0.801208 32.405C1.12169 32.7274 1.12169 33.2112 1.12169 33.5336Z" fill="#F5EFDB" fill-opacity="1.000000" fill-rule="nonzero"/>
	<path id="Vector" d="M16.0241 13.5437C16.0241 13.5437 16.3446 13.8661 16.9856 14.1886C17.6266 14.511 18.2675 14.8335 19.229 14.9948C19.5495 14.9948 19.87 14.9948 20.1905 14.9948C20.8314 14.8335 21.3121 14.6722 21.6326 14.511C21.9531 14.3499 22.2736 14.1886 22.2736 14.1886C22.2736 14.1886 21.9531 13.8661 21.4724 13.3824C20.9917 12.8988 20.1905 12.5763 19.3892 12.4152C19.0687 12.4152 18.7482 12.4152 18.4278 12.4152C17.7868 12.5763 17.3061 12.7375 16.9856 13.0599C16.1844 13.3824 16.0241 13.5437 16.0241 13.5437C16.0241 13.5437 16.3446 13.2212 16.5048 12.8988C16.8253 12.5763 17.1458 12.0927 17.3061 11.609C17.4663 11.2865 17.6265 10.9641 17.6265 10.6416C17.7868 9.83545 17.6266 8.86816 17.4663 8.22327C17.3061 7.57837 16.9856 7.09473 16.9856 7.09473C16.9856 7.09473 16.6651 7.25598 16.3446 7.57837C16.0241 7.90088 15.5434 8.38452 15.2229 9.02942C15.0626 9.35181 14.9024 9.67432 14.9024 10.158C14.7422 11.1254 14.9024 11.9314 15.2229 12.5763C15.7036 13.2212 16.0241 13.5437 16.0241 13.5437Z" fill="#F5EFDB" fill-opacity="1.000000" fill-rule="nonzero"/>
	<path id="Vector" d="M12.3386 17.4109C12.3386 17.4109 12.8194 17.7333 13.3001 17.8945C13.9411 18.2169 14.7423 18.3782 15.5435 18.3782C15.7037 18.3782 16.0242 18.3782 16.1845 18.217C16.3447 18.217 16.505 18.0558 16.6652 18.0558C16.9857 17.8945 17.3062 17.7333 17.6267 17.5721C17.9471 17.4109 18.1074 17.2496 18.2677 17.2496C18.4279 17.0884 18.4279 17.0884 18.4279 17.0884C18.4279 17.0884 18.1074 16.766 17.4664 16.4435C17.146 16.2823 16.8255 16.1211 16.505 15.9598C16.3447 15.9598 16.1845 15.7986 15.864 15.7986C15.7038 15.7986 15.3833 15.7986 15.223 15.7986C14.7423 15.7986 14.4218 15.9598 14.1013 16.1211C13.7808 16.2823 13.4603 16.4435 13.1398 16.6047C12.6591 16.9272 12.3386 17.2496 12.3386 17.4109C12.3386 17.4109 12.6591 16.9272 12.9796 16.4435C13.1399 16.1211 13.3001 15.7986 13.4604 15.4762C13.6206 15.1537 13.6206 14.67 13.6206 14.3477C13.6206 14.1864 13.6206 13.864 13.6206 13.7028C13.6206 13.5415 13.6206 13.219 13.4604 13.0579C13.3001 12.7354 13.3001 12.2517 13.1398 11.9293C12.8194 11.2844 12.4989 10.9619 12.4989 10.9619C12.4989 10.9619 12.3386 11.1232 12.1784 11.2844C12.0182 11.4456 11.8579 11.7681 11.6977 11.9293C11.5374 12.2517 11.3772 12.5741 11.2169 13.0579C11.2169 13.219 11.0567 13.5415 11.0567 13.7028C11.0567 13.864 11.0567 14.1864 11.0567 14.3477C11.0567 15.3149 11.3772 16.1211 11.6977 16.6047C12.0182 17.0884 12.3386 17.4109 12.3386 17.4109Z" fill="#F5EFDB" fill-opacity="1.000000" fill-rule="nonzero"/>
	<path id="Vector" d="M8.49295 20.9602C8.97368 21.444 9.29417 21.7664 9.29417 21.7664C9.29417 21.7664 9.77489 21.9276 10.4159 22.0887C11.0568 22.25 11.8581 22.4113 12.6593 22.25C13.4605 22.0887 14.1015 21.6051 14.5822 21.2827C14.7425 21.1215 15.0629 20.9602 15.0629 20.7991C15.2232 20.6378 15.2232 20.6378 15.2232 20.6378C15.2232 20.6378 14.7425 20.3153 14.2617 20.1542C13.6208 19.8317 12.8195 19.6704 12.0183 19.8317C11.5376 19.8317 11.2171 19.9929 10.8966 20.3153C10.5761 20.4766 10.2556 20.7991 10.0954 20.9602C9.93513 21.1215 9.61465 21.444 9.61465 21.6051C9.45441 21.7664 9.45442 21.9276 9.45442 21.9276C9.45442 21.9276 9.61465 21.7664 9.61465 21.6051C9.77489 21.444 9.77489 21.1215 9.93513 20.7991C10.0954 20.4766 10.0954 20.1541 10.2556 19.8317C10.2556 19.5092 10.4159 19.0255 10.2556 18.5419C10.0954 17.5746 9.7749 16.9296 9.45442 16.2847C9.13393 15.6398 8.81343 15.3174 8.81343 15.3174C8.81343 15.3174 8.6532 15.4786 8.6532 15.6398C8.49297 15.801 8.33272 16.1235 8.17247 16.4459C7.85197 17.0908 7.53149 18.0582 7.69173 18.8643C7.69173 19.6704 8.01222 20.4766 8.49295 20.9602Z" fill="#F5EFDB" fill-opacity="1.000000" fill-rule="nonzero"/>
	<path id="Vector" d="M30.1259 6.77112C30.4464 7.25476 31.0874 8.06091 31.7284 8.3833C32.0489 8.54456 32.3694 8.70581 32.6898 8.86707C33.0103 9.02832 33.1706 9.0282 33.4911 9.0282C33.8116 9.0282 33.9718 9.0282 34.132 9.0282C34.4525 9.0282 34.773 9.0282 34.773 9.0282C34.773 9.0282 34.6128 8.54456 34.4525 7.89966C34.132 7.25476 33.6513 6.60986 33.0103 6.12622C32.6898 5.96497 32.3694 5.80371 32.0489 5.80371C30.9272 5.48132 29.8055 5.80371 29.6452 5.80371C29.8055 5.80371 30.7669 5.48132 31.7284 4.67517C32.0489 4.51404 32.2091 4.19153 32.5296 3.86914C33.0103 3.22424 33.3308 2.25684 33.4911 1.61194C33.6513 0.967041 33.6513 0.483398 33.6513 0.483398C33.6513 0.483398 33.3308 0.483398 32.8501 0.644653C32.6898 0.644653 32.3694 0.805786 32.0489 0.967041C31.7284 1.1283 31.4079 1.28955 31.2477 1.45081C30.9272 1.61194 30.6067 1.93445 30.4464 2.25684C29.9657 3.06299 29.8055 3.86914 29.8055 4.51404C29.8055 5.15894 29.8055 5.64258 29.8055 5.64258C29.8055 5.64258 29.6452 6.28748 30.1259 6.77112Z" fill="#F5EFDB" fill-opacity="1.000000" fill-rule="nonzero"/>
	<path id="Vector" d="M24.6773 7.73865C24.6773 7.73865 24.9978 8.22229 25.3183 8.70605C25.799 9.1897 26.44 9.83459 27.2412 9.99573C27.5617 10.157 28.0424 10.3182 28.3629 10.3182C28.6834 10.3182 29.0039 10.3182 29.3244 10.3182C29.9654 10.3182 30.2859 10.157 30.2859 10.157C30.2859 10.157 30.1256 9.67334 29.8051 9.1897C29.4846 8.70593 28.8437 8.06104 28.0424 7.57739C27.2412 7.255 26.44 7.255 25.799 7.41614C25.1581 7.41614 24.6773 7.73865 24.6773 7.73865C24.6773 7.73865 25.1581 7.57739 25.6388 7.09375C26.1195 6.77136 26.7605 6.12646 27.081 5.32031C27.5617 4.51416 27.5617 3.70801 27.722 3.06311C27.722 2.41821 27.5617 1.93457 27.5617 1.93457C27.5617 1.93457 27.081 2.09583 26.44 2.41821C26.1195 2.57947 25.799 2.90198 25.4785 3.22437C25.1581 3.54688 24.8376 3.86926 24.6773 4.35291C24.1966 5.15906 24.1966 6.12634 24.3568 6.77124C24.5171 7.255 24.6773 7.73865 24.6773 7.73865Z" fill="#F5EFDB" fill-opacity="1.000000" fill-rule="nonzero"/>
	<path id="Vector" d="M20.0302 10.318C20.0302 10.318 20.3506 10.6405 20.8314 11.1241C21.3121 11.6078 22.1133 12.0914 22.9146 12.2527C23.3953 12.4139 23.7158 12.4139 24.0363 12.4139C24.3568 12.4139 24.6772 12.2527 24.9977 12.2527C25.6387 12.0914 25.9592 11.9303 25.9592 11.9303C25.9592 11.9303 25.6387 11.4467 25.3182 10.9629C24.8375 10.4792 24.1965 9.99561 23.3953 9.6731C23.0748 9.51196 22.5941 9.51196 22.2736 9.51196C21.9531 9.51196 21.4724 9.6731 21.3121 9.6731C20.5109 9.99561 20.1904 10.318 20.0302 10.318C20.0302 10.318 20.5109 9.99561 20.9916 9.51196C21.1519 9.35071 21.4724 9.0282 21.6326 8.70581C21.7928 8.3833 22.1133 8.06091 22.1133 7.57715C22.4338 6.77112 22.4338 5.80371 22.2736 5.15881C22.1133 4.51392 21.9531 4.03027 21.9531 4.03027C21.9531 4.03027 21.4724 4.19153 20.8314 4.67517C20.5109 4.83643 20.1904 5.15881 20.0302 5.48132C19.7097 5.80371 19.5494 6.28735 19.3892 6.60986C19.0687 7.41602 19.229 8.3833 19.3892 9.0282C19.8699 9.83435 20.0302 10.318 20.0302 10.318Z" fill="#F5EFDB" fill-opacity="1.000000" fill-rule="nonzero"/>
	<path id="Vector" d="M45.1885 5.96521C45.3487 6.61011 45.509 7.41626 45.9897 8.22229C46.1499 8.5448 46.4705 8.70605 46.6307 9.02844C46.7909 9.1897 47.1114 9.35095 47.2716 9.51208C47.4319 9.67334 47.7524 9.83459 47.9126 9.83459C48.2331 9.99573 48.5536 10.157 48.5536 10.157C48.5536 10.157 48.7139 9.67334 48.7139 9.02844C48.7139 8.38354 48.5536 7.57739 48.0729 6.77136C47.9126 6.44885 47.5922 6.28772 47.4319 5.96521C47.2717 5.80396 46.9512 5.64282 46.7909 5.48157C46.6307 5.32031 46.3102 5.32031 46.15 5.15906C45.6692 4.99792 45.509 4.99792 45.3487 4.99792C45.3487 4.99792 45.6692 4.99792 46.15 4.99792C46.3102 4.99792 46.6307 4.99792 46.9512 4.99792C47.2717 4.99792 47.4319 4.99792 47.7524 4.83667C48.0729 4.67554 48.3934 4.67542 48.7139 4.51428C49.5151 4.03052 50.156 3.54688 50.4765 2.90198C50.797 2.41833 51.1175 1.93469 51.1175 1.93469C51.1175 1.93469 50.797 1.77344 50.3163 1.77344C49.9958 1.77344 49.8356 1.77344 49.5151 1.77344C49.1946 1.77344 48.8741 1.77344 48.5536 1.93469C48.2331 1.93469 47.9126 2.09595 47.4319 2.25708C46.6307 2.74084 46.15 3.38574 45.8295 4.03064C45.509 4.67554 45.3487 5.15906 45.3487 5.15906C45.3487 5.15906 45.0282 5.32031 45.1885 5.96521Z" fill="#F5EFDB" fill-opacity="1.000000" fill-rule="nonzero"/>
	<path id="Vector" d="M41.1826 7.57727C41.5031 7.89966 41.8236 8.06091 42.1441 8.3833C42.4646 8.54456 42.7851 8.70581 43.1056 8.86707C43.5863 9.02832 44.067 9.18945 44.067 9.18945C44.067 9.18945 44.067 8.70581 44.067 8.06091C43.9068 7.41602 43.7466 6.60986 43.1056 5.96497C42.7851 5.64258 42.4646 5.48132 42.1441 5.15894C41.8236 4.99768 41.5031 4.83643 41.1826 4.67517C40.5417 4.51404 40.0609 4.51404 40.0609 4.51404C40.0609 4.51404 40.5417 4.51404 41.1826 4.35278C41.5031 4.35278 41.8236 4.19153 42.1441 4.0304C42.4646 3.86914 42.9453 3.70789 43.2658 3.38538C43.9068 2.90173 44.3875 2.0957 44.708 1.61194C45.0285 0.967041 45.1887 0.483398 45.1887 0.483398C45.1887 0.483398 44.708 0.483398 43.9068 0.483398C43.1056 0.483398 42.3044 0.805786 41.5031 1.28955C40.7019 1.93445 40.3814 2.57935 40.2212 3.22424C40.0609 3.86914 39.9007 4.35278 39.9007 4.35278C39.9007 4.35278 39.9007 4.83643 40.0609 5.48132C40.2212 6.12622 40.5417 6.93237 41.1826 7.57727Z" fill="#F5EFDB" fill-opacity="1.000000" fill-rule="nonzero"/>
	<path id="Vector" d="M37.8172 5.48169C37.1763 4.99792 36.375 4.67554 35.7341 4.67554C35.0931 4.67554 34.6124 4.67554 34.6124 4.67554C34.6124 4.67554 35.0931 4.67554 35.7341 4.35303C36.375 4.19177 37.016 3.86938 37.657 3.22449C38.2979 2.57959 38.6184 1.77344 38.9389 1.12854C39.0992 0.483643 39.2594 0 39.2594 0C39.2594 0 38.7787 0 37.9774 0.161133C37.657 0.161133 37.1762 0.322388 36.8558 0.644897C36.5353 0.806152 36.0546 1.12854 35.7341 1.45105C35.0931 2.09595 34.7726 2.90198 34.7726 3.54688C34.6124 4.19177 34.6124 4.67554 34.6124 4.67554C34.6124 4.67554 34.7726 5.15918 34.9329 5.80408C35.2533 6.44897 35.5738 7.09387 36.2148 7.73877C36.5353 8.06128 36.8557 8.22241 37.1762 8.38367C37.4967 8.54492 37.8172 8.54492 38.1377 8.70618C38.7787 8.86731 39.0992 8.86743 39.0992 8.86743C39.0992 8.86743 39.0992 8.38367 38.9389 7.73877C38.9389 6.93262 38.4582 6.12659 37.8172 5.48169Z" fill="#F5EFDB" fill-opacity="1.000000" fill-rule="nonzero"/>
	<path id="Vector" d="M59.6105 10.6405C59.6105 10.6405 59.4503 11.1243 59.1298 11.7692C58.9695 12.4141 58.8093 13.2201 58.8093 14.0262C58.8093 14.3488 58.9695 14.6711 59.1298 14.9937C59.29 15.4773 59.6105 15.9609 59.931 16.2833C60.0912 16.4446 60.0912 16.6058 60.2515 16.6058C60.4117 16.7671 60.4117 16.7671 60.4117 16.7671C60.4117 16.7671 60.7322 16.4446 61.0527 15.7997C61.3732 15.1548 61.5334 14.3488 61.5334 13.5426C61.5334 13.2202 61.3731 12.8977 61.2129 12.5753C60.5719 11.4467 59.6105 10.6405 59.6105 10.6405C59.7707 10.6405 60.572 11.2854 61.8539 11.6079C62.1744 11.6079 62.4949 11.7692 62.9756 11.7692C63.7768 11.7692 64.7383 11.4467 65.219 11.1243C65.86 10.8018 66.1805 10.4794 66.1805 10.4794C66.1805 10.4794 66.1804 10.4794 66.0202 10.3181C65.86 10.1569 65.6997 10.1569 65.5395 9.99573C65.0587 9.67322 64.578 9.35083 63.937 9.18958C63.6166 9.02832 63.1358 9.02832 62.8153 9.02832C61.8539 9.02832 61.0527 9.51196 60.572 9.83447C59.931 10.3181 59.6105 10.6405 59.6105 10.6405Z" fill="#F5EFDB" fill-opacity="1.000000" fill-rule="nonzero"/>
	<path id="Vector" d="M55.1237 7.90051C55.1237 7.90051 54.9635 8.38416 54.8033 9.02905C54.643 9.67395 54.643 10.4801 54.9635 11.2863C55.1237 11.7699 55.284 12.0924 55.4442 12.4148C55.6045 12.576 55.6045 12.7373 55.7647 12.8986C55.925 13.0597 55.925 13.2209 56.0852 13.2209C56.4057 13.7046 56.8864 13.8658 56.8864 13.8658C56.8864 13.8658 57.0467 13.3822 57.3672 12.7373C57.5274 12.0924 57.6877 11.2863 57.5274 10.4801C57.3672 9.99646 57.2069 9.67395 57.0467 9.35156C56.8864 9.02905 56.5659 8.70667 56.4057 8.54541C55.6045 8.22302 55.1237 8.06177 55.1237 7.90051C55.1237 7.90051 55.6045 8.22302 56.2455 8.38416C56.5659 8.38416 56.8864 8.54541 57.3672 8.54541C57.6877 8.54541 58.1684 8.54541 58.6491 8.54541C59.4503 8.38416 60.2516 7.90051 60.7323 7.57812C61.213 7.09436 61.5335 6.77197 61.5335 6.77197C61.5335 6.77197 61.0528 6.44946 60.4118 6.28833C60.2516 6.28833 60.0913 6.12708 59.9311 6.12708C59.7708 6.12708 59.4503 5.96582 59.2901 5.96582C58.8094 5.96582 58.4889 5.96582 58.0081 5.96582C57.0467 6.12708 56.4057 6.61072 55.925 7.09436C55.284 7.57812 55.1237 7.90051 55.1237 7.90051Z" fill="#F5EFDB" fill-opacity="1.000000" fill-rule="nonzero"/>
	<path id="Vector" d="M50.1564 5.96533C50.1564 5.96533 49.9962 6.4491 49.9962 7.09399C49.9962 7.73889 49.9962 8.54492 50.4769 9.35107C50.6371 9.67358 50.7974 9.99597 51.1179 10.3185C51.2781 10.6409 51.5986 10.8021 51.7589 10.9634C52.2396 11.2858 52.5601 11.447 52.5601 11.447C52.5601 11.447 52.7203 10.9634 52.8805 10.3185C53.0408 9.67358 53.0408 8.86743 52.7203 8.06128C52.5601 7.73889 52.3998 7.41638 52.0793 7.09399C51.7588 6.77148 51.5986 6.61035 51.2781 6.4491C50.7974 6.12659 50.3167 5.96533 50.1564 5.96533C50.1564 5.96533 50.6371 6.12659 51.2781 6.12659C51.5986 6.12659 51.9191 6.12659 52.3998 6.12659C52.7203 6.12659 53.201 5.96533 53.5215 5.96533C54.3227 5.64294 54.9637 5.1593 55.4444 4.67566C55.9252 4.19189 56.0854 3.70825 56.0854 3.70825C56.0854 3.70825 55.6047 3.547 54.9637 3.38574C54.6432 3.22461 54.1625 3.22461 53.842 3.22461C53.3613 3.22461 53.0408 3.22461 52.5601 3.38574C51.7589 3.70825 51.1179 4.35315 50.6371 4.83679C50.3167 5.48169 50.1564 5.96533 50.1564 5.96533Z" fill="#F5EFDB" fill-opacity="1.000000" fill-rule="nonzero"/>
	<path id="Vector" d="M71.1484 21.927C70.5074 22.0883 70.0267 22.2495 70.0267 22.2495C70.0267 22.2495 69.7062 22.5719 69.2255 23.0555C69.0652 23.2168 68.7448 23.5393 68.5845 23.8617C68.4243 24.1842 68.1038 24.5066 68.1038 24.9904C67.9435 25.3127 67.9435 25.6351 67.9435 25.9576C67.9435 26.6025 67.9435 27.0862 68.1038 27.4087C68.1038 27.5699 68.264 27.7311 68.264 27.8923C68.264 28.0536 68.264 28.0536 68.264 28.0536C68.264 28.0536 68.7448 27.8923 69.2255 27.4087C69.546 27.2474 69.7062 26.925 70.0267 26.6025C70.187 26.2802 70.5074 25.9576 70.6677 25.474C70.8279 25.1515 70.8279 24.8291 70.8279 24.5066C70.8279 23.8617 70.6677 23.3781 70.5074 22.8944C70.3472 22.4106 70.187 22.2495 70.187 22.0883C70.187 22.0883 70.3472 22.4106 70.6677 22.7332C70.9882 23.0555 71.3087 23.5393 71.7894 23.8617C72.1099 24.0229 72.4304 24.3453 72.7509 24.3453C73.2316 24.5066 73.5521 24.6678 74.0328 24.6678C74.5135 24.6678 74.834 24.6678 75.1545 24.6678C75.7955 24.6678 76.2762 24.5066 76.2762 24.5066C76.2762 24.5066 76.2762 24.5066 76.116 24.3453C76.116 24.1842 75.9557 24.0229 75.7955 23.8617C75.475 23.3781 75.1545 22.8944 74.6738 22.4108C74.3533 22.2495 74.0328 21.927 73.7123 21.7659C73.2316 21.6046 72.9111 21.4434 72.4304 21.4434C71.9496 21.7657 71.4689 21.7657 71.1484 21.927Z" fill="#F5EFDB" fill-opacity="1.000000" fill-rule="nonzero"/>
	<path id="Vector" d="M68.2641 17.4131C67.6231 17.5743 67.3026 17.8967 67.3026 17.8967C67.3026 17.8967 66.9821 18.2191 66.5014 18.7029C66.1809 19.1865 65.7002 19.9927 65.5399 20.7988C65.5399 21.2825 65.5399 21.6049 65.5399 21.9274C65.5399 22.2498 65.7001 22.5723 65.7001 22.8947C65.8604 23.3784 66.0206 23.8621 66.0206 23.8621C66.0206 23.8621 66.3411 23.5396 66.8218 23.0559C67.3026 22.5723 67.7833 21.9274 67.9436 20.9601C68.1038 20.1539 67.9435 19.3478 67.6231 18.7029C67.4628 18.3804 67.3026 18.2191 67.3026 18.058C67.1423 17.8967 67.1424 17.7355 67.1424 17.7355C67.3026 17.8967 68.264 19.1865 70.0267 19.6702C70.8279 19.8314 71.7894 19.8314 72.4304 19.6702C73.0714 19.5089 73.5521 19.3478 73.5521 19.3478C73.5521 19.3478 73.2316 18.8641 72.7509 18.3804C72.4304 18.058 72.2701 17.8967 71.7894 17.5743C71.4689 17.4131 70.9882 17.0906 70.5075 17.0906C69.7062 16.9293 68.7448 17.0906 68.2641 17.4131Z" fill="#F5EFDB" fill-opacity="1.000000" fill-rule="nonzero"/>
	<path id="Vector" d="M64.5781 13.3821C63.9371 13.7046 63.6166 14.027 63.6166 14.027C63.6166 14.027 63.2961 14.3495 62.9756 14.9944C62.8154 15.3168 62.6551 15.6393 62.4949 15.9617C62.4949 16.1229 62.3347 16.2841 62.3347 16.6066C62.3347 16.7678 62.3347 17.0902 62.3347 17.2515C62.3347 17.7351 62.3347 18.0576 62.4949 18.38C62.6551 18.7025 62.6551 19.0249 62.8154 19.3474C62.9756 19.6698 63.1359 19.8311 63.1359 19.9923C63.2961 20.1534 63.2961 20.1534 63.2961 20.1534C63.2961 20.1534 63.6166 19.8311 64.0973 19.3474C64.4178 18.8638 64.8985 18.0576 64.8985 17.2515C64.8985 17.0902 64.8985 16.7678 64.8985 16.6066C64.8985 16.4453 64.7383 16.2842 64.7383 16.1229C64.5781 15.8004 64.4178 15.478 64.2576 15.1555C63.9371 14.6719 63.6166 14.3495 63.4564 14.1882C63.4564 14.1882 63.9371 14.5106 64.4178 14.8331C64.7383 14.9943 65.0588 15.1555 65.3793 15.3168C65.5395 15.3168 65.6997 15.478 66.0202 15.478C66.1805 15.478 66.3407 15.6392 66.6612 15.6392C67.4624 15.8004 68.4239 15.478 69.0649 15.3168C69.7058 15.1555 70.0263 14.8331 70.0263 14.8331C70.0263 14.8331 69.8661 14.6719 69.8661 14.5106C69.7058 14.3495 69.5456 14.1882 69.2251 13.8657C68.9046 13.7045 68.5841 13.3821 68.2637 13.2208C67.9432 13.0597 67.4624 12.8984 66.9817 12.8984C66.8215 12.8984 66.501 12.8984 66.3407 12.8984C66.1805 12.8984 65.86 12.8984 65.6998 13.0596C65.219 13.0596 64.8985 13.2208 64.5781 13.3821Z" fill="#F5EFDB" fill-opacity="1.000000" fill-rule="nonzero"/>
	<path id="Vector" d="M77.077 32.8901C76.436 32.2452 75.4745 32.084 74.8336 32.084C74.1926 32.084 73.7119 32.084 73.7119 32.084C73.7119 32.084 73.2311 32.2452 72.7504 32.5676C72.1094 32.8901 71.4685 33.3738 70.9877 34.0187C70.507 34.6636 70.3468 35.4696 70.1865 35.9534C70.1865 36.1145 70.1865 36.2758 70.1865 36.2758C70.1865 36.437 70.1865 36.437 70.1865 36.5983C70.1865 36.7594 70.1865 36.9207 70.1865 36.9207C70.1865 36.9207 70.6672 36.9207 71.3082 36.5983C71.6287 36.437 71.9492 36.2758 72.2697 36.1145C72.5902 35.9534 72.9106 35.6309 73.2311 35.3085C73.5516 34.986 73.7119 34.6636 73.7119 34.1798C73.8721 33.8574 73.8721 33.5349 73.8721 33.2125C73.8721 32.89 73.8721 32.5676 73.8721 32.4064C73.8721 32.2451 73.8721 32.084 73.8721 32.084C73.8721 32.084 73.8721 32.2451 74.0323 32.4064C74.0323 32.5676 74.1926 32.89 74.3528 33.2125C74.5131 33.5349 74.6733 33.8574 74.8336 34.1798C74.9938 34.5023 75.3143 34.8247 75.6348 35.1472C75.9553 35.4696 76.2758 35.6309 76.7565 35.7921C77.077 35.9534 77.5577 36.1145 77.8782 36.1145C78.5192 36.2758 78.9999 36.2758 78.9999 36.2758C78.9999 36.2758 78.9999 36.1145 78.9999 35.9534C78.9999 35.7921 78.9999 35.6309 78.9999 35.6309C78.9999 35.4696 78.8396 35.3085 78.8396 35.1472C78.1987 34.3411 77.8782 33.535 77.077 32.8901Z" fill="#F5EFDB" fill-opacity="1.000000" fill-rule="nonzero"/>
	<path id="Vector" d="M73.3914 26.7617C72.7504 26.7617 72.2697 26.923 72.2697 26.923C72.2697 26.923 71.789 27.0841 71.3082 27.5679C70.8275 27.8903 70.1865 28.5352 69.8661 29.3413C69.7058 29.6638 69.5456 30.1475 69.5456 30.4698C69.5456 30.7924 69.3853 31.1149 69.3853 31.4373C69.3853 31.5985 69.3853 31.7596 69.3853 31.7596C69.3853 31.9209 69.3853 31.9209 69.3853 32.0822C69.3853 32.2434 69.3853 32.4045 69.3853 32.4045C69.3853 32.4045 69.8661 32.2434 70.3468 31.9209C70.6673 31.7596 70.9878 31.5985 71.3082 31.276C71.6287 30.9536 71.789 30.6311 72.1095 30.3087C72.2697 29.9862 72.4299 29.5026 72.4299 29.1801C72.4299 28.8577 72.4299 28.374 72.4299 28.0515C72.4299 27.4066 72.2697 26.923 72.1095 26.923C72.1095 26.923 72.2697 27.4066 72.5902 28.0515C72.7504 28.374 72.9107 28.6964 73.2311 28.8577C73.5516 29.1801 73.7119 29.5026 74.1926 29.6638C74.5131 29.825 74.9938 30.1475 75.3143 30.1475C75.6348 30.3087 76.1155 30.3087 76.436 30.3087C77.077 30.3087 77.5577 30.3087 77.5577 30.3087C77.5577 30.3087 77.5577 30.1475 77.3975 29.9862C77.3975 29.825 77.3975 29.825 77.2372 29.6638C77.2372 29.5026 77.077 29.3413 77.077 29.1801C76.9168 28.8577 76.7565 28.5353 76.436 28.2128C76.1155 27.8904 75.7951 27.5679 75.4746 27.4066C74.9938 26.923 74.1926 26.7617 73.3914 26.7617Z" fill="#F5EFDB" fill-opacity="1.000000" fill-rule="nonzero"/>
	<path id="3" d="M40.3194 38.6945C42.3978 38.8138 44.0309 39.5448 45.2185 40.8873C46.4062 42.23 47 43.8112 47 45.6312C47 47.2721 46.6288 48.734 45.8866 50.017C45.174 51.27 44.1645 52.2546 42.858 52.9707C41.5516 53.6569 40.0522 54 38.3598 54C35.5391 54 33.1044 52.8812 31.0557 50.6436L31.0111 50.554C31.0111 50.4347 31.0705 50.3452 31.1893 50.2855C31.3377 50.196 31.4417 50.196 31.501 50.2855C32.184 50.9717 33.0005 51.4938 33.9506 51.8518C34.9304 52.2098 35.8805 52.3889 36.801 52.3889C38.82 52.3889 40.2897 51.8071 41.2102 50.6436C42.1603 49.4501 42.6353 47.8987 42.6353 45.9893C42.6353 41.484 40.2007 39.2314 35.3312 39.2314C35.2125 39.2314 35.1382 39.142 35.1086 38.963C35.1086 38.7542 35.1828 38.6497 35.3312 38.6497C37.7066 38.6497 39.3693 38.1276 40.3194 37.0834C41.2992 36.0391 41.7892 34.5623 41.7892 32.6528C41.7892 30.7732 41.3883 29.3857 40.5866 28.4907C39.785 27.5957 38.6715 27.1482 37.2463 27.1482C36.0884 27.1482 34.9749 27.4465 33.9061 28.0432C32.8372 28.6101 32.0503 29.4604 31.5456 30.5941C31.5456 30.624 31.501 30.6389 31.412 30.6389C31.3229 30.6389 31.219 30.609 31.1002 30.5494C31.0111 30.4897 30.9814 30.4449 31.0111 30.4152C31.6643 28.7444 32.7036 27.4316 34.1288 26.4768C35.5539 25.4923 37.187 25 39.0278 25C41.0765 25 42.7393 25.5818 44.016 26.7454C45.3224 27.9089 45.9756 29.4008 45.9756 31.2207C45.9756 32.8318 45.4561 34.3236 44.4168 35.696C43.4073 37.0684 42.0415 38.0679 40.3194 38.6945Z" fill="#AAAAAA" fill-opacity="1.000000" fill-rule="nonzero"/>
</svg>
